<?xml version="1.0" encoding="utf-8"?>
<!-- Generator: Adobe Illustrator 18.0.0, SVG Export Plug-In . SVG Version: 6.00 Build 0)  -->
<!DOCTYPE svg PUBLIC "-//W3C//DTD SVG 1.1//EN" "http://www.w3.org/Graphics/SVG/1.1/DTD/svg11.dtd">
<svg version="1.1" id="Layer_1" xmlns="http://www.w3.org/2000/svg" xmlns:xlink="http://www.w3.org/1999/xlink" x="0px" y="0px"
	 viewBox="0 200 1440 700" enable-background="new 0 200 1440 700" xml:space="preserve">
<g id="fish_1_">
	<g>
		<path fill="#75C7DC" d="M1287.7,314.2c-1.6-1.5-2.1-3.7-3.2-5.5c-0.1-0.1-0.1-0.4-0.1-0.6c0.6-1.1,0.3-2.2-0.2-3.3
			c-0.1-0.2-0.1-0.4,0-0.6c0.5-1.4,1.1-2.7,1.6-4.1c0.2-0.5,0.2-1.1,0.2-1.6c-0.5,0-1.1-0.2-1.6,0c-0.8,0.3-1.5,0.9-2.2,1.4
			c-0.6,0.4-1.2,0.9-1.8,1.4c-0.4,0.2-0.8,0.3-1.3,0.5c0-0.9-0.1-1.5,0-2.2c0.1-1-0.2-1.8-0.6-2.6c-0.3-0.5-0.5-1-0.7-1.5
			c-0.4-1.2,0-2,1.2-2.4c0.6-0.2,1.2-0.3,1.8-0.4c0.2,0,0.5,0,0.6-0.2c0.2-0.2,0.5-0.5,0.6-0.7c0-0.2-0.3-0.5-0.5-0.6
			c-1.2-0.4-2.4-0.9-3.6-1c-4.2-0.6-8,0.4-11.5,2.7c-1.5,0.9-3,1.8-4.5,2.6c-3.3,1.7-5.7,4.3-7.3,7.7c-0.5,1-1.1,2-1.6,3
			c-0.3,0.5-0.4,1.1-0.6,1.7c0.4,0.1,0.8,0.1,0.8,0.2c0.1,0.2,0,0.5-0.2,0.7c-0.6,0.9-0.6,0.9,0.2,1.6c1,0.8,1.9,1.6,2.9,2.5
			c1.6,1.4,3.5,2.1,5.4,2.8c2.4,0.9,4.6,2.1,6.5,3.8c0.6,0.5,1.4,0.8,2.1,1.1c0.5,0.2,0.8-0.1,0.7-0.6c-0.2-1-0.4-2-0.5-3
			c0-0.2,0-0.4-0.1-0.8c1.2,0.4,2.2,0.6,3.2,1c1.6,0.6,3.2,1.3,4.7,2c1.1,0.5,2.3,0.9,3.6,0.8c0.6-0.1,1-0.3,0.9-0.9
			c-0.2-0.8-0.3-1.7-0.6-2.5c-0.8-1.7-0.9-3.4-0.8-5.3c0-0.1,0-0.1,0.1-0.2c0,0,0.1-0.1,0.2-0.2c0.7,0.6,1.3,1.3,2,1.9
			s1.3,1.2,2.1,1.7c0.5,0.3,1.2,0.4,1.8,0.5C1287.9,314.9,1288.1,314.5,1287.7,314.2z"/>
		<path fill="#75C7DC" d="M1336.7,313.3c-0.8-0.7-1-1.7-1.5-2.6c0-0.1-0.1-0.2,0-0.3c0.3-0.5,0.1-1-0.1-1.5c0-0.1,0-0.2,0-0.3
			c0.2-0.6,0.5-1.3,0.8-1.9c0.1-0.2,0.1-0.5,0.1-0.7c-0.3,0-0.5-0.1-0.7,0c-0.4,0.2-0.7,0.4-1.1,0.6c-0.3,0.2-0.6,0.4-0.9,0.6
			c-0.2,0.1-0.4,0.2-0.6,0.2c0-0.4,0-0.7,0-1c0.1-0.4-0.1-0.8-0.3-1.2c-0.1-0.2-0.2-0.5-0.3-0.7c-0.2-0.6,0-1,0.6-1.1
			c0.3-0.1,0.6-0.1,0.9-0.2c0.1,0,0.2,0,0.3-0.1c0.1-0.1,0.2-0.2,0.3-0.4c0-0.1-0.1-0.2-0.2-0.3c-0.6-0.2-1.1-0.4-1.7-0.5
			c-2-0.3-3.7,0.2-5.4,1.3c-0.7,0.4-1.4,0.8-2.1,1.2c-1.6,0.8-2.7,2-3.4,3.6c-0.2,0.5-0.5,0.9-0.7,1.4c-0.1,0.3-0.2,0.5-0.3,0.8
			c0.2,0,0.4,0,0.4,0.1s0,0.2-0.1,0.3c-0.3,0.4-0.3,0.4,0.1,0.8c0.5,0.4,0.9,0.8,1.4,1.1c0.7,0.6,1.6,1,2.5,1.3c1.1,0.4,2.1,1,3,1.8
			c0.3,0.2,0.6,0.4,1,0.5c0.2,0.1,0.4-0.1,0.3-0.3c-0.1-0.5-0.2-0.9-0.2-1.4c0-0.1,0-0.2,0-0.4c0.6,0.2,1,0.3,1.5,0.5
			c0.7,0.3,1.5,0.6,2.2,0.9c0.5,0.2,1.1,0.4,1.7,0.4c0.3,0,0.5-0.1,0.4-0.4c-0.1-0.4-0.1-0.8-0.3-1.1c-0.4-0.8-0.4-1.6-0.4-2.5v-0.1
			c0,0,0,0,0.1-0.1c0.3,0.3,0.6,0.6,1,0.9c0.3,0.3,0.6,0.6,1,0.8c0.2,0.1,0.5,0.2,0.8,0.2C1336.8,313.7,1336.9,313.5,1336.7,313.3z"
			/>
		<path fill="#75C7DC" d="M1315.4,337.5c-0.9-0.9-1.2-2.1-1.9-3.2c-0.1-0.1-0.1-0.2,0-0.3c0.4-0.7,0.2-1.3-0.1-1.9
			c0-0.1-0.1-0.3,0-0.4c0.3-0.8,0.7-1.6,0.9-2.4c0.1-0.3,0.1-0.6,0.1-0.9c-0.3,0-0.7-0.1-0.9,0c-0.5,0.2-0.9,0.5-1.3,0.8
			c-0.4,0.2-0.7,0.5-1.1,0.8c-0.2,0.1-0.5,0.2-0.8,0.3c0-0.5,0-0.9,0-1.2c0.1-0.6-0.1-1-0.4-1.5c-0.2-0.3-0.3-0.6-0.4-0.9
			c-0.2-0.7,0-1.2,0.7-1.4c0.3-0.1,0.7-0.2,1.1-0.2c0.1,0,0.3,0,0.4-0.1c0.1-0.1,0.3-0.3,0.3-0.4c0-0.1-0.2-0.3-0.3-0.3
			c-0.7-0.2-1.4-0.5-2.1-0.6c-2.4-0.4-4.6,0.2-6.7,1.6c-0.8,0.5-1.7,1-2.6,1.5c-1.9,1-3.3,2.5-4.2,4.5c-0.3,0.6-0.6,1.2-0.9,1.7
			c-0.2,0.3-0.2,0.7-0.3,1c0.2,0.1,0.4,0.1,0.5,0.1c0,0.1,0,0.3-0.1,0.4c-0.3,0.5-0.3,0.5,0.1,0.9c0.6,0.5,1.1,0.9,1.7,1.4
			c0.9,0.8,2,1.2,3.1,1.6c1.4,0.5,2.7,1.2,3.8,2.2c0.3,0.3,0.8,0.5,1.2,0.6c0.3,0.1,0.5-0.1,0.4-0.4c-0.1-0.6-0.2-1.1-0.3-1.7
			c0-0.1,0-0.2-0.1-0.5c0.7,0.2,1.3,0.4,1.9,0.6c0.9,0.4,1.8,0.8,2.7,1.2c0.7,0.3,1.3,0.5,2.1,0.5c0.4,0,0.6-0.2,0.5-0.5
			c-0.1-0.5-0.2-1-0.4-1.4c-0.5-1-0.5-2-0.5-3v-0.1c0,0,0,0,0.1-0.1c0.4,0.4,0.8,0.7,1.2,1.1c0.4,0.3,0.8,0.7,1.2,1
			c0.3,0.2,0.7,0.3,1,0.3C1315.6,338,1315.7,337.7,1315.4,337.5z"/>
	</g>
	<g>
		<path fill="#75C7DC" d="M1112.4,394.4c0.4,0.1,0.7,0.1,1.1,0.2c0.1,0.1,0.1,0.3,0.2,0.4c-0.9,0.5-1.7,1.2-2.6,1.4
			c-2.8,0.8-5.6,1.5-8.5,2.1c-1.7,0.4-3.1,1-4.1,2.6c-0.5,0.7-1.4,1.2-2.1,1.8c-0.2-0.8-0.4-1.6-0.5-2.4c0-0.1-0.1-0.2-0.1-0.1
			c-3.6,0.2-7.1,0.4-10.6,0.6c-0.4,0-0.8,0.4-1.1,0.7c-0.4,0.4-0.7,0.8-1.1,1.3c-0.4-0.2-0.7-0.4-1-0.6c-1.1,0.9-2.1,1.8-3.4,2.9
			c-0.7-1.9-0.2-3.4,0.3-5.1c-3.7-0.3-7.3-1.9-10.9,0.8c-1.2,0.9-2.8,1.4-4.2,2.1c-1,0.5-1.6,0.2-1.8-0.8c-0.3-1.5-0.6-3-0.9-4.4
			c0.8-0.3,1.2-0.4,1.6-0.5c-1.2-0.9-3.6-1-5.8-0.3c-2.3,0.7-4.6,1.4-7,2c-0.9,0.2-1.8,0.1-3,0.2c0.5-1.6,1-3,1.3-4.4
			c0.2-0.8,0.1-1.7,0-2.5c-0.2-1.8-0.5-3.5-0.8-5.7c1.5,0.4,2.7,0.5,3.7,0.9c1.2,0.5,2.4,1,3.5,1.8c2,1.4,4.1,1.8,6.7,1.6
			c-0.3-0.4-0.5-0.7-0.9-1.2c0.8-0.2,1.5-0.5,2-0.3c3.2,1.2,6.2,0.1,9.3-0.2c1.8-0.2,3.5-0.6,5.6-0.9c-0.9-0.4-1.6-0.6-2.4-0.9
			c1.9-2.1,3.7-4.2,5.8-6.5c1.4,1.2,3,2.2,4.2,3.6c1.7,1.9,3.6,2.5,6.1,2.5c6.5,0,12.7,1.5,18.7,3.7c0.8,0.3,1.6,0.7,2.3,1.2
			C1113.6,392.8,1113.7,393.3,1112.4,394.4z"/>
		<path fill="#75C7DC" d="M1057.3,415.7c0.3,0.1,0.6,0.1,0.9,0.2c0,0.1,0.1,0.2,0.1,0.3c-0.7,0.4-1.4,0.9-2.1,1.2
			c-2.3,0.6-4.5,1.2-6.8,1.7c-1.4,0.3-2.5,0.8-3.3,2.1c-0.4,0.6-1.1,1-1.7,1.5c-0.1-0.7-0.3-1.3-0.4-2c0-0.1-0.1-0.1,0-0.1
			c-2.9,0.2-5.7,0.3-8.6,0.5c-0.3,0-0.6,0.3-0.9,0.6s-0.5,0.7-0.8,1.1c-0.3-0.2-0.5-0.3-0.8-0.5c-0.9,0.7-1.7,1.5-2.8,2.4
			c-0.6-1.6-0.1-2.7,0.2-4.1c-3-0.2-5.9-1.5-8.8,0.6c-1,0.7-2.2,1.1-3.4,1.7c-0.8,0.4-1.3,0.2-1.5-0.7c-0.3-1.2-0.5-2.4-0.8-3.6
			c0.6-0.2,1-0.3,1.3-0.4c-1-0.7-2.9-0.8-4.7-0.2c-1.9,0.6-3.7,1.1-5.6,1.6c-0.7,0.2-1.5,0.1-2.4,0.2c0.4-1.3,0.8-2.4,1-3.5
			c0.1-0.7,0.1-1.4,0-2c-0.2-1.4-0.4-2.8-0.6-4.6c1.2,0.3,2.2,0.4,3,0.7c1,0.4,2,0.8,2.8,1.4c1.6,1.1,3.4,1.4,5.4,1.3
			c-0.2-0.3-0.4-0.5-0.7-1c0.7-0.1,1.2-0.4,1.7-0.3c2.5,1,5,0.1,7.5-0.1c1.4-0.1,2.8-0.5,4.5-0.7c-0.8-0.3-1.3-0.5-1.9-0.7
			c1.5-1.7,3-3.4,4.7-5.2c1.1,0.9,2.4,1.8,3.4,2.9c1.4,1.5,2.9,2.1,4.9,2.1c5.2,0,10.2,1.2,15.1,3c0.7,0.2,1.3,0.6,1.9,1
			C1058.3,414.4,1058.3,414.8,1057.3,415.7z"/>
		<path fill="#75C7DC" d="M1023.2,382.2c0.2,0,0.5,0.1,0.7,0.1c0,0.1,0.1,0.2,0.1,0.3c-0.6,0.3-1.1,0.7-1.7,0.9
			c-1.8,0.5-3.6,0.9-5.4,1.3c-1.1,0.2-2,0.6-2.6,1.6c-0.3,0.5-0.9,0.8-1.3,1.2c-0.1-0.5-0.2-1-0.4-1.6c0-0.1-0.1-0.1,0-0.1
			c-2.3,0.1-4.6,0.2-6.8,0.4c-0.2,0-0.5,0.3-0.7,0.5c-0.2,0.2-0.4,0.5-0.7,0.9c-0.2-0.1-0.4-0.2-0.6-0.4c-0.7,0.6-1.4,1.2-2.2,1.9
			c-0.4-1.2-0.1-2.2,0.2-3.3c-2.4-0.2-4.7-1.2-7,0.5c-0.8,0.6-1.8,0.9-2.7,1.3c-0.6,0.3-1,0.2-1.2-0.5c-0.2-0.9-0.4-1.9-0.6-2.8
			c0.5-0.2,0.8-0.2,1-0.3c-0.8-0.5-2.3-0.6-3.7-0.2c-1.5,0.4-3,0.9-4.5,1.3c-0.6,0.1-1.2,0.1-1.9,0.1c0.3-1,0.6-1.9,0.8-2.8
			c0.1-0.5,0.1-1.1,0-1.6c-0.1-1.1-0.3-2.2-0.5-3.7c1,0.2,1.7,0.3,2.4,0.6c0.8,0.3,1.6,0.6,2.2,1.1c1.3,0.9,2.7,1.1,4.3,1
			c-0.2-0.2-0.3-0.4-0.6-0.8c0.5-0.1,1-0.3,1.3-0.2c2,0.8,4,0.1,6-0.1c1.1-0.1,2.2-0.4,3.6-0.6c-0.6-0.2-1-0.4-1.5-0.6
			c1.2-1.4,2.4-2.7,3.7-4.1c0.9,0.7,1.9,1.4,2.7,2.3c1.1,1.2,2.3,1.6,3.9,1.6c4.1,0,8.1,0.9,12,2.4c0.5,0.2,1,0.5,1.5,0.8
			C1024,381.2,1024,381.5,1023.2,382.2z"/>
	</g>
</g>
</svg>
