<?xml version="1.0" encoding="utf-8"?>
<!-- Generator: Adobe Illustrator 18.0.0, SVG Export Plug-In . SVG Version: 6.00 Build 0)  -->
<!DOCTYPE svg PUBLIC "-//W3C//DTD SVG 1.1//EN" "http://www.w3.org/Graphics/SVG/1.1/DTD/svg11.dtd">
<svg version="1.1" id="Layer_1" xmlns="http://www.w3.org/2000/svg" xmlns:xlink="http://www.w3.org/1999/xlink" x="0px" y="0px"
	 viewBox="0 0 1440 900" enable-background="new 0 0 1440 900" xml:space="preserve">
<path fill="#69B1C4" d="M1276.8,717.3c0,0-31.3,0-39,0s-27.4-9.9-47.2-9.3c-11.5,0.3-18-2.3-21.4-4.6c-0.7-1.8-1.8-3-3.3-3
	c-7.2-0.6-21.7-16.3-21.7-16.3c-1.8-6.8-5.4-13.3-11.7-16.3c-9.8-4.8-16.6-14.1-27.1-17.6c-1.1-0.3-1.9-1.6-2.7-2.4
	c-5.9-5.9-10.8-12.8-17.6-17.9c-6.1-4.5-12-9.1-17.9-13.8c-11-8.7-20.5-19.4-32.9-26.7c-0.7-0.4-1.3-1.1-1.6-1.8
	c-4.7-11.5-15.4-19.1-19-31.4c-2-6.7-8.5-11-12.4-16.8c-6.3-9.4-14.1-16.3-25.3-19c-3.9-0.9-5.8-3.5-6.5-7.6
	c-0.7-4.2-1.9-8.2-3.1-12.4c-1.1-3.5-3.6-5.4-7.2-6.5c-10.5-3-21.1-5.6-30.1-12.1c-3-2.1-6.6-3.3-10-4.7c-5.4-2.1-11.1-3.9-16.6-6.3
	c-13.3-5.8-27.3-8.9-41.6-10.7c-8-1-16.1-0.2-24.2-1.5c-7.7-1.2-15.6-0.5-23.3,0.7c-7.3,1.1-14.7,2.3-22,2.4
	c-9,0.1-15.2,3.9-19.4,11.5c-1.1,1.9-2.4,3-4.4,4c-20.3,8.5-39.9,18.4-59.6,27.9c-11.5,5.6-22.1,13.4-34.7,16.9
	c-7.4,2.1-10.5,7.4-11.6,14.4c-0.8,5.8-1.6,11.5-3,17.3c-1.6,6.6-5.1,9.8-11.2,11.5c-7.1,2-14,4.9-18.2,11.3
	c-10.2,15.7-25,27.1-37.9,40.4c-4.6,4.8-11,6.7-16.4,10.1c-13.4,8.7-24,20.8-36.1,31.1c-7.1,6-12.9,12.9-18.3,20.5
	c-2.8,4-6.3,7.2-10.4,9.9c-2.1,1.4-4.9,1.8-6.8,3.6c-4.8,4.5-10.5,7.6-16.6,9.7c-5.5,2-7.8,6.5-8.8,11c-0.7,3.3-2.4,4.8-4.4,6.3
	c-9.1,6.9-17.6,14.4-26.2,21.9c-2.6,2.2-4.8,4.9-6.1,8.1c-2.1,1.6-5,3-8.8,3.6c-11.5,1.6-60.1-0.8-64.3,5.8
	c-4.1,6.6-51.9,4.1-54.4,9.1c-2.5,4.9-71.7,48.6-84.8,48.6c-13.2,0-56-6.6-65.9-5.8c-9.9,0.8-32.1,19.8-39.5,19.8
	C116.2,830,0,830,0,830v70h1440V738.7v-6.6v-14.8L1276.8,717.3L1276.8,717.3z M1152.8,727.9h0.3l-0.3,2.6
	C1152.9,729.6,1152.9,728.8,1152.8,727.9z M472.7,739.4c0,0.1,0,0.2,0,0.2h-0.4C472.4,739.5,472.5,739.4,472.7,739.4z M1023.9,754.4
	c-8.2,6.6-22.2,20.6-41.2,21.4c-18.9,0.8-43.7,13.2-54.4,13.2s-84.8,12.4-109.6,11.5s-53.5,14.8-81.6,2.5
	c-28-12.4-35.4-35.4-51.9-35.4s-22.2-3.2-21-18c0.7-6.2,1.2-12.2,1.2-14.9c0-6.6-3.3-22.2-3.3-22.2v-12.1c2.7-5.6,4.9-11.5,7-17.4
	c8.6-24.5,22.2-45.7,40.8-63.9c1.5-1.5,2.6-3.2,3.2-5.2c1.1-3.8,3.2-6.6,6.3-8.8c2.9-2.1,5.6-4.9,5-8.5c-0.7-4,0.9-5.4,4.1-6.4
	c1-0.3,1.9-1.1,2.9-1.6c10.9-5.6,21.5-11.6,33.5-14.4c5.8-1.4,9.6-5,11.6-10.5c1.2-3.2,2.6-6.2,4.8-9.1c7.2-9.4,16.5-16.4,25.6-23.6
	c6.8-5.3,15.2-8.1,23.1-9.2c11.5-1.6,23.6-0.9,34.3,5.4c2.1,1.2,4.2,2.1,6.6,2.3c5.9,0.5,9.8,3.6,12.7,8.6c1.9,3.3,4.6,6.5,8.4,6.8
	c6,0.3,7.7,3.6,7.9,8.7c0.1,1.6,0.3,3.3,0.4,4.9c0.2,8.6,3.5,15.7,11.1,19.7c6.4,3.3,11.7,7.7,16.1,13.1c3.3,4,7.7,7.1,9.3,12.4
	c1.7,5.7,3.5,11.4,5.3,17.1l0,0c0,0,5.6,31.3,10.5,33c4.9,1.6,17.1,8.2,19.2,13.2c2.2,4.9,19.8,31.3,19.8,31.3s13.8,6.6,22.5,12.6
	c5.4,3.7,10.8,14,14.2,21.4C1028.5,732.2,1032.2,747.8,1023.9,754.4z"/>
</svg>
