<?xml version="1.0" encoding="utf-8"?>
<!-- Generator: Adobe Illustrator 18.0.0, SVG Export Plug-In . SVG Version: 6.00 Build 0)  -->
<!DOCTYPE svg PUBLIC "-//W3C//DTD SVG 1.1//EN" "http://www.w3.org/Graphics/SVG/1.1/DTD/svg11.dtd">
<svg version="1.1" id="Layer_1" xmlns="http://www.w3.org/2000/svg" xmlns:xlink="http://www.w3.org/1999/xlink" x="0px" y="0px"
	 viewBox="0 200 1440 700" enable-background="new 0 200 1440 700" xml:space="preserve">
<path fill="#5297A9" d="M1379.9,553.8c-0.3,0.8-0.4,1.7-0.7,2.5c-1.7,6.5-5.8,11.3-14.8,13.3c-7.8,1.7-14.5,5.3-20.8,9.2
	c-6.4,4.1-13.2,7.6-20.8,10.2c-6.1,2.1-8.4,5.8-8.8,10.6c-0.3,4,1.3,7.8,1.2,11.8c-0.1,4.4-2.1,7.9-7.7,9.3
	c-8.4,2.2-12.2,6.8-14.2,13.1c-2.1,6.2-6.1,11.9-13.7,15.3c-20,8.9-41.7,14.9-62.6,22.2c-3.4,1.2-7.3,1.6-11,2.2
	c-10.3,1.5-20.5,3.5-30.3,6.6c-5.2,1.6-9.2,3.9-12,7.7c-5.4,7.4-13.6,12.1-24.6,13.9c-6.8,1.2-13.5,2.6-20.3,3.7
	c-14.1,2.3-28.5,1.6-42.7,3.2c-29.5,3.3-58.6,8.5-87.4,13.8c-35.2,6.4-69.4,15.4-105.5,20.1c-39.3,5.1-78.2,13.4-118.4,14.4
	c-5.8,0.1-11.8,1.2-15,5.6C740.9,774.7,744,750,735,749c-12-5.5-31.7-8.5-43.2-7.3c-17.5,1.8-34,7.3-51.5,9.5
	c-10.3,1.3-17.5,5.2-22.9,12c-5.8,7.4-14.1,12.7-24.8,15.8c-5.1,1.4-9.7,3.6-14,6.1c-8.8,5.3-17.9,10.4-27.6,14.5
	c-6,2.6-10.8,5.8-14.9,10.1c-3.8,4.1-8.4,7.8-14.1,10.1c-9,3.6-18.3,8.5-28.9,6.7c-14.6-2.4-28.8-2-43.3-0.1
	c-12.3,1.6-25,4.5-37.1,0.9c-14.9-4.4-28.4-2.3-42.1,2.4c-9.5,3.3-18.8,7.1-29.3,8.8c-38,6.2-76.5,11.2-114.6,17
	c-26.5,4-53.6,5.6-80.7,7.1c-12.4,0.7-24.7,0.8-34.4-6.8c-2-1.6-4.8-2.6-7.5-3.5c-10.8-3.6-19.6-10.4-31.8-12
	c-10.6-1.4-20.9-3.6-31.1-6.3c-11.4-3-22.7-3.3-34.1,0.4c-2.3,0.8-4.7,1.4-7.1,1.8V900h1439V537.6c-14.6,0.5-29.3,1.6-43.8,4.3
	C1384.4,543.9,1381.9,545.3,1379.9,553.8z"/>
</svg>
