<?xml version="1.0" encoding="utf-8"?>
<!-- Generator: Adobe Illustrator 18.0.0, SVG Export Plug-In . SVG Version: 6.00 Build 0)  -->
<!DOCTYPE svg PUBLIC "-//W3C//DTD SVG 1.1//EN" "http://www.w3.org/Graphics/SVG/1.1/DTD/svg11.dtd">
<svg version="1.1" id="Layer_1" xmlns="http://www.w3.org/2000/svg" xmlns:xlink="http://www.w3.org/1999/xlink" x="0px" y="0px"
	 viewBox="0 0 6599.9 308" enable-background="new 0 0 6599.9 308" xml:space="preserve">
<g>
	<path fill="#27657A" d="M166.7,227c65.1,3.8,130.2,8.2,195.3,11.3c58.7,2.8,117.5,5.5,176.3,5.8c85.5,0.4,171-0.8,256.4-2.7
		c30.3-0.7,60.9-3.9,90.8-9.1c35.4-6.2,72.5-10.5,104.7-24.9c64.5-28.7,130.8-37.8,200.6-39.9c72.3-2.2,144.5-12.3,216.5-20.9
		c60.8-7.2,121.3-17.1,181.9-25.9c101.6-14.8,199.3-42.1,294.1-82.3c35.8-15.2,76.7-21.6,115.9-25c84-7.2,168.4-13.9,252.6-13.3
		c81.6,0.6,163.5,7.6,244.6,17.2c67,7.9,134.1,19.7,199.1,37.3c76.7,20.7,150.7,51.1,226.9,74.2c42,12.7,85.5,21.1,129,27.6
		c44.1,6.5,88.9,10.6,133.5,11.5c49.2,0.9,98.5-6.2,147.6-4c49.9,2.3,99.4,12.3,149.1,17.8c46.8,5.2,93.7,10.2,140.7,12.9
		c57.9,3.3,116,5.9,174,5.3c52.7-0.6,105.4-4.8,158-9.5c76.1-6.8,152.1-15.1,228.1-23.4c51.6-5.6,103.2-10.9,154.4-18.6
		c71.9-10.9,143.5-24.1,215.2-36c53.7-8.9,107.6-17,161.3-25.8c135.2-22.1,271.4-32.3,408.2-31.7c76.2,0.3,152.7,1.7,228.4,9
		c57.3,5.5,114.1,18.9,170.2,32.8c49.8,12.3,102,22.9,146.4,46.8c87.1,47.1,176.6,35.5,267.8,28c80.3-6.6,161-9.1,241.6-12.9
		c50.2-2.4,100.5-6,150.6-4.7c32.7,0.9,65.8,7.3,97.5,15.8c39.9,10.6,78.5,26,117.8,39.1c18.2,6.1,36.5,11.8,54.8,17.8
		c1.1,0.4,2.1,1.1,3.1,1.6c-4.2,1.6-8.7,5.1-12.6,4.5c-64.8-10.1-129.3-24.9-194.5-30c-77.3-6.1-155.4-5.6-233.1-4.9
		c-89.9,0.8-179.7,4.1-269.5,8.1c-39.3,1.8-78.4,11.1-117.6,11.5c-33,0.3-66.3-6.2-99.1-11.9c-60.3-10.5-120.2-23.3-180.6-33.5
		c-19.7-3.3-40.2-2.7-60.4-2.4c-141,2-282.1,2.8-423,7.4c-51.9,1.7-103.3,14.9-155.2,18.4c-113.8,7.8-212.4,62.6-317.3,98.1
		c-53.4,18-108.5,17.7-162.9,9c-56.8-9.1-112.8-23.2-169.1-35.3c-42.3-9.1-84.2-22.4-127-26.9c-53.9-5.7-108.5-3.9-162.8-6
		c-65.1-2.5-130.1-7.1-195.2-7.9c-37.3-0.5-74.6,5.6-112,7.1c-69.5,2.8-139,6.5-208.6,6.2c-94.9-0.3-189.9-1.1-284.5-7.3
		c-58.9-3.9-117.1-17.6-175.4-28.3c-76-13.9-151.8-28.8-227.5-44c-83.5-16.8-166.2-41.1-250.4-49.8c-88-9.1-178-10.1-266.1-2.5
		c-78.3,6.8-155.6,31.3-221.3,77.3c-41.5,29.1-81.6,58.5-133.3,60.9c-64.7,3-129.8,6.3-194.2,1.4c-88.7-6.7-176.7-22.7-265.3-31.5
		c-51.3-5.1-104.1-11-154.6-4.2c-76.3,10.2-151,31.4-226.5,47.3c-38.4,8.1-77,15.8-115.8,22.2c-54.5,9-108.9,18.9-163.8,23.8
		c-37,3.3-75.2,1.6-112.1-3.4c-59.6-8.2-118.2-26.8-177.9-30.8c-114.2-7.5-228.8-8.8-343.2-10.1c-19.1-0.2-38,13.6-57.5,19.1
		c-9.2,2.6-19.6,1.1-29.5,1.2c-0.1,0-0.9-4.1-0.3-4.4c25.3-13.3,49.5-31,76.5-38.4c28.5-7.8,59.8-5.7,89.8-7.9
		C166.6,229.1,166.6,228,166.7,227z"/>
</g>
</svg>
