<?xml version="1.0" encoding="utf-8"?>
<!-- Generator: Adobe Illustrator 18.1.1, SVG Export Plug-In . SVG Version: 6.00 Build 0)  -->
<svg version="1.1" id="Layer_1" xmlns="http://www.w3.org/2000/svg" xmlns:xlink="http://www.w3.org/1999/xlink" x="0px" y="0px"
	 viewBox="0 129.4 500 250.6" enable-background="new 0 129.4 500 250.6" xml:space="preserve">
<rect x="115.6" y="316.4" fill="#9EC9DB" width="269.4" height="48.3"/>
<g>
	<g id="windows_19_">
		<path fill="#8AA7B2" d="M126.7,329.4c3.2,0,5.9,2.6,5.9,5.9v7h-11.7v-7C120.9,332,123.5,329.4,126.7,329.4z"/>
		<path fill="#779499" d="M126.7,330.7c2.4,0,4.3,1.9,4.3,4.3v7.3h-8.6V335C122.4,332.6,124.3,330.7,126.7,330.7z"/>
		<g>
			<ellipse fill="#AE8F3A" cx="126.7" cy="331.3" rx="1.9" ry="2.5"/>
		</g>
		<path fill="#8AA7B2" d="M126.7,349c3.2,0,5.9,2.6,5.9,5.9v9.8h-11.7v-9.8C120.9,351.6,123.5,349,126.7,349z"/>
		<path fill="#779499" d="M126.7,350.2c2.4,0,4.3,1.9,4.3,4.3v10.2h-8.6v-10.2C122.4,352.2,124.3,350.2,126.7,350.2z"/>
		<g>
			<ellipse fill="#AE8F3A" cx="126.7" cy="350.8" rx="1.9" ry="2.5"/>
		</g>
	</g>
	<g id="windows_18_">
		<path fill="#8AA7B2" d="M143.4,329.4c3.2,0,5.9,2.6,5.9,5.9v7h-11.7v-7C137.5,332,140.2,329.4,143.4,329.4z"/>
		<path fill="#779499" d="M143.4,330.7c2.4,0,4.3,1.9,4.3,4.3v7.3h-8.6V335C139.1,332.6,141,330.7,143.4,330.7z"/>
		<g>
			<ellipse fill="#AE8F3A" cx="143.4" cy="331.3" rx="1.9" ry="2.5"/>
		</g>
		<path fill="#8AA7B2" d="M143.4,349c3.2,0,5.9,2.6,5.9,5.9v9.8h-11.7v-9.8C137.5,351.6,140.2,349,143.4,349z"/>
		<path fill="#779499" d="M143.4,350.2c2.4,0,4.3,1.9,4.3,4.3v10.2h-8.6v-10.2C139.1,352.2,141,350.2,143.4,350.2z"/>
		<g>
			<ellipse fill="#AE8F3A" cx="143.4" cy="350.8" rx="1.9" ry="2.5"/>
		</g>
	</g>
	<g id="windows_17_">
		<path fill="#8AA7B2" d="M160.1,329.4c3.2,0,5.9,2.6,5.9,5.9v7h-11.7v-7C154.2,332,156.8,329.4,160.1,329.4z"/>
		<path fill="#779499" d="M160.1,330.7c2.4,0,4.3,1.9,4.3,4.3v7.3h-8.6V335C155.8,332.6,157.7,330.7,160.1,330.7z"/>
		<g>
			<ellipse fill="#AE8F3A" cx="160.1" cy="331.3" rx="1.9" ry="2.5"/>
		</g>
		<path fill="#8AA7B2" d="M160.1,349c3.2,0,5.9,2.6,5.9,5.9v9.8h-11.7v-9.8C154.2,351.6,156.8,349,160.1,349z"/>
		<path fill="#779499" d="M160.1,350.2c2.4,0,4.3,1.9,4.3,4.3v10.2h-8.6v-10.2C155.8,352.2,157.7,350.2,160.1,350.2z"/>
		<g>
			<ellipse fill="#AE8F3A" cx="160.1" cy="350.8" rx="1.9" ry="2.5"/>
		</g>
	</g>
	<g id="windows_16_">
		<path fill="#8AA7B2" d="M176.8,329.4c3.2,0,5.9,2.6,5.9,5.9v7h-11.7v-7C170.9,332,173.5,329.4,176.8,329.4z"/>
		<path fill="#779499" d="M176.8,330.7c2.4,0,4.3,1.9,4.3,4.3v7.3h-8.6V335C172.5,332.6,174.4,330.7,176.8,330.7z"/>
		<g>
			<ellipse fill="#AE8F3A" cx="176.8" cy="331.3" rx="1.9" ry="2.5"/>
		</g>
		<path fill="#8AA7B2" d="M176.8,349c3.2,0,5.9,2.6,5.9,5.9v9.8h-11.7v-9.8C170.9,351.6,173.5,349,176.8,349z"/>
		<path fill="#779499" d="M176.8,350.2c2.4,0,4.3,1.9,4.3,4.3v10.2h-8.6v-10.2C172.5,352.2,174.4,350.2,176.8,350.2z"/>
		<g>
			<ellipse fill="#AE8F3A" cx="176.8" cy="350.8" rx="1.9" ry="2.5"/>
		</g>
	</g>
</g>
<g>
	<g id="windows_15_">
		<path fill="#8AA7B2" d="M373.8,329.4c-3.2,0-5.9,2.6-5.9,5.9v7h11.7v-7C379.7,332,377.1,329.4,373.8,329.4z"/>
		<path fill="#779499" d="M373.8,330.7c-2.4,0-4.3,1.9-4.3,4.3v7.3h8.6V335C378.2,332.6,376.2,330.7,373.8,330.7z"/>
		<g>
			<ellipse fill="#AE8F3A" cx="373.8" cy="331.3" rx="1.9" ry="2.5"/>
		</g>
		<path fill="#8AA7B2" d="M373.8,349c-3.2,0-5.9,2.6-5.9,5.9v9.8h11.7v-9.8C379.7,351.6,377.1,349,373.8,349z"/>
		<path fill="#779499" d="M373.8,350.2c-2.4,0-4.3,1.9-4.3,4.3v10.2h8.6v-10.2C378.2,352.2,376.2,350.2,373.8,350.2z"/>
		<g>
			<ellipse fill="#AE8F3A" cx="373.8" cy="350.8" rx="1.9" ry="2.5"/>
		</g>
	</g>
	<g id="windows_14_">
		<path fill="#8AA7B2" d="M357.2,329.4c-3.2,0-5.9,2.6-5.9,5.9v7H363v-7C363,332,360.4,329.4,357.2,329.4z"/>
		<path fill="#779499" d="M357.2,330.7c-2.4,0-4.3,1.9-4.3,4.3v7.3h8.6V335C361.5,332.6,359.5,330.7,357.2,330.7z"/>
		<g>
			<ellipse fill="#AE8F3A" cx="357.2" cy="331.3" rx="1.9" ry="2.5"/>
		</g>
		<path fill="#8AA7B2" d="M357.2,349c-3.2,0-5.9,2.6-5.9,5.9v9.8H363v-9.8C363,351.6,360.4,349,357.2,349z"/>
		<path fill="#779499" d="M357.2,350.2c-2.4,0-4.3,1.9-4.3,4.3v10.2h8.6v-10.2C361.5,352.2,359.5,350.2,357.2,350.2z"/>
		<g>
			<ellipse fill="#AE8F3A" cx="357.2" cy="350.8" rx="1.9" ry="2.5"/>
		</g>
	</g>
	<g id="windows_13_">
		<path fill="#8AA7B2" d="M340.5,329.4c-3.2,0-5.9,2.6-5.9,5.9v7h11.7v-7C346.3,332,343.7,329.4,340.5,329.4z"/>
		<path fill="#779499" d="M340.5,330.7c-2.4,0-4.3,1.9-4.3,4.3v7.3h8.6V335C344.8,332.6,342.8,330.7,340.5,330.7z"/>
		<g>
			<ellipse fill="#AE8F3A" cx="340.5" cy="331.3" rx="1.9" ry="2.5"/>
		</g>
		<path fill="#8AA7B2" d="M340.5,349c-3.2,0-5.9,2.6-5.9,5.9v9.8h11.7v-9.8C346.3,351.6,343.7,349,340.5,349z"/>
		<path fill="#779499" d="M340.5,350.2c-2.4,0-4.3,1.9-4.3,4.3v10.2h8.6v-10.2C344.8,352.2,342.8,350.2,340.5,350.2z"/>
		<g>
			<ellipse fill="#AE8F3A" cx="340.5" cy="350.8" rx="1.9" ry="2.5"/>
		</g>
	</g>
	<g id="windows_12_">
		<path fill="#8AA7B2" d="M323.8,329.4c-3.2,0-5.9,2.6-5.9,5.9v7h11.7v-7C329.7,332,327,329.4,323.8,329.4z"/>
		<path fill="#779499" d="M323.8,330.7c-2.4,0-4.3,1.9-4.3,4.3v7.3h8.6V335C328.1,332.6,326.1,330.7,323.8,330.7z"/>
		<g>
			<ellipse fill="#AE8F3A" cx="323.8" cy="331.3" rx="1.9" ry="2.5"/>
		</g>
		<path fill="#8AA7B2" d="M323.8,349c-3.2,0-5.9,2.6-5.9,5.9v9.8h11.7v-9.8C329.7,351.6,327,349,323.8,349z"/>
		<path fill="#779499" d="M323.8,350.2c-2.4,0-4.3,1.9-4.3,4.3v10.2h8.6v-10.2C328.1,352.2,326.1,350.2,323.8,350.2z"/>
		<g>
			<ellipse fill="#AE8F3A" cx="323.8" cy="350.8" rx="1.9" ry="2.5"/>
		</g>
	</g>
</g>
<rect x="115.6" y="321.3" fill="#8C6E33" width="269.4" height="2.6"/>
<rect x="115.6" y="342.1" fill="#8C6E33" width="269.4" height="2.6"/>
<g>
	<polygon fill="#8CB2BF" points="107.3,364.7 115.6,364.7 115.6,316.4 107.3,312.6 	"/>
	<polygon fill="#7F662D" points="107.3,320.9 115.6,323.9 115.6,321.3 107.3,317.8 	"/>
	<polygon fill="#7F662D" points="107.3,341.7 115.6,344.7 115.6,342.1 107.3,338.6 	"/>
	<rect x="54.4" y="312.6" fill="#B5D6E2" width="52.9" height="52.1"/>
	<g>
		<polygon fill="#9E7A2E" points="80.9,305.3 113.8,317.8 80.9,317.8 48,317.8 		"/>
		<path fill="#AE8F3A" d="M48,317.8"/>
		<polygon fill="#B5D6E2" points="81,307.4 108.3,317.8 81,317.8 53.7,317.8 		"/>
		<g>
			<polygon fill="#AE8F3A" points="81.1,304.1 81.2,304.1 83.6,304.1 82.5,309.1 81.3,309.1 81,309.1 79.8,309.1 78.6,304.1 			"/>
		</g>
		<g>
			<g id="seashell_5_">
				<path fill="#8A6726" d="M81,314.9c0,0-2-2.5-2.5-0.9C78,315.5,81,314.9,81,314.9z"/>
				<path fill="#9E7A2E" d="M81.1,315.2c0,0-0.2-4-1.9-2.9C77.5,313.4,81.1,315.2,81.1,315.2z"/>
				<path fill="#8A6726" d="M81.3,314.9c0,0,2-2.5,2.5-0.9S81.3,314.9,81.3,314.9z"/>
				<path fill="#9E7A2E" d="M81.1,315.2c0,0,0.2-4,1.9-2.9C84.8,313.4,81.1,315.2,81.1,315.2z"/>
				<path fill="#AE8F3A" d="M81.1,315.1c0,0,2.5-4.2,0-4.2S81.1,315.1,81.1,315.1z"/>
				<path fill="#8A6726" d="M81,314.9L81,314.9c0,0,0,0,0.1,0s0.1,0,0.1,0l0,0c0.3,0,1,0.1,1,0.8c-0.6,0-0.9,0-1,0
					c-0.2,0-0.2,0-0.2,0c-0.2,0-0.5,0-1,0C80,315,80.7,314.9,81,314.9z"/>
			</g>
		</g>
	</g>
	<g id="windows_11_">
		<path fill="#9DB9BF" d="M69.1,326.6c3.2,0,5.9,2.6,5.9,5.9v7H63.2v-7C63.2,329.2,65.8,326.6,69.1,326.6z"/>
		<path fill="#9DB9BF" d="M93.2,326.6c3.2,0,5.9,2.6,5.9,5.9v7H87.4v-7C87.4,329.2,90,326.6,93.2,326.6z"/>
		<path fill="#779499" d="M93.2,327.9c2.4,0,4.3,1.9,4.3,4.3v6.8h-8.6v-6.8C88.9,329.8,90.8,327.9,93.2,327.9z"/>
		<path fill="#779499" d="M69.1,327.9c2.4,0,4.3,1.9,4.3,4.3v6.8h-8.6v-6.8C64.8,329.8,66.7,327.9,69.1,327.9z"/>
		<g>
			<ellipse fill="#AE8F3A" cx="93.2" cy="328.5" rx="1.9" ry="2.5"/>
		</g>
		<g>
			<ellipse fill="#AE8F3A" cx="69.1" cy="328.5" rx="1.9" ry="2.5"/>
		</g>
		<path fill="#9DB9BF" d="M69.1,346.2c3.2,0,5.9,2.6,5.9,5.9v12.6H63.2v-12.6C63.2,348.8,65.8,346.2,69.1,346.2z"/>
		<path fill="#9DB9BF" d="M93.2,346.2c3.2,0,5.9,2.6,5.9,5.9v12.6H87.4v-12.6C87.4,348.8,90,346.2,93.2,346.2z"/>
		<path fill="#779499" d="M93.2,347.4c2.4,0,4.3,1.9,4.3,4.3v13h-8.6v-13C88.9,349.3,90.8,347.4,93.2,347.4z"/>
		<path fill="#779499" d="M69.1,347.4c2.4,0,4.3,1.9,4.3,4.3v13h-8.6v-13C64.8,349.3,66.7,347.4,69.1,347.4z"/>
		<g>
			<ellipse fill="#AE8F3A" cx="93.2" cy="348" rx="1.9" ry="2.5"/>
		</g>
		<g>
			<ellipse fill="#AE8F3A" cx="69.1" cy="348" rx="1.9" ry="2.5"/>
		</g>
	</g>
	<g>
		<rect x="54.4" y="338.6" fill="#AE8F3A" width="52.9" height="3"/>
		<rect x="54.4" y="317.8" fill="#AE8F3A" width="52.9" height="3"/>
	</g>
</g>
<g>
	<polygon fill="#8CB2BF" points="393,364.7 384.7,364.7 384.7,316.4 393,312.6 	"/>
	<polygon fill="#7F662D" points="393,320.9 384.7,323.9 384.7,321.3 393,317.8 	"/>
	<polygon fill="#7F662D" points="393,341.7 384.7,344.7 384.7,342.1 393,338.6 	"/>
	<rect x="393" y="312.6" fill="#B5D6E2" width="52.9" height="52.1"/>
	<g>
		<polygon fill="#9E7A2E" points="419.4,305.3 386.5,317.8 419.4,317.8 452.3,317.8 		"/>
		<path fill="#AE8F3A" d="M452.3,317.8"/>
		<polygon fill="#B5D6E2" points="419.3,307.4 392,317.8 419.3,317.8 446.6,317.8 		"/>
		<g>
			<polygon fill="#AE8F3A" points="419.2,304.1 419,304.1 416.6,304.1 417.8,309.1 419,309.1 419.2,309.1 420.5,309.1 421.6,304.1 
							"/>
		</g>
		<g>
			<g id="seashell_4_">
				<path fill="#8A6726" d="M419.2,314.9c0,0,2-2.5,2.5-0.9S419.2,314.9,419.2,314.9z"/>
				<path fill="#9E7A2E" d="M419.1,315.2c0,0,0.2-4,1.9-2.9C422.7,313.4,419.1,315.2,419.1,315.2z"/>
				<path fill="#8A6726" d="M419,314.9c0,0-2-2.5-2.5-0.9C415.9,315.5,419,314.9,419,314.9z"/>
				<path fill="#9E7A2E" d="M419.1,315.2c0,0-0.2-4-1.9-2.9C415.5,313.4,419.1,315.2,419.1,315.2z"/>
				<path fill="#AE8F3A" d="M419.1,315.1c0,0-2.5-4.2,0-4.2C421.6,311,419.1,315.1,419.1,315.1z"/>
				<path fill="#8A6726" d="M419.2,314.9L419.2,314.9c0,0,0,0-0.1,0c-0.1,0-0.1,0-0.1,0l0,0c-0.3,0-1,0.1-1,0.8c0.6,0,0.9,0,1,0
					c0.2,0,0.2,0,0.2,0c0.2,0,0.5,0,1,0C420.3,315,419.6,314.9,419.2,314.9z"/>
			</g>
		</g>
	</g>
	<g id="windows_10_">
		<path fill="#9DB9BF" d="M431.2,326.6c-3.2,0-5.9,2.6-5.9,5.9v7h11.7v-7C437.1,329.2,434.4,326.6,431.2,326.6z"/>
		<path fill="#9DB9BF" d="M407,326.6c-3.2,0-5.9,2.6-5.9,5.9v7h11.7v-7C412.9,329.2,410.3,326.6,407,326.6z"/>
		<path fill="#779499" d="M407,327.9c-2.4,0-4.3,1.9-4.3,4.3v6.8h8.6v-6.8C411.4,329.8,409.4,327.9,407,327.9z"/>
		<path fill="#779499" d="M431.2,327.9c-2.4,0-4.3,1.9-4.3,4.3v6.8h8.6v-6.8C435.5,329.8,433.6,327.9,431.2,327.9z"/>
		<g>
			<ellipse fill="#AE8F3A" cx="407" cy="328.5" rx="1.9" ry="2.5"/>
		</g>
		<g>
			<ellipse fill="#AE8F3A" cx="431.2" cy="328.5" rx="1.9" ry="2.5"/>
		</g>
		<path fill="#9DB9BF" d="M431.2,346.2c-3.2,0-5.9,2.6-5.9,5.9v12.6h11.7v-12.6C437.1,348.8,434.4,346.2,431.2,346.2z"/>
		<path fill="#9DB9BF" d="M407,346.2c-3.2,0-5.9,2.6-5.9,5.9v12.6h11.7v-12.6C412.9,348.8,410.3,346.2,407,346.2z"/>
		<path fill="#779499" d="M407,347.4c-2.4,0-4.3,1.9-4.3,4.3v13h8.6v-13C411.4,349.3,409.4,347.4,407,347.4z"/>
		<path fill="#779499" d="M431.2,347.4c-2.4,0-4.3,1.9-4.3,4.3v13h8.6v-13C435.5,349.3,433.6,347.4,431.2,347.4z"/>
		<g>
			<ellipse fill="#AE8F3A" cx="407" cy="348" rx="1.9" ry="2.5"/>
		</g>
		<g>
			<ellipse fill="#AE8F3A" cx="431.2" cy="348" rx="1.9" ry="2.5"/>
		</g>
	</g>
	<g>
		<rect x="393" y="338.6" fill="#AE8F3A" width="52.9" height="3"/>
		<rect x="393" y="317.8" fill="#AE8F3A" width="52.9" height="3"/>
	</g>
</g>
<polygon fill="#D8F0FB" points="251.1,151.7 251.1,129.4 249.4,129.4 249.4,151.7 247.4,151.7 247.4,153.3 249.4,153.3 249.4,163 
	251.1,163 251.1,153.3 253.2,153.3 253.2,151.7 "/>
<ellipse fill="#AE8F3A" cx="250.3" cy="164.1" rx="1.9" ry="1.1"/>
<rect x="248.9" y="164.9" fill="#B3D4DD" width="2.8" height="11.1"/>
<path fill="#D8F0FB" d="M250.3,175c-4.5,0-3.7,8.8-3.7,8.8h3.7h3.7C254,183.9,254.8,175,250.3,175z"/>
<rect x="247" y="169.2" fill="#AE8F3A" width="6.5" height="1.2"/>
<rect x="248.1" y="170" fill="#AE8F3A" width="4.4" height="1.2"/>
<path fill="#D8F0FB" d="M250.3,191.6c-3,0-4.7,0.7-5.7,1.3v18.6H256v-18.6C255,192.2,253.2,191.6,250.3,191.6z"/>
<g>
	<path fill="#B3D4DD" d="M250.3,191.1c2.8,0,4.5,0.6,5.7,1.2V184c0-1.5-2.6-2.8-5.7-2.8c-3.2,0-5.7,1.3-5.7,2.8v8.3
		C245.7,191.7,247.5,191.1,250.3,191.1z"/>
	<path fill="#9EC3CC" d="M245.6,182.5v9.4c0.2-0.1,0.5-0.2,0.8-0.3V182C246.1,182.2,245.8,182.3,245.6,182.5z"/>
	<path fill="#9EC3CC" d="M247,181.8v9.7c0.3-0.1,0.6-0.1,0.8-0.1v-9.8C247.5,181.6,247.3,181.7,247,181.8z"/>
	<path fill="#9EC3CC" d="M248.4,181.4v9.8c0.3,0,0.6,0,0.8-0.1v-9.9C249,181.3,248.7,181.4,248.4,181.4z"/>
	<path fill="#9EC3CC" d="M250.3,181.3c-0.1,0-0.3,0-0.4,0v9.9c0.1,0,0.3,0,0.4,0c0.1,0,0.3,0,0.4,0v-9.9
		C250.6,181.3,250.4,181.3,250.3,181.3z"/>
	<path fill="#9EC3CC" d="M251.3,181.3v9.9c0.3,0,0.6,0,0.8,0.1v-9.8C251.9,181.4,251.6,181.3,251.3,181.3z"/>
	<path fill="#9EC3CC" d="M252.7,181.5v9.8c0.3,0,0.6,0.1,0.8,0.1v-9.7C253.3,181.7,253,181.6,252.7,181.5z"/>
	<path fill="#9EC3CC" d="M254.2,182v9.6c0.3,0.1,0.6,0.2,0.8,0.3v-9.4C254.8,182.3,254.5,182.2,254.2,182z"/>
</g>
<path id="band_2_" fill="#AE8F3A" d="M250.3,193.3c3,0,4.8,0.9,5.9,2c1-1.1,1.6-2,1.6-2s-0.5-5.2-7.5-5.2c-7,0-7.5,5.2-7.5,5.2
	s0.6,0.9,1.6,2C245.5,194.2,247.3,193.3,250.3,193.3z"/>
<g id="bars_4_">
	<rect x="249.6" y="194.9" fill="#9EC3CC" width="1.4" height="12.2"/>
	<rect x="246.4" y="196" fill="#9EC3CC" width="1.4" height="9.9"/>
	<rect x="252.8" y="196" fill="#9EC3CC" width="1.4" height="9.9"/>
</g>
<path fill="#D8F0FB" d="M250.1,249.2c11.5,0,19.6,4.8,23.8,7.9c-0.9-33.1-7.7-31.1-12.9-39.4c-3.8-6-5.1-8.1-5.1-8.1h-5.7h-5.7
	c0,0-1.3,2-5.1,8.1c-5.2,8.3-12,6.4-12.9,39.4C230.7,254,238.8,249.2,250.1,249.2z"/>
<path fill="#C9E5EF" d="M273.9,257.2c-0.9-33.1-7.7-31.1-12.9-39.4c-3.8-6-5.1-8.1-5.1-8.1h-4.1c0,0,1,7.3,1.7,8.9
	c2.2,5.6,2.6,7.3,1.3,31C263.8,250.6,270.3,254.5,273.9,257.2z"/>
<path fill="#C9E5EF" d="M239.5,217.7c-5.2,8.3-12,6.4-12.9,39.4c3.5-2.7,10.1-6.6,19.1-7.6c-1.3-23.7-0.9-25.3,1.3-30.9
	c0.7-1.7,1.7-8.9,1.7-8.9h-4.1C244.6,209.7,243.3,211.7,239.5,217.7z"/>
<path fill="#B3D4DD" d="M226.6,257.1c2.3-1.7,5.7-4,10.3-5.6c-2.6-26.1,3.2-29.3,5.6-33.1c2.5-3.9,3.4-8.8,3.4-8.8h-1.3
	c0,0-1.3,2-5.1,8.1C234.3,226,227.5,224.1,226.6,257.1z"/>
<path fill="#B3D4DD" d="M273.9,257.2c-0.9-33.1-7.7-31.1-12.9-39.4c-3.8-6-5.1-8.1-5.1-8.1h-1.3c0,0,0.9,4.9,3.4,8.8
	c2.4,3.8,8.2,7,5.5,33.2C268.2,253.2,271.7,255.5,273.9,257.2z"/>
<path fill="#D8F0FB" d="M226.6,257.1c0.6-0.5,1.3-1,2.1-1.5c-1-19.5,2.4-26.9,3-28C229.2,232.2,227.1,239.9,226.6,257.1z"/>
<path fill="#D8F0FB" d="M271.8,255.7c0.8,0.5,1.5,1,2.1,1.5c-0.5-17.3-2.5-25-5.1-29.6C269.4,228.7,272.8,236,271.8,255.7z"/>
<path fill="#B3D4DD" d="M250.1,249.7c-11.5,0-19.5,4.9-23.5,8c-0.1,2.2-0.1,4.6-0.1,7.2h23.8h23.8c0-2.5,0-4.9-0.1-7.1
	C269.9,254.6,261.7,249.7,250.1,249.7z"/>
<path id="band_1_" fill="#7F662D" d="M250.3,252.3L250.3,252.3c0,0,0.1,0,0.1,0c0,0,0.1,0,0.1,0l0,0c11.9,0.1,19.7,4.5,23.5,7.6
	c1.8-1.3,2.8-2.1,2.8-2.1s-8.5-10.3-26.6-10.4l0,0c0,0-0.1,0-0.1,0c0,0-0.1,0-0.1,0l0,0c-18.1,0.1-26.6,10.4-26.6,10.4
	s1.1,0.9,3,2.3C230.5,257,238.2,252.3,250.3,252.3z"/>
<g id="oval_windows_1_">
	<g>
		<ellipse fill="#AE8F3A" cx="232.9" cy="237" rx="2.5" ry="4.6"/>
		<ellipse fill="#AED8E5" cx="232.9" cy="237" rx="1" ry="2.8"/>
	</g>
	<g>
		<ellipse fill="#AE8F3A" cx="240.9" cy="234.3" rx="2.5" ry="4.6"/>
		<ellipse fill="#AED8E5" cx="240.9" cy="234.3" rx="1" ry="2.8"/>
	</g>
	<g>
		<ellipse fill="#AE8F3A" cx="250.3" cy="232.6" rx="2.5" ry="4.6"/>
		<ellipse fill="#AED8E5" cx="250.3" cy="232.6" rx="1" ry="2.8"/>
	</g>
	<g>
		<ellipse fill="#AE8F3A" cx="259.8" cy="234.3" rx="2.5" ry="4.6"/>
		<ellipse fill="#AED8E5" cx="259.8" cy="234.3" rx="1" ry="2.8"/>
	</g>
	<g>
		<ellipse fill="#AE8F3A" cx="267.8" cy="237" rx="2.5" ry="4.6"/>
		<ellipse fill="#AED8E5" cx="267.8" cy="237" rx="1" ry="2.8"/>
	</g>
</g>
<path fill="#AE8F3A" d="M257.6,210.7c0,0-4.4-0.9-7.3-0.9s-7.3,0.9-7.3,0.9v-1.9c0,0,3.8-0.9,7.3-0.9c3.5,0,7.3,0.9,7.3,0.9V210.7z"
	/>
<path id="base_2_" fill="#C9E5EF" d="M250.3,261.3c-17.4,0-31.6,6.7-31.6,15v17.4h63.1v-17.4C281.8,268,267.7,261.3,250.3,261.3z"/>
<g id="bars_1_">
	<rect x="222.2" y="270.2" fill="#AE8F3A" width="2.9" height="11.5"/>
	<rect x="232.4" y="265.8" fill="#AE8F3A" width="2.9" height="15"/>
	<rect x="243" y="264.8" fill="#AE8F3A" width="2.9" height="11.9"/>
	<rect x="275.5" y="270.2" fill="#AE8F3A" width="2.9" height="11.5"/>
	<rect x="265.2" y="265.8" fill="#AE8F3A" width="2.9" height="15"/>
	<rect x="254.7" y="264.8" fill="#AE8F3A" width="2.9" height="11.9"/>
</g>
<g id="accents_2_">
	<rect x="217.8" y="262.9" fill="#D8F0FB" width="1.3" height="6.3"/>
	<rect x="281.5" y="262.9" fill="#D8F0FB" width="1.3" height="6.3"/>
</g>
<path fill="#D8F0FB" d="M218.3,278.3c3.3-6.9,16.4-12.2,32-12.2c15.6,0,28.5,5.1,31.9,12c0.1-0.1,0.1-0.3,0.2-0.4
	c1-1.3,3.3-4.7,3.3-10.1h-6.1c-5-4.8-15.1-8.2-26.9-8.6c-0.1,0-0.2,0-0.2,0c-0.3,0-0.6,0-0.9,0c-0.3,0-0.7,0-1,0c-0.1,0-0.2,0-0.2,0
	c0,0,0,0-0.1,0c0,0,0,0-0.1,0c-0.1,0-0.2,0-0.2,0c-0.3,0-0.7,0-1,0c-0.3,0-0.6,0-0.9,0c-0.1,0-0.2,0-0.2,0
	c-11.8,0.4-21.9,3.8-26.9,8.6h-6.1c0,5.5,2.3,8.9,3.3,10.1C218.2,277.9,218.3,278.1,218.3,278.3z"/>
<path fill="#AE8F3A" d="M220.9,270.6c5-4.8,15.1-8.2,26.9-8.6c0.1,0,0.2,0,0.2,0c0.3,0,0.6,0,0.9,0c0.3,0,0.7,0,1,0
	c0.1,0,0.2,0,0.2,0c0,0,0,0,0.1,0c0,0,0,0,0.1,0c0.1,0,0.2,0,0.2,0c0.3,0,0.7,0,1,0c0.3,0,0.6,0,0.9,0c0.1,0,0.2,0,0.2,0
	c11.8,0.4,21.9,3.8,26.9,8.6h5.9c0.1-0.9,0.2-1.9,0.2-3h-6.1c-5-4.8-15.1-8.2-26.9-8.6c-0.1,0-0.2,0-0.2,0c-0.3,0-0.6,0-0.9,0
	c-0.3,0-0.7,0-1,0c-0.1,0-0.2,0-0.2,0c0,0,0,0-0.1,0c0,0,0,0-0.1,0c-0.1,0-0.2,0-0.2,0c-0.3,0-0.7,0-1,0c-0.3,0-0.6,0-0.9,0
	c-0.1,0-0.2,0-0.2,0c-11.8,0.4-21.9,3.8-26.9,8.6h-6.1c0,1,0.1,2,0.2,3H220.9z"/>
<g>
	<rect x="242.7" y="262.9" fill="#9EC3CC" width="15.1" height="3.7"/>
	<rect x="240.2" y="256" fill="#D8F0FB" width="20.2" height="4.1"/>
	<rect x="241.5" y="260" fill="#B3D4DD" width="17.6" height="2.9"/>
</g>
<rect id="back_3_" x="179.4" y="284.7" fill="#AED8E5" width="141.7" height="83.7"/>
<rect id="front_2_" x="214.7" y="281.7" fill="#D8F0FB" width="71.1" height="86.7"/>
<g id="right_1_">
	<g>
		<path fill="#93BAC1" d="M308.8,295c-3.2,0-5.9,2.6-5.9,5.9v6.2h11.7v-6.2C314.7,297.6,312,295,308.8,295z"/>
		<path fill="#93BAC1" d="M293,295c-3.2,0-5.9,2.6-5.9,5.9v6.2h11.7v-6.2C298.8,297.6,296.2,295,293,295z"/>
		<path fill="#779499" d="M293,296.3c-2.4,0-4.3,1.9-4.3,4.3v6h8.6v-6C297.3,298.2,295.3,296.3,293,296.3z"/>
		<path fill="#779499" d="M308.8,296.3c-2.4,0-4.3,1.9-4.3,4.3v6h8.6v-6C313.1,298.2,311.1,296.3,308.8,296.3z"/>
		<g>
			<ellipse fill="#AE8F3A" cx="293" cy="296.9" rx="1.9" ry="2.5"/>
		</g>
		<g>
			<ellipse fill="#AE8F3A" cx="308.8" cy="296.9" rx="1.9" ry="2.5"/>
		</g>
	</g>
	<g>
		<path fill="#93BAC1" d="M308.8,314.6c-3.2,0-5.9,2.6-5.9,5.9v17.3h11.7v-17.3C314.7,317.2,312,314.6,308.8,314.6z"/>
		<path fill="#93BAC1" d="M293,314.6c-3.2,0-5.9,2.6-5.9,5.9v17.3h11.7v-17.3C298.8,317.2,296.2,314.6,293,314.6z"/>
		<path fill="#779499" d="M293,315.8c-2.4,0-4.3,1.9-4.3,4.3v16.7h8.6v-16.7C297.3,317.7,295.3,315.8,293,315.8z"/>
		<path fill="#779499" d="M308.8,315.8c-2.4,0-4.3,1.9-4.3,4.3v16.7h8.6v-16.7C313.1,317.7,311.1,315.8,308.8,315.8z"/>
		<g>
			<ellipse fill="#AE8F3A" cx="293" cy="316.4" rx="1.9" ry="2.5"/>
		</g>
		<g>
			<ellipse fill="#AE8F3A" cx="308.8" cy="316.4" rx="1.9" ry="2.5"/>
		</g>
	</g>
	<g>
		<path fill="#93BAC1" d="M308.8,346.2c-3.2,0-5.9,2.6-5.9,5.9v16.4h11.7V352C314.7,348.8,312,346.2,308.8,346.2z"/>
		<path fill="#93BAC1" d="M293,346.2c-3.2,0-5.9,2.6-5.9,5.9v16.4h11.7V352C298.8,348.8,296.2,346.2,293,346.2z"/>
		<path fill="#779499" d="M293,347.4c-2.4,0-4.3,1.9-4.3,4.3v16.7h8.6v-16.7C297.3,349.3,295.3,347.4,293,347.4z"/>
		<path fill="#779499" d="M308.8,347.4c-2.4,0-4.3,1.9-4.3,4.3v16.7h8.6v-16.7C313.1,349.3,311.1,347.4,308.8,347.4z"/>
		<g>
			<ellipse fill="#AE8F3A" cx="293" cy="348" rx="1.9" ry="2.5"/>
		</g>
		<g>
			<ellipse fill="#AE8F3A" cx="308.8" cy="348" rx="1.9" ry="2.5"/>
		</g>
	</g>
</g>
<g id="center_1_">
	<g>
		<path fill="#ACDAE5" d="M229.4,293c-3.2,0-5.9,2.6-5.9,5.9v6.2h11.7v-6.2C235.3,295.6,232.7,293,229.4,293z"/>
		<path fill="#ACDAE5" d="M250.3,293c-3.2,0-5.9,2.6-5.9,5.9v6.2h11.7v-6.2C256.1,295.6,253.5,293,250.3,293z"/>
		<path fill="#ACDAE5" d="M271.1,293c-3.2,0-5.9,2.6-5.9,5.9v6.2H277v-6.2C277,295.6,274.4,293,271.1,293z"/>
		<path fill="#779499" d="M229.4,294.4c-2.4,0-4.3,1.9-4.3,4.3v5.5h8.6v-5.5C233.8,296.4,231.8,294.4,229.4,294.4z"/>
		<path fill="#779499" d="M250.3,294.4c-2.4,0-4.3,1.9-4.3,4.3v5.5h8.6v-5.5C254.6,296.4,252.7,294.4,250.3,294.4z"/>
		<path fill="#779499" d="M271.1,294.4c-2.4,0-4.3,1.9-4.3,4.3v5.5h8.6v-5.5C275.5,296.4,273.5,294.4,271.1,294.4z"/>
		<g>
			<ellipse fill="#AE8F3A" cx="229.4" cy="295" rx="1.9" ry="2.5"/>
		</g>
		<g>
			<ellipse fill="#AE8F3A" cx="250.3" cy="295" rx="1.9" ry="2.5"/>
		</g>
		<g>
			<ellipse fill="#AE8F3A" cx="271.1" cy="295" rx="1.9" ry="2.5"/>
		</g>
	</g>
	<g>
		<path fill="#ACDAE5" d="M229.4,311.8c-3.2,0-5.9,2.6-5.9,5.9v18h11.7v-18C235.3,314.4,232.7,311.8,229.4,311.8z"/>
		<path fill="#ACDAE5" d="M250.3,311.8c-3.2,0-5.9,2.6-5.9,5.9v18h11.7v-18C256.1,314.4,253.5,311.8,250.3,311.8z"/>
		<path fill="#ACDAE5" d="M271.1,311.8c-3.2,0-5.9,2.6-5.9,5.9v18H277v-18C277,314.4,274.4,311.8,271.1,311.8z"/>
		<path fill="#779499" d="M229.4,313.3c-2.4,0-4.3,1.9-4.3,4.3v16.8h8.6v-16.8C233.8,315.2,231.8,313.3,229.4,313.3z"/>
		<path fill="#779499" d="M250.3,313.3c-2.4,0-4.3,1.9-4.3,4.3v16.8h8.6v-16.8C254.6,315.2,252.7,313.3,250.3,313.3z"/>
		<path fill="#779499" d="M271.1,313.3c-2.4,0-4.3,1.9-4.3,4.3v16.8h8.6v-16.8C275.5,315.2,273.5,313.3,271.1,313.3z"/>
		<g>
			<ellipse fill="#AE8F3A" cx="229.4" cy="313.9" rx="1.9" ry="2.5"/>
		</g>
		<g>
			<ellipse fill="#AE8F3A" cx="250.3" cy="313.9" rx="1.9" ry="2.5"/>
		</g>
		<g>
			<ellipse fill="#AE8F3A" cx="271.1" cy="313.9" rx="1.9" ry="2.5"/>
		</g>
	</g>
	<g>
		<path fill="#ACDAE5" d="M229.4,345.8c-3.2,0-5.9,2.6-5.9,5.9v16.7h11.7v-16.7C235.3,348.5,232.7,345.8,229.4,345.8z"/>
		<path fill="#ACDAE5" d="M250.3,345.8c-3.2,0-5.9,2.6-5.9,5.9v16.7h11.7v-16.7C256.1,348.5,253.5,345.8,250.3,345.8z"/>
		<path fill="#ACDAE5" d="M271.1,345.8c-3.2,0-5.9,2.6-5.9,5.9v16.7H277v-16.7C277,348.5,274.4,345.8,271.1,345.8z"/>
		<path fill="#779499" d="M229.4,347.3c-2.4,0-4.3,1.9-4.3,4.3v16.8h8.6v-16.8C233.8,349.2,231.8,347.3,229.4,347.3z"/>
		<path fill="#779499" d="M250.3,347.3c-2.4,0-4.3,1.9-4.3,4.3v16.8h8.6v-16.8C254.6,349.2,252.7,347.3,250.3,347.3z"/>
		<path fill="#779499" d="M271.1,347.3c-2.4,0-4.3,1.9-4.3,4.3v16.8h8.6v-16.8C275.5,349.2,273.5,347.3,271.1,347.3z"/>
		<g>
			<ellipse fill="#AE8F3A" cx="229.4" cy="347.9" rx="1.9" ry="2.5"/>
		</g>
		<g>
			<ellipse fill="#AE8F3A" cx="250.3" cy="347.9" rx="1.9" ry="2.5"/>
		</g>
		<g>
			<ellipse fill="#AE8F3A" cx="271.1" cy="347.9" rx="1.9" ry="2.5"/>
		</g>
	</g>
</g>
<g id="left_2_">
	<g>
		<path fill="#93BAC1" d="M191.8,295c3.2,0,5.9,2.6,5.9,5.9v6.2h-11.7v-6.2C185.9,297.6,188.5,295,191.8,295z"/>
		<path fill="#93BAC1" d="M207.6,295c3.2,0,5.9,2.6,5.9,5.9v6.2h-11.7v-6.2C201.7,297.6,204.4,295,207.6,295z"/>
		<path fill="#779499" d="M207.6,296.3c2.4,0,4.3,1.9,4.3,4.3v6h-8.6v-6C203.3,298.2,205.2,296.3,207.6,296.3z"/>
		<path fill="#779499" d="M191.8,296.3c2.4,0,4.3,1.9,4.3,4.3v6h-8.6v-6C187.5,298.2,189.4,296.3,191.8,296.3z"/>
		<g>
			<ellipse fill="#AE8F3A" cx="207.6" cy="296.9" rx="1.9" ry="2.5"/>
		</g>
		<g>
			<ellipse fill="#AE8F3A" cx="191.8" cy="296.9" rx="1.9" ry="2.5"/>
		</g>
	</g>
	<g>
		<path fill="#93BAC1" d="M191.8,314.6c3.2,0,5.9,2.6,5.9,5.9v17.3h-11.7v-17.3C185.9,317.2,188.5,314.6,191.8,314.6z"/>
		<path fill="#93BAC1" d="M207.6,314.6c3.2,0,5.9,2.6,5.9,5.9v17.3h-11.7v-17.3C201.7,317.2,204.4,314.6,207.6,314.6z"/>
		<path fill="#779499" d="M207.6,315.8c2.4,0,4.3,1.9,4.3,4.3v16.7h-8.6v-16.7C203.3,317.7,205.2,315.8,207.6,315.8z"/>
		<path fill="#779499" d="M191.8,315.8c2.4,0,4.3,1.9,4.3,4.3v16.7h-8.6v-16.7C187.5,317.7,189.4,315.8,191.8,315.8z"/>
		<g>
			<ellipse fill="#AE8F3A" cx="207.6" cy="316.4" rx="1.9" ry="2.5"/>
		</g>
		<g>
			<ellipse fill="#AE8F3A" cx="191.8" cy="316.4" rx="1.9" ry="2.5"/>
		</g>
	</g>
	<g>
		<path fill="#93BAC1" d="M191.8,346.2c3.2,0,5.9,2.6,5.9,5.9v16.4h-11.7V352C185.9,348.8,188.5,346.2,191.8,346.2z"/>
		<path fill="#93BAC1" d="M207.6,346.2c3.2,0,5.9,2.6,5.9,5.9v16.4h-11.7V352C201.7,348.8,204.4,346.2,207.6,346.2z"/>
		<path fill="#779499" d="M207.6,347.4c2.4,0,4.3,1.9,4.3,4.3v16.7h-8.6v-16.7C203.3,349.3,205.2,347.4,207.6,347.4z"/>
		<path fill="#779499" d="M191.8,347.4c2.4,0,4.3,1.9,4.3,4.3v16.7h-8.6v-16.7C187.5,349.3,189.4,347.4,191.8,347.4z"/>
		<g>
			<ellipse fill="#AE8F3A" cx="207.6" cy="348" rx="1.9" ry="2.5"/>
		</g>
		<g>
			<ellipse fill="#AE8F3A" cx="191.8" cy="348" rx="1.9" ry="2.5"/>
		</g>
	</g>
</g>
<g id="back_accents_1_">
	<g>
		<polygon fill="#7F662D" points="285.9,292 285.9,292 321.1,292 321.1,294.4 326.4,289.6 285.9,289.6 		"/>
		<polygon fill="#7F662D" points="285.9,309 285.9,309 321.1,309 321.1,311.4 326.4,306.6 285.9,306.6 		"/>
		<polygon fill="#7F662D" points="285.9,339.2 285.9,339.2 321.1,339.2 321.1,341.7 326.4,336.8 285.9,336.8 		"/>
	</g>
	<g>
		<polygon fill="#7F662D" points="214.7,292 214.7,292 179.4,292 179.4,294.4 174.2,289.6 214.7,289.6 		"/>
		<polygon fill="#7F662D" points="214.7,309 214.7,309 179.4,309 179.4,311.4 174.2,306.6 214.7,306.6 		"/>
		<polygon fill="#7F662D" points="214.7,339.2 214.7,339.2 179.4,339.2 179.4,341.7 174.2,336.8 214.7,336.8 		"/>
	</g>
</g>
<g id="front_accents_1_">
	<polygon fill="#AE8F3A" points="290.8,304.2 250.3,304.2 250.3,304.2 209.8,304.2 214.6,309 214.6,306.6 250.3,306.6 250.3,306.6 
		286,306.6 286,309 	"/>
	<polygon fill="#AE8F3A" points="290.8,334.4 250.3,334.4 250.3,334.4 209.8,334.4 214.6,339.2 214.6,336.8 250.3,336.8 
		250.3,336.8 286,336.8 286,339.2 	"/>
	<g id="lines_4_">
		<line fill="none" x1="214.8" y1="290.9" x2="285.9" y2="290.9"/>
		<line fill="none" x1="214.9" y1="307.8" x2="286" y2="307.8"/>
		<line fill="none" x1="214.9" y1="338.1" x2="286" y2="338.1"/>
	</g>
</g>
<g id="roof_1_">
	<polygon fill="#9E7A2E" points="250.3,273.3 207.6,289.6 250.3,289.6 293,289.6 	"/>
	<polygon fill="#D8F0FB" points="250.1,276 214.7,290.2 250.1,290.2 285.6,290.2 	"/>
</g>
<g id="seashell_3_">
	<path fill="#8A6726" d="M250.5,286.5c0,0,3.4-4.3,4.4-1.6C255.8,287.5,250.5,286.5,250.5,286.5z"/>
	<path fill="#9E7A2E" d="M250.3,287c0,0,0.3-6.9,3.3-5C256.5,284,250.3,287,250.3,287z"/>
	<path fill="#8A6726" d="M250.1,286.5c0,0-3.4-4.3-4.4-1.6C244.7,287.5,250.1,286.5,250.1,286.5z"/>
	<path fill="#9E7A2E" d="M250.3,287c0,0-0.3-6.9-3.3-5C244,284,250.3,287,250.3,287z"/>
	<path fill="#AE8F3A" d="M250.3,286.9c0,0-4.3-7.2,0-7.2C254.7,279.8,250.3,286.9,250.3,286.9z"/>
	<path fill="#8A6726" d="M250.5,286.5L250.5,286.5c0,0-0.1,0-0.2,0s-0.2,0-0.2,0l0,0c-0.6,0-1.8,0.2-1.8,1.3c1,0,1.5,0,1.8,0
		c0.3,0,0.3,0,0.3,0c0.3,0,0.8,0,1.8,0C252.3,286.7,251.1,286.5,250.5,286.5z"/>
</g>
<g id="accents_1_">
	<g>
		<polygon fill="#AE8F3A" points="182,278.3 181.1,278.3 181.1,279.8 179,279.8 179,282.2 181.1,282.2 181.1,284.6 182,284.6 
			182,282.2 184.1,282.2 184.1,279.8 182,279.8 		"/>
		<polygon fill="#AE8F3A" points="321.5,279.8 319.4,279.8 319.4,278.3 318.6,278.3 318.6,279.8 316.5,279.8 316.5,282.2 
			318.6,282.2 318.6,284.6 319.4,284.6 319.4,282.2 321.5,282.2 		"/>
	</g>
	<polygon fill="#AE8F3A" points="250.4,271.6 250.2,271.6 247,271.6 248.5,278 250.1,278 250.5,278 252,278 253.5,271.6 	"/>
</g>
<g id="lines_1_">
	<g>
		<line fill="none" x1="285.9" y1="293.3" x2="321.6" y2="293.3"/>
		<line fill="none" x1="285.9" y1="310.2" x2="321.6" y2="310.2"/>
		<line fill="none" x1="285.9" y1="340.5" x2="321.6" y2="340.5"/>
	</g>
	<g>
		<line fill="none" x1="214.7" y1="293.3" x2="179" y2="293.3"/>
		<line fill="none" x1="214.7" y1="310.2" x2="179" y2="310.2"/>
		<line fill="none" x1="214.7" y1="340.5" x2="179" y2="340.5"/>
	</g>
</g>
</svg>
