<?xml version="1.0" encoding="utf-8"?>
<!-- Generator: Adobe Illustrator 18.0.0, SVG Export Plug-In . SVG Version: 6.00 Build 0)  -->
<!DOCTYPE svg PUBLIC "-//W3C//DTD SVG 1.1//EN" "http://www.w3.org/Graphics/SVG/1.1/DTD/svg11.dtd">
<svg version="1.1" id="Layer_1" xmlns="http://www.w3.org/2000/svg" xmlns:xlink="http://www.w3.org/1999/xlink" x="0px" y="0px"
	 viewBox="0 0 23.5 17.8" enable-background="new 0 0 23.5 17.8" xml:space="preserve">
<path fill="#FFDB6F" d="M18.9,0H4.6L0,6.5l11.8,11.4L23.5,6.5L18.9,0z M8.8,5.9l2.9-4.6l2.9,4.6H8.8z M14.9,6.9l-3.1,9l-3.1-9H14.9z
	 M12.6,0.9h5.3l-2.4,4.6L12.6,0.9z M8,5.5L5.6,0.9h5.3L8,5.5z M7.2,5.9H1.5l3.3-4.6L7.2,5.9z M7.7,6.9l3,8.7l-9-8.7H7.7z M15.8,6.9
	h6l-9,8.7L15.8,6.9z M16.3,5.9l2.5-4.6L22,5.9H16.3z"/>
</svg>
