<?xml version="1.0" encoding="utf-8"?>
<!-- Generator: Adobe Illustrator 18.0.0, SVG Export Plug-In . SVG Version: 6.00 Build 0)  -->
<!DOCTYPE svg PUBLIC "-//W3C//DTD SVG 1.1//EN" "http://www.w3.org/Graphics/SVG/1.1/DTD/svg11.dtd">
<svg version="1.1" id="Layer_1" xmlns="http://www.w3.org/2000/svg" xmlns:xlink="http://www.w3.org/1999/xlink" x="0px" y="0px"
	 viewBox="0 0 1132.6 535.1" enable-background="new 0 0 1132.6 535.1" xml:space="preserve">
<rect x="0" y="0" opacity="0.8" fill="#D8F0FB" width="1132.6" height="525.5"/>
<g>
	<defs>
		<rect id="SVGID_1_" x="0" y="0" width="1132.6" height="525.5"/>
	</defs>
	<clipPath id="SVGID_2_">
		<use xlink:href="#SVGID_1_"  overflow="visible"/>
	</clipPath>
	<polygon opacity="0.5" clip-path="url(#SVGID_2_)" fill="#FFFFFF" points="177.1,585.5 127.4,601.5 -78.9,100.5 -29.2,84.5 	"/>
	<polygon opacity="0.5" clip-path="url(#SVGID_2_)" fill="#FFFFFF" points="314.6,612.6 229.9,639.9 -42.4,-21.6 42.3,-48.8 	"/>
	<polygon opacity="0.5" clip-path="url(#SVGID_2_)" fill="#FFFFFF" points="1232.9,397.2 1183.2,413.2 977,-87.8 1026.7,-103.8 	"/>
	<polygon opacity="0.5" clip-path="url(#SVGID_2_)" fill="#FFFFFF" points="1191,524 1165.9,532.1 929.5,-41.9 954.6,-50 	"/>
</g>
<g>
	<polygon fill="#D1EDF8" points="43.1,58 39.1,51 43.1,44.1 51.2,44.1 55.2,51 51.2,58 	"/>
	<polygon fill="#A6DEF2" points="43.1,44.1 38.2,35.6 56.1,35.6 51.2,44.1 	"/>
	<polygon fill="#70CEEB" points="51.2,44.1 56.1,35.6 65,51 55.2,51 	"/>
	<polygon fill="#20B3CB" points="51.2,58 55.2,51 65,51 56.1,66.5 	"/>
	<polygon fill="#1D9EBC" points="51.2,58.1 56.1,66.6 38.2,66.6 43.1,58.1 	"/>
	<polygon fill="#20B3CB" points="43.1,58.1 38.2,66.6 29.3,51.1 39.1,51.1 	"/>
	<polygon fill="#49C5D9" points="43.1,44.1 39.1,51.1 29.3,51.1 38.2,35.6 	"/>
</g>
<g>
	<polygon fill="#D1EDF8" points="1089.4,58 1093.5,51 1089.4,44.1 1081.4,44.1 1077.3,51 1081.4,58 	"/>
	<polygon fill="#A6DEF2" points="1089.4,44.1 1094.3,35.6 1076.5,35.6 1081.4,44.1 	"/>
	<polygon fill="#70CEEB" points="1081.4,44.1 1076.5,35.6 1067.5,51 1077.3,51 	"/>
	<polygon fill="#20B3CB" points="1081.4,58 1077.3,51 1067.5,51 1076.5,66.5 	"/>
	<polygon fill="#1D9EBC" points="1081.4,58.1 1076.5,66.6 1094.3,66.6 1089.4,58.1 	"/>
	<polygon fill="#20B3CB" points="1089.4,58.1 1094.3,66.6 1103.3,51.1 1093.5,51.1 	"/>
	<polygon fill="#49C5D9" points="1089.4,44.1 1093.5,51.1 1103.3,51.1 1094.3,35.6 	"/>
</g>
<g>
	<polygon fill="#D1EDF8" points="43.1,482.4 39.1,475.4 43.1,468.5 51.2,468.5 55.2,475.4 51.2,482.4 	"/>
	<polygon fill="#A6DEF2" points="43.1,468.5 38.2,460 56.1,460 51.2,468.5 	"/>
	<polygon fill="#70CEEB" points="51.2,468.5 56.1,460 65,475.4 55.2,475.4 	"/>
	<polygon fill="#20B3CB" points="51.2,482.4 55.2,475.4 65,475.4 56.1,490.9 	"/>
	<polygon fill="#1D9EBC" points="51.2,482.5 56.1,491 38.2,491 43.1,482.5 	"/>
	<polygon fill="#20B3CB" points="43.1,482.5 38.2,491 29.3,475.5 39.1,475.5 	"/>
	<polygon fill="#49C5D9" points="43.1,468.5 39.1,475.5 29.3,475.5 38.2,460 	"/>
</g>
<g>
	<polygon fill="#D1EDF8" points="1089.4,482.4 1093.5,475.4 1089.4,468.5 1081.4,468.5 1077.3,475.4 1081.4,482.4 	"/>
	<polygon fill="#A6DEF2" points="1089.4,468.5 1094.3,460 1076.5,460 1081.4,468.5 	"/>
	<polygon fill="#70CEEB" points="1081.4,468.5 1076.5,460 1067.5,475.4 1077.3,475.4 	"/>
	<polygon fill="#20B3CB" points="1081.4,482.4 1077.3,475.4 1067.5,475.4 1076.5,490.9 	"/>
	<polygon fill="#1D9EBC" points="1081.4,482.5 1076.5,491 1094.3,491 1089.4,482.5 	"/>
	<polygon fill="#20B3CB" points="1089.4,482.5 1094.3,491 1103.3,475.5 1093.5,475.5 	"/>
	<polygon fill="#49C5D9" points="1089.4,468.5 1093.5,475.5 1103.3,475.5 1094.3,460 	"/>
</g>
<rect x="0" y="525.5" opacity="0.3" fill="#D8F0FB" width="1132.6" height="9.6"/>
</svg>
