<?xml version="1.0" encoding="utf-8"?>
<!-- Generator: Adobe Illustrator 18.0.0, SVG Export Plug-In . SVG Version: 6.00 Build 0)  -->
<!DOCTYPE svg PUBLIC "-//W3C//DTD SVG 1.1//EN" "http://www.w3.org/Graphics/SVG/1.1/DTD/svg11.dtd">
<svg version="1.1" id="Layer_1" xmlns="http://www.w3.org/2000/svg" xmlns:xlink="http://www.w3.org/1999/xlink" x="0px" y="0px"
	 viewBox="0 100 1440 700" enable-background="new 0 100 1440 700" xml:space="preserve">
<g>
	<path fill="#0D6985" d="M994.7,772.5c-3.2,0-6.4,0-9.7,0c-6.5-0.6-12.8-2.1-19.3-3.3c-2.6-1.1-5.5-1.5-8.2-2.2
		c-7.5-2.4-15.1-4-22.7-6.1c-3.3-0.9-6.6-0.1-9.9-0.1c-8.6-0.1-17.2-0.1-25.8-0.1c-14.5-0.1-28.8,1.5-43.2,3.5
		c-6.1,0.8-12.5,1.9-18.9,0.4c-1.2-0.3-2.6-0.3-3.6-1.2c-3.2-2.8-7-2.6-10.8-2.7c-12.2-0.1-24.4,0.3-36.5,0.1
		c-11.9-0.1-23.9,0.2-35.8-0.2c-4.6,0.5-9.3-0.3-14,0.2c-3.7,0.4-7.3-0.2-11-0.3c-6.6-0.2-13.3-0.1-19.9,0.6
		c-3.7,0.3-7.3-0.2-11-0.4c-6.1-0.3-12.1,0.5-18.2,0.1c-3.6-0.2-7.3,0-10.9,0c-7.3,0-14.6,0.5-21.9-0.3c-2.4-0.3-4.8,0.5-7.2,0.5
		c-9.2,0.1-18.3-0.4-27.5-0.3c-8.4,0.1-16.9,0.7-25.3,0c-6.1-0.5-12.3-0.5-18.4,0.3c-1.9,0.3-3.9,0-5.9-0.1
		c-5.7-0.4-11.4,0.1-17.1,0.1c-0.4,0-0.8-0.1-1.1-0.2c-4.8-1-9.6,0.3-14.4,0.2c-7.3-0.1-14.6-0.9-22-0.6c-1.4,0.1-2.8-0.1-4.1,0.3
		c-0.3,0.1-0.8,0.2-1.1,0.3c-7.5,0.4-14.9-0.7-22.4-0.5c-4.2,0.1-8.5,0.6-12.6,0.4c-6.3-0.3-12.6-0.6-18.9-0.4
		c-7.7,0.2-15.3,0.8-23,0.4c-11.3-0.6-22.7-0.7-34.1-0.3c-11.5,0.4-22.9-0.9-34.3,0.1c-5.8,0.5-11.6,0.2-17.4-0.2
		c-2-0.1-3.9,0.6-5.8,0.5c-8.4-0.1-16.8-1.2-25.1-0.5c-13.5,1.1-27-0.5-40.5,0.3c-6.6,0.4-13.5-0.2-20.1-0.1
		c-5.8,0.1-11.6-0.3-17.5,0c-4.8,0.3-9.6-0.1-14.4-0.2c-8.7-0.1-17.4,0.2-26,0.2c-6.3,0-12.6,0.6-18.8,0c-0.4,0.1-0.8,0.2-1.2,0.2
		c-5.7-0.6-11.5-0.2-17.1-0.2c-4.8,0-9.6,0.3-14.4,0c-8.6-0.4-17.2-0.1-25.8-0.1c-6.7-0.1-13.5,0.5-20.2,0.1
		c-8.4-0.6-17-0.3-25.5,0.1c-6.1,0.3-12.4,0.3-18.5,0c-4.1-0.3-8.2-0.3-12.4-0.1c-0.3,0.1-0.7,0.2-1.1,0.3
		c-6.6-0.3-13.2-0.7-19.8-0.1c-0.3,0-0.7-0.1-1-0.1c-2.1-0.6-4.1,0.3-6.1,0.3c-1.9,0-3.9,0-5.4-1.5c0-1.2,0-2.3,0-3.5
		c5-1,10-0.4,15.1-0.6c14.9-0.4,29.9,0.1,44.8-0.1c17-0.1,34.1,0.1,51,0c13.9-0.1,27.8,0.1,41.7,0c10.4-0.1,20.7,0.2,31,0.1
		c9.3-0.1,18.6,0,27.9-0.1c9.7-0.1,19.5-0.2,29.3,0c13.2,0.3,26.5,0.1,39.6-0.1c7.8-0.1,15.5,0.5,23.3,0.2c6.4-0.2,12.6,0,18.9,0
		c11.8,0,23.6-0.3,35.4-0.1c4.9,0.1,10.1,1.2,15-0.9c3.6-0.3,7.1-0.3,10.7,0c2.3,1.3,4.9,1,7.4,1c15.4-0.1,30.7,0.1,46.1-0.1
		c12.8-0.1,25.7,0.2,38.5-0.1c10.2-0.3,20.4,0.3,30.7,0.1c13.3-0.3,26.7,0.4,39.9-0.1c4.9-0.1,9.9-0.5,14.6-0.2
		c12.8,0.7,25.5-0.1,38.3,0.1c20,0.3,40,0,60,0.1c13.7,0,27.4-0.1,41,0.1c9.7,0.2,19.5-0.3,29.3-0.1c10.4,0.2,20.9-0.1,31.3,0.1
		c7.1,0.2,14.2,0.2,21.3-0.3c3.5-0.2,6.8,0.5,10.8,0.3c-2.3-1.9-4.5-2.8-7-2.7c-6.3,0.3-12.6,0.2-18.9,0.4c-3.9,0.1-5.5-1.4-6.6-5.2
		c0.7-4.7,0.6-4.4-4.2-5c-6.1-0.7-12.2-0.5-18.2-0.6c-2.2-0.1-4.4-0.3-6.4-1.5c-1.5-0.8-2.6-2.1-2.2-3.9c0.4-1.9,1.9-2.8,3.8-2.9
		c2.1-0.1,4.1,0,6.2,0c19.8-0.6,39.4-2,59.2-1.4c0.3,0,0.7-0.1,1-0.3c6.6-2.3,13.1-5,20-6.6c7.6-1.8,10.4-0.5,14,6.4
		c0.1,0.3,0.3,0.6,0.5,0.9c1.4,2.4,2.2,5.4,4.2,7c2.1,1.7,4.8-0.8,7.5-0.8c6.9,0,13.8-0.1,20.7-0.1c3.7,0.1,6.8-0.8,9.9-3.2
		c3.9-3,8.5-5,13.5-5.6c4.6-0.6,8.7,0.3,11.5,4.5c3.9,6.6,11,6.8,17.3,7.3c8.7,0.6,17.5,0.7,26.2-0.8c5-0.8,9.6-0.1,13.5,3.6
		c0.9,0.9,2,1.7,3.3,1.8c6.4,0.5,12.2,4.2,18.8,3.9c3.7-0.1,7.3-0.1,11-0.3c1.2-0.1,2.3-0.3,3.2,0.6
		C994.7,758.2,994.7,765.4,994.7,772.5z"/>
	<path fill="#11708E" d="M0,706.9c0-3.9,0-7.8,0-11.7c3.7-1.8,7.9-1.3,11.8-1.6c7.7-0.6,15.4,0.5,23.1-0.8c1.7-0.3,3.5-0.1,4.9,1.1
		c0.6,0.6,1.5,0.8,2.3,0.8c7-0.3,13.6,1.9,20.3,3.3c11,2.3,22.1,3,33.2,2.3c7.2-0.4,14.2-2.4,21.3-3.7c14-2.4,28.1-4.1,42.4-4.1
		c14.3,0,28.7-0.2,43-2.4c1.7-0.3,3.5-0.2,5.2-0.2c27.6,0,55.3-0.1,82.8,0c4.5,0,9-0.3,13.4-1c1.9-0.3,3.8-0.4,5.3,0.8
		c2.4,2.1,5.4,2.5,8.4,2.8c8.4,0.7,16.6,2.5,24.7,4.7c12.8,3.6,25.9,3.5,39,2.6c5-0.3,9.9-0.3,14.9-0.3c9.5-0.1,19.1,0.1,28.7-0.1
		c7.6-0.1,14,2.3,19.1,7.9c0.4,0.4,0.8,0.8,1.2,1.2c0.6,0.9,1.9,1.9,1,3c-0.7,0.9-1.9,0.3-2.9-0.1c-4.8-2-9.9-2.7-15.1-3.7
		c-9.3-1.8-18.6-2.8-28-3.2c-3.3-0.1-6.6,0.6-9.9,0.6c-18.4-0.1-36.7-1.9-55.2-1.5c-6.8,0.1-13.5,1.4-20.1,2.3
		c-8.1,1.2-16.2,2.2-24.3,2.5c-45.8,1.5-91.6,0.4-137.3,0.6c-7,0.1-14-0.7-21-0.7c-13.3,0.1-26.6,0.8-39.8,2.6
		c-0.8,0.1-1.6,0.1-2.4,0.1c-2.1,0.1-4.4-0.3-6.4,0.3c-0.3,0.1-0.8,0.2-1.2,0.3c-4.6,0.1-9.3,0.6-14,0.1c-1.4-0.1-2.8-0.1-4.1,0.5
		c-3.7,1.1-7.5,1-11.3,0.9c-2.9-0.1-5.4-1.2-7.5-3c-4.8-3.9-10.2-5.2-16.4-5.3c-8.5,0-17,0.2-25.3,2C2.4,707.4,1.2,707.8,0,706.9z"
		/>
	<path fill="#0C6885" d="M965.7,768.4c5.2,0.9,10.4,1.9,15.6,2.8c1.3,0.2,2.7,0.4,3.7,1.4c-3.7,1.5-7.4-0.1-11.1,0.2
		c-5.8,0.6-11.6,0-17.4,0.3c-6.1,0.3-12.2-0.6-18.3-0.3c-6.7,0.3-13.4,0.3-20,0.1c-6.8-0.1-13.7,0.4-20.4-0.2
		c-3.5-0.3-7,0.3-10.5,0.5c-6.8,0.2-13.6-0.6-20.4-0.3c-2.8,0.1-5.6-0.2-8.4,0.1c-7.8,0.7-15.5-0.6-23.3,0
		c-5.1,0.4-10.3,0.5-15.3,0.1c-5.9-0.5-11.7,0.6-17.6,0c-3.1-0.3-6.4-0.3-9.7,0.1c-4.1,0.6-8.4-0.3-12.5-0.2
		c-6.8,0.1-13.5,0.1-20.3,0.2c-7.7,0.2-15.5-0.2-23.3-0.2c-8.4,0-16.7,0-25.1-0.1c-9.3-0.1-18.7-0.6-28,0c-5,0.3-10.1-0.2-15.2,0.2
		c-5.4,0.4-11-0.1-16.5-0.2c-5.8-0.1-11.7-0.3-17.5,0.1c-4.5,0.3-9-0.1-13.5-0.1c-9.5,0-19.1-0.1-28.6,0.1c-6,0.1-12.1-0.3-18.1,0
		c-4.9,0.2-9.9,0.5-14.8,0.1c-6.6-0.5-13.1,0.3-19.7,0c-6.6-0.3-13.4-0.4-20.2-0.2c-6.4,0.1-12.8,0-19.1,0.1
		c-3.6,0.1-7.2-0.1-10.8,0.1c-8.6,0.3-17.1-0.5-25.7-0.1c-7.2,0.3-14.4-0.2-21.6,0.1c-6.6,0.3-13.4,0.1-20.1-0.2
		c-4.6-0.2-9.2,0.2-13.7,0.1c-6.9-0.1-13.8,0.6-20.7,0.2c-4.4-0.2-8.9-0.6-13.3-0.1c-3.6,0.3-7.3,0.2-10.8,0.1
		c-5-0.1-10.1-0.8-15.2-0.1c-4.4,0.6-8.9-0.3-13.4,0c-5.6,0.3-11.3,0.2-16.9-0.1c-6.1-0.3-12.2,0-18.2,0.1
		c-7.2,0.1-14.4-0.8-21.6-0.1c-4.4,0.5-9.2,0.1-13.8-0.2c-3.6-0.2-7.3,0.6-10.8,0.3c-5.2-0.4-10.4,1-15.7-0.2c-3-0.7-6,0.2-9,0.1
		c-9.3-0.2-18.6,0.1-28,0c-7.4-0.1-14.9,0.3-22.2,0.1c-7.5-0.2-14.9,0.4-22.4-0.1c-7.3-0.6-14.6-0.5-22,0.3
		c-4.1,0.5-8.3-0.8-12.5-0.2c-5,0.8-9.9-0.2-14.9,0.1c-3.6,0.3-7.2-0.3-10.8-0.2c-7.3,0.1-14.6-0.1-21.9,0.2
		c-6.6,0.3-13.2-0.3-19.8-0.3c-5.2,0-10.4,0.4-15.7,0.4c-8.3,0-16.5-0.3-24.8-0.3c-4.6,0-9.2,0.3-13.8,0.4c0-1.6,0-3.2,0-4.8
		c1.9-1.5,4.1-1.1,6.3-1.1c36.6,0,73.2,0,109.8,0c34.7,0,69.6,0,104.3,0c52,0,104,0,156,0c47.9,0,95.7,0,143.6,0
		c46.3,0,92.8-0.1,139.1,0.1c13.7,0.1,27.4,0.2,41,0.1c31.1-0.1,62.1-0.1,93.2-0.2c52.4-0.1,104.7,0,157.1,0
		C955.6,767.3,960.7,767.3,965.7,768.4z"/>
	<path fill="#0B6885" d="M750.8,760.1c5.9-0.7,11.9-0.1,17.8-0.2c4.2-0.1,8.6-0.3,12.7-0.2c5.2,0.1,10.4,0.1,15.5,0.1
		c5.8,0,11.7-0.3,17.5-0.2c5.2,0.1,10.4,0.3,15.5,0.6c0.6,0,1.2,0.2,1.5,0.6c4.4,3.9,9.5,3.7,14.9,3.2s10.7-0.6,16-1.7
		c7.9-1.8,16.2-0.8,24.2-2.4c5-1,10.2,0.6,15.2,0.1c7.2-0.6,14.4,0.5,21.6-0.1c10.4-1,20,2.2,29.7,5c1.5,0.4,3.2,0.5,4.5,1.5
		c-1.5,1.3-3,0.7-4.6,0.4c-3.9-0.7-7.7-1-11.7-1c-13,0.1-26,0.4-39,0c-7.3-0.3-14.4,0.4-21.7,0.2c-12.3-0.3-24.6-0.1-36.9,0.4
		c-4.8,0.2-9.8,0-14.7-0.7c-4.3-0.6-8.7-0.6-13.1-0.3c-13,0.9-26,0.1-39,0.3c-9.7,0.1-19.3,0.1-28.9,0.1c-11.5,0.1-22.9,0-34.5,0
		c-17,0-34.1,0.1-51,0.1c-17.2-0.1-34.5-0.3-51.7-0.1c-10.7,0.1-21.3,0.3-32,0.3c-7.1,0-14.3-0.5-21.3-0.4
		c-7.7,0.1-15.4-0.3-23.1-0.1c-10.9,0.5-21.8-0.3-32.7-0.1c-13.2,0.2-26.4-0.1-39.6,0.1c-8.5,0.1-17-0.1-25.5,0.1
		c-9,0.2-18.2,0.6-27.2,0c-4.6-0.3-9.2,0.1-13.8,0.1c-9.5,0-19.1,0.2-28.6-0.3c-4.2-0.1-8.4,0.6-12.5,0.5c-10-0.2-20,0.1-30-0.1
		c-11.6-0.3-23.1,0.3-34.7,0c-11.5-0.3-23,0.2-34.5,0.1c-5.7-0.1-11.3-0.6-16.9-0.7c-6.9-0.1-13.7,0.6-20.7,0.4
		c-10.4-0.1-20.7,0.1-31,0.1c-11.1,0-22.2-0.2-33.4,0.1c-15.3,0.4-30.6,0.1-45.9,0c-13.2-0.1-26.4,0.3-39.6-0.3
		c-5-0.3-10.1,0.3-15.2,0.2c-11.4-0.3-22.7,0.5-34.1-0.2c-4.2-0.2-8.5,0.4-12.7,0.2c-1.9-0.1-4.2,0.6-5.7-1.5c0-1.2,0-2.3,0-3.5
		c3.9-0.6,7.8-0.6,11.7-0.7l0,0c0.3,0.2,0.6,0.4,0.9,0.3c6.1-0.8,12.1-0.2,18.2,0c0.6,0,1.1,0.1,1.6-0.3c3.7-0.3,7.3-0.3,10.9-0.1
		c7.9,0.4,15.7,0.5,23.6,0.1s15.8,0.1,23.7,0.2c7,0.1,14-0.3,20.9-0.1c5.6,0.2,11.1-0.1,16.7,0c5.3,0.1,10.8,0.1,16.1,0.1
		c7.3,0,14.6-1.5,21.9,0.1c0.6,0.1,1.2,0.1,1.7-0.3c2.4-1,4.7,0.5,7.1,0.4c13.7-0.5,27.4-0.4,41.2-0.3c10.6,0.1,21.3,0.3,31.8,0.1
		c9.9-0.1,19.8,0.3,29.6-0.3c5-0.3,10.2-0.2,15.3,0.4c3.2,0.3,6.4-0.1,9.6-0.3c9.3-0.5,18.6,0.2,27.8,0.1c9-0.1,18,0.4,26.9-0.3
		c8.4-0.6,16.9,0.8,25.3,0.3c9.5-0.6,18.9,0.5,28.5-0.3c5.2-0.5,10.5,0.6,15.8,0.6c9.8,0,19.6-0.4,29.4-0.3
		c14,0.2,27.8-0.1,41.8,0.2c0.7,0,1.4,0.1,2-0.3c5.8-0.1,11.7-0.2,17.5,0.1c7.3,0.3,14.6,0.2,22-0.4c0.7-0.1,1.4-0.1,2,0.3
		c3,0.8,6.1,0.3,9.2,0.3c8.4,0,16.9,0.5,25.2,0c9.1-0.6,18.2,0.3,27.4-0.1c11.2-0.6,22.4,0.3,33.6,0.1c6.3-0.1,12.6,0.2,18.9,0.1
		c6.7-0.2,13.5-0.3,20.2-0.1c6.8,0.2,13.7-0.3,20.6,0c4.7,0.3,9.4,0.2,14.1,0c3.9-0.1,7.7-0.3,11.6-0.1c7,0.2,13.9-0.1,20.9,0.3
		C745.7,760.7,748.2,759.1,750.8,760.1z"/>
	<path fill="#086581" d="M89.1,710.4c9.9-0.9,19.8-2.1,29.7-2.6c9.3-0.4,18.6-0.7,27.9,0.2c1.2,0.1,2.5,0.3,3.8,0.3
		c43.2,0,86.5,0.2,129.8-0.1c14.2-0.1,28.5-1.6,42.5-4.4c2.9-0.6,5.9-0.8,8.8-1c14.2-0.5,28.3,0.1,42.3,0.8
		c6.3,0.3,12.6,0.9,18.9,0.4c15.5-1.2,30.5,1.9,45.5,4.9c2.5,0.5,4.7,1.7,7.1,2.7c-3-5.7-11.6-10.9-18.1-10.9
		c-14.5-0.1-29-0.3-43.5,0.1c-5.8,0.2-11.7,0.4-17.5,0.6c-9.9,0.3-19.6-1.5-29.1-4.4c-7.8-2.4-16-2.8-24-3.9
		c-0.9-0.1-2.1,0.3-2.6-0.6c-3-4.6-7.2-2.4-10.9-2c-1.9,0.2-3.9,0.5-5.8,0.5c-29.2,0-58.5-0.5-87.7,0.2c-13.5,0.3-26.9,1.7-40.4,2.4
		c-4.9,0.3-9.9,0.2-14.9,0.1c-9.8-0.3-19.3,1.6-28.9,3.1c-14.4,2.3-28.8,5.9-43.6,4.5c-7.7-0.8-15.4-1.9-22.9-3.9
		c-3.6-1-7.1-1.5-10.8-1.7c-2.2-0.1-4.8,1.4-6.5-1.8c-0.3-0.6-2.9-0.5-4.3-0.1c-4.1,1-8.2,0.7-12.4,0.6c-7.3-0.3-14.4,0.8-21.7,0.8
		c0-0.7,0-1.4,0-2.1c3.7-1.8,7.9-1.7,11.8-1.7c10.4,0.1,20.7-0.4,31-1c9.1-0.5,18.1-0.4,27.2,0c7.5,0.3,15.1-0.6,22.7-1.6
		c8-1,16-1.7,24-1.7c7.1-0.1,14.2-1.3,21.3-2.1c12-1.3,24.1-1.2,36.2-1.4c23-0.5,46-0.8,69-0.6c6,0,11.9,0.8,17.9,1
		c1.7,0.6,3.6,0.7,5.4,0.6c0.6,0,1.2,0.1,1.8,0.3c5.4,0.1,10.5,2.3,15.5,1.7c-1.5,0-3.5,0.1-5.5-0.1c-1-0.1-2.6-0.2-1.7-2.1
		c1.3-1.2,2.9-1.3,4.6-1.2c5.5,0.3,11-0.8,16.4-1c-17.4,1.2-34.8,1.5-52.3,0.4c-4.6-0.3-9.2-0.2-13.8-0.1
		c-15.2,0.3-30.4,0.4-45.5,0.3c-17.3-0.1-34.7,0.3-52-1.5c-8.6-0.9-17.2-0.6-25.8,0.1c-7.3,0.5-14.7,0.8-22,1
		c-16.1,0.2-32.2,0.1-48.3,0c-6.4-0.1-12.6,1.1-18.9,0.8c-1.2-0.1-2.3,0-3.5-0.1c-1.3-0.1-2.6-0.4-3-1.9c-0.5-1.7,1.1-2,2.2-2.6
		c3.1-0.8,6.1,0.3,9.3,0.3c19.1-0.1,38.2,0.3,57.3-0.1c11.8-0.3,23.6-0.8,35.4-1.7c6.2-0.5,12.4-0.6,18.6,0.1c5.2,0.6,10.5,1,15.8,1
		c8.8,0,17.7-0.5,26.5,0.6c4.8,0.6,9.6-0.6,14.4-0.6c19,0,38-0.5,56.9,0.1c15.1,0.5,30.1,0.3,45.2,0.6c1.4,0,2.8,0,4.1-0.1
		c2.8-0.1,4.7-0.9,4.2-4.4c-0.2-1.4,0.2-2.8,1.6-3.5c0.6-0.3,1-0.8,1.5-1.1c0.2-0.1,0.3-0.1,0.6-0.3c1.3,0.8,1,2.2,1.3,3.4
		c0.3,1.6,0.5,3.2,0.8,4.8c2.2,10.4,4.1,11.5,14.3,14.2c16.8,4.4,33.8,4.6,51,4.8c19.8,0.3,39.5,1,59.3,1.6
		c8.4,0.3,14,6.8,17.8,14.1c1.2,2.3,2.2,4.6,4.8,5.6c0.5,0.3,1.1,0.3,1.7,0.3c1,0,2.3-0.1,2.1,1.5s-1.7,2.1-2.5,1.4
		c-2.5-1.9-4.9-0.3-7.4-0.3c-3.7-0.1-7.3-1-10.8-1.5c-1.6-0.2-3.2-0.4-4.8-0.5c-0.6,0-1.1-0.1-1.7-0.3c-1.4-0.6-2.8-0.4-4.2-0.6
		c-0.3-0.1-0.7-0.1-1-0.2c-1.8-0.6-3.6-0.3-5.4-0.3c-1.2,0-2.3-0.1-3.4-0.3c-2.9-0.8-5.8-0.3-8.7-0.4c-1.7,0-3.2-0.4-4.7-0.9
		c-5.9-0.8-11.9-0.6-17.8-0.1c-0.3,0.1-0.8,0.2-1.2,0.2c-2.3,0.3-4.6-0.2-6.9,0.6c-1,0.2-2,0.3-3,0.3c-3.2,0.1-6.5-0.4-9.7,0.5
		c-3.4,0.5-6.8,0.3-10.2,0.3c-9.8-0.1-19.6,0-29.5-0.1c-1.2,0-2.3,0.1-3.4,0.5c-2.4,0.4-4.8,0.2-7.2,0.3c-8.7-0.1-17.4,0-26.1-0.1
		c-0.6,0-1.2-0.1-1.9-0.2c-1.7-0.6-3.5-0.5-5.2-0.5c-0.8,0-1.7-0.1-2.5-0.3c-4-0.7-8-0.3-12-0.3c-7.9-0.1-15.8-0.1-23.8,0
		c-1.1,0.1-2.2-0.1-3.3-0.3c-1.1-0.3-2.3-0.4-3.4-0.4c-14.9,0-29.7-0.1-44.6,0.1c-15.5-1-30.9,1.2-46.3,0.7c-7,0-14.1-0.5-21.1,0.3
		c-0.8,0.2-1.7,0.3-2.5,0.3c-1.9-0.1-3.8,0.3-5.7-0.5c-0.9-0.6-1.1-1.3-0.6-2.2c1.6-1.7,3.7-1.9,5.7-1.9c5.5-0.1,11-1.2,16.5-0.9
		c0.9,0.1,1.9,0,2.8,0c38.8-0.3,77.6,0.7,116.3,0.9c22,0.1,44.1,1.6,66.2,1.1c18.5-0.4,37-0.7,55.5-1.5c21.3-0.9,42.5,0.3,64,3
		c-3.7-2-7.3-3.1-11.1-3.9c-13.4-2.8-26.9-4.9-40.8-4.3c-18.4,0.8-36.7-1.7-55.2-1.5c-6.7,0.1-13.3,0.7-19.9,1.9
		c-9.3,1.7-18.7,2.6-28.1,2.8c-45.5,1-90.9,1.2-136.4,0.6c-13.3-0.1-26.7-0.3-40-0.5c-4-0.1-8,0.4-11.9,1.1
		c-6.8,0.1-13.5,1.2-20.2,1.5c-1.6,0.1-3.2,0.1-4.6-1.4c2.5-1.2,5,0.1,7.2-1l0,0C84.9,710.2,87.1,711.3,89.1,710.4z"/>
	<path fill="#086581" d="M0,706.9c12-2.8,24.1-3.7,36.4-2.1c3.2,0.4,6.1,1.7,8.3,3.9c4.8,4.8,10.7,3.9,16.5,3.5c1-0.1,2-0.3,3-0.4
		c1.8-0.7,3.6-0.2,5.5-0.3c0.6-0.1,1.5-0.1,1.7,0.8c0.2,1-0.6,1.5-1.4,1.6c-2.1,0.4-4.2,0.8-6.4,0.9c-0.1,0-0.2-0.1-0.3-0.2
		c0,0.1,0,0.1,0,0.3c14-1.5,28-2.5,42.1-3.6c0.6-0.1,1.2-0.1,1.7,0.3c0.4,0.6,0.4,1.1,0.1,1.7c-1.5,1.2-3.4,0.8-5,1.4
		c-7.7,1-15.5,1.9-21.6,1.9c2.9,0.1,7.4,0.9,11.7,2.8c5.5,3.7,11.6,6.2,17.7,8.8c9.2,4.5,19.1,5.5,29.1,6.1c0.8,0.1,1.6,0.1,2.4,0.2
		c3.2,0.7,6.1,1.3,9.2-0.8c1.5-1,3.5-0.9,5.4-0.8c7.8,0.1,15.6-0.5,23.4-1.2c2.6-0.3,5,0.6,7.5,0.6c14.9-0.7,29.6-0.8,44.5-0.6
		c0.2,0,0.3-0.2,0.2,0.1c-10.8-1-21.7-3.7-32.8-3c-11.1,0.7-22-0.6-33-1.5c-0.8,0-1.7-0.1-2.5-0.3c-4.7-0.9-9.5-0.3-14.2-0.4
		c-1.8,0.1-3.6,0.1-5.4-0.2c-1.2-0.3-2.9-0.4-2-2.5c1.2-0.8,2.8-0.6,4.1-1.2c4.1-0.4,8.2-0.4,12.4,0c2.1,0.7,4.3,0.5,6.4,0.5
		c1.2,0,2.3,0.1,3.5,0.3c1.8,0.6,3.7,0.4,5.6,0.4c1,0,1.9,0.1,2.9,0.3c1.7,0.6,3.5,0.4,5.3,0.3c19.7-0.6,39.2,1.1,58.6,4.4
		c2.3,0.4,4.6,0.4,6.9,0.4c16.4,0,32.9-0.3,49.2,0.8c10,0.6,19.8,3,29.6,4.4c8.6,1.3,17.3,2.1,26,2.4c9.3,0.3,18.6,0.3,27.9,0
		c9.9-0.3,19.7-1.1,29.5-2.3c13.1-1.9,26.2-3.7,39.2-6.1c1.3-0.2,3.2-0.8,3.6,0.8c0.4,1.6-1.6,1.9-2.8,2.3
		c-4.8,1.6-9.7,2.1-14.7,2.3c24.1-0.3,48.1-1.4,71.8-6.4c20.9-2.9,41.7-2.1,62.6,0.6c7.9,1,16,1.6,24,1.9c12.2,0.4,24.4,1,36,5.5
		c5.5,2.1,11.5,2.3,17,4.4c1.2,0.2,2.3,0.8,3.2,1.5c0.4,0.6,0.3,1.1-0.1,1.7c-2.3,1.2-4.8,0.6-7.2,0.7c-2.8,0-5.4-0.8-8-1.4
		c-1.3-0.3-2.6-0.8-3.9-1.1c-11.6-4.3-23.6-5.6-35.8-5.9c-13.2-0.4-26.3-1.9-39.4-3.5c-17.2-2.1-34.4-2-51.5,1.9
		c-2.5,0.6-5,1-7.5,1.1c-1.4-0.1-2.8-0.1-4.1,0.4c-0.4,0.1-0.8,0.2-1.2,0.2c-9.9,1.2-19.9,1.7-29.8,2.3c-18,1-36.1-0.7-54,3
		c-9.5,1.9-19.1,3.8-28.7,3.1c-17-1.2-34-2.1-50.9-4.2c-6.4-0.8-12.7-2.1-19-3.5c-4.9-1-9.8-1.4-14.7-1.7
		c-19.3-1.5-38.6-0.5-57.9,0.4c-5.9,0.3-11.9,0.4-17.9,0.6c-9.4,0.3-18.9,1.2-28.3,0.9c-7.3-0.3-14.5,0.5-21.7,1.2
		c-2.6,0.3-5.2-0.1-7.8,0.1c3-0.1,6,0,9,0.1c17.1,0.3,34.1-1.2,51-0.8c5,0.1,9.9,0.8,14.7,1.8c1.9,0.4,3.9,1,5.4,2.3
		c5.6,4.7,12.3,5.6,19.1,5.6c14-0.1,27.7,2.4,41.7,2.4c4.5,1,9.1,0.6,13.7,1c14.2,1.2,28.5,0.3,42.7,0.8c10.4,0.3,20.9,0.5,31.3,0.6
		c0.9,0,1.9,0.1,2.7,0.3c1.5,0.8,2.1,1.7,0.7,3.1c-0.8,0.5-1.7,0.5-2.6,0.4c-8.5-0.9-16.9-0.1-25.4,0c-0.4,0-0.9,0-1.3-0.1
		c-1.7-0.5-3.5-0.3-5.1-0.3c-13.2-0.1-26.4,0-39.6,0c-0.6,0-1.2-0.1-1.9-0.2c-2.9-0.9-5.9-0.3-8.8-0.6c-0.6,0-1.2-0.1-1.8-0.3
		c-3.2-0.8-6.6-0.1-9.9-0.5c-0.4,0-0.8-0.1-1.2-0.2c-3.2-0.8-6.5-0.2-9.7-0.4c-0.6,0-1.1-0.1-1.7-0.2c-1.9-0.8-3.9-0.3-5.9-0.6
		c-0.3-0.1-0.7-0.1-1.1-0.2c-2.8-0.6-5.6-0.1-8.4-0.3c-0.6,0-1.2-0.1-1.7-0.3c-3.7-0.8-7.5-0.2-11.2-0.3c-0.8,0-1.6-0.1-2.4-0.3
		c-3.9-0.7-7.9-0.7-11.8,0.1c-3.1,0.4-6.2,0.4-9.3,0c-2.4-0.8-5-0.4-7.5-0.4c-12.1-1.9-24.2-1.6-36.4-2.6c-4.6-0.4-9.2,0.6-13.7,0.5
		c-16.1-0.3-32.2,1.2-48.2,0.7c-15.1-0.5-30.3-0.5-45.5-0.6c-4.6-0.1-5.7-0.9-7.3-5.2c-1-2.6-3.4-3.3-5.7-3.9
		c-6.9-1.6-14-2.3-21.1-2.6c-13.7-0.5-27.5,0.2-41.2,1.2c-1.7,0.1-3.5,0.3-4.9-1c0-1.2,0-2.3,0-3.5c3.9-2.1,8.4-1.6,12.4-1.6
		c19.8-0.1,39.4-1.4,59.2-0.9c1.2,0,2.3,0.1,3.5,0.3c2.8,0.9,5.7,0.5,8.5,0.6c6.8,0.1,13.5,0,20.2,0.1c0.6,0,1.3,0.1,1.9,0.2
		c2.6,0.7,5.1,1.2,7.5,2.5c2.7,1.5,5,3.2,5.5,6.6c0.3,2.2,1.9,3.2,4,3c8.6-1,17.2,0.2,25.8-0.3c13.3-0.8,26.7-0.8,40,0.1
		c5.9,0.4,11.7,0.5,17.5,0.8c9.2,0.4,18.3,1.7,27.5,2.1c1.8,0.1,3.6,0.3,5.8-0.3c-1.5-2.1-3.4-2.8-5.3-3.3
		c-4.2-1.1-8.5-1.9-12.9-1.9c-10,0.1-20-0.4-30,0.1c-20.1,1-39.9-1.9-59.8-3.2c-8.4-0.6-16-3-23.6-6c-5.1-2.4-10.4-4.4-15.2-7.4
		c-3.5-2.1-7.4-3.2-11.3-3.9c-6.6-1-13.2-1.7-19.9-1.8c-18.2-0.3-36.3,1-54.4,2.4c-0.3,0-0.7,0.1-1,0.1c-1.5,0-3.4,0-3.6-1.8
		s1.5-2.4,3.1-2.6c3.5-0.4,7-1.6,10.6-1.3c5.5,1.5,11,0,16.4-0.4c7-0.5,13.9-0.6,20.4,0.1c-2-0.4-4.6,0-6.7-1.5
		c-5.6-4.8-12-6.5-19.4-6.2c-7.6,0.3-15.1,0.6-22.5,2.1c-1.3,0.3-2.7,0.8-4-0.1C0,708.8,0,707.8,0,706.9z"/>
	<path fill="#0B6885" d="M0,764.2c5.4,0.7,10.8,1.2,16.2,0.1c2.1-0.4,3.9,0.6,5.7,0.5c6.1-0.3,12.3,0,18.5-0.3
		c4.4-0.3,9,0.1,13.6,0.3c4.1,0.1,8.1-0.1,12.1-0.5c1.7-0.2,3.1,0.6,4.7,0.5c6.1-0.3,12.2-0.4,18.2-0.3c5.7,0.1,11.5-0.6,17.2,0.7
		c1.5,0.3,3.2-0.2,4.7-0.2c8.4-0.2,16.7-0.5,25.1,0c9.8,0.6,19.6-0.1,29.4-0.2c5.9-0.1,11.9,0,17.9-0.1c7.5-0.1,15.2,0.2,22.7,0.3
		c11.3,0.1,22.7-0.9,34-0.5c11.2,0.4,22.3,0.6,33.5,0.4c6.8-0.1,13.6,0.3,20.4-0.4c1.9-0.2,4,0.7,6.1,0.6c4.2-0.3,8.4-0.6,12.6-0.6
		c2.4,0,4.8,0.6,7.2,0.6c7.9,0,16,0.3,23.9-0.6c1.7-0.1,3.3,0.6,5.1,0.6c11.5,0,23.1,0,34.6,0.1c8.1,0.1,16.3,0.1,24.5-0.4
		c5.1-0.3,10.5,0.3,15.7,0.1c6.6-0.2,13.1,0.5,19.7-0.3c2.6-0.3,5.5-0.2,8.4,0.3c4.1,0.8,8.4-0.5,12.6-0.3
		c5.5,0.2,11.1,0.1,16.5,0.3c6.1,0.2,12.2-0.1,18.3-0.3c4.1-0.2,8.3,0.3,12.4,0.1c5.7-0.3,11.5,0.6,17.2,0.4c7.3-0.2,14.6,0.1,22,0
		c4.3,0,8.6-0.1,12.9,0c9.3,0.1,18.5,0.2,27.8,0c9-0.3,18.1,0.4,27.1-0.1c6.5-0.3,13,0.1,19.5-0.3c3-0.2,6.4,0.7,9.5,0.4
		c8.1-0.8,16.2,0.7,24.2-0.2c2.6-0.3,5.2,0.1,7.9,0.3c9.5,0.3,19-0.3,28.5-0.1c9.3,0.3,18.7-0.7,28-0.3c8.6,0.3,17.3-0.1,25.9,0.3
		c8.1,0.3,16.2-0.2,24.4-0.2c5.9,0,11.7,0.2,17.6,0.3c3,0,6.1-0.2,9.2-0.3c6.1-0.1,12.2,0.1,18.2,0.4c4.8,0.3,9.7,1.6,14.6,0.1
		c0.8-0.3,1.8-0.2,2.8-0.3c13-0.6,26,0.3,39-0.3c8.9-0.4,18,0.5,26.9,0.3c9.5-0.2,19.1,0.3,28.7-0.3c4.4-0.3,9,1.2,13.5,1.8
		c2.9,0.1,5.7,0.8,8.3,2.1c-321.9,0-643.8,0-965.6,0C0,767,0,765.6,0,764.2z"/>
	<path fill="#117492" d="M306,671c-2.8,0.8-3.2,2.6-2.3,5.2c0.6,1.7,0.4,3-2,3.2c-1.8,0.2-3.6,0.6-5.5,0.6
		c-12.1,0-24.2,0.5-36.3-0.1c-22.1-1-44.1-0.3-66.2-0.6c-4.9-0.1-9.9,0.9-14.8,0.6c-11.9-0.9-23.9,0.1-35.8-0.8
		c-8.5-0.6-16.9-1.8-25.4-1.1c-29.9,2.5-59.9,1.8-89.9,2c-4.5,0-8.9-0.5-13.4-0.8c-4.8,0.1-9.7,0.7-14.5-0.7c0-1.9,0-3.7,0-5.5
		c1.5-1.8,3.6-2.1,5.6-2.3c12.5-1.7,25-3.3,37.6-3.6c16.9-0.4,33.8-1,50.6-1.5c7.8-0.2,15.5-1.5,23.3-1.2c2,0.1,5.1-0.3,5.3,1.8
		c0.1,1.9-3.1,1.5-4.8,1.7c-2.8,0.3-5.5,0.7-8.2,0.9c6.7-0.5,13.3-2.2,20-1.7c14,1.1,28,0.1,42.1,0.8c13.8,0.8,27.7,2.1,41.5,2.4
		c14.9,0.3,29.9,0.7,44.8-0.3c6.8-0.5,13.5-0.1,20.4-0.1c7.7-0.1,15.4,0,23.1,0C303,670,304.6,669.8,306,671z"/>
	<path fill="#177A99" d="M0,637.8c0-3.7,0-7.4,0-11.1c3.9-1.7,8.1-1.7,12.2-1.7c10.2-0.1,20.4,0.4,30.7,0.8c0.3,0,0.3,0,0.3-0.2
		c-6,0.1-12-0.5-18-0.3c-0.8,0-2.1,0.2-2.1-1c0-1.1,1.3-1.2,2.1-1.2c5-0.1,10.2-0.3,15.2,0.1c3.7,0.9,7.5,0.3,11.2,1.2
		c1.3,0.3,2.8,0,3.3,1.7c0,0.4-0.2,0.8-0.5,1c-1.1,0.7-2.5,0.4-3.6,1c-2.8,1.2-5.7,0.9-8.6,1.7c1.7-0.2,3.5-0.7,5.2-0.1
		c4.2,0.7,8.4-0.8,12.6-0.4c1.3,0.1,2.7-0.1,4-0.1c-1.5,0.1-2.8-0.1-4.3,0.1c-1,0.1-2.1,0.4-2.5-1c1.1-1.4,2.7-1.2,4.1-1.2
		c10.6,0.4,21.1-0.9,31.7-0.7c5.4,0.1,10.6-1.5,16-1.8c1.2-0.1,2.5-0.3,3.8-0.3c14.4,0.3,28.7-1.3,43-1.9c9.7-0.4,19.5-0.2,29.4-0.1
		c10.2,0.1,20.2-0.6,30.3-1.2c8.6-0.6,17.3-0.1,25.9-0.1c0.8,0,1.6,0.2,2.3,0.7c0.4,2.4-1.6,1.7-2.7,1.9c-6,0.8-12.2,1-18.2,1.2
		c-1.7,0.1-3.5,0.1-5.2,0c-14.5-0.5-28.9,1-43.4,0.8c-4.9-0.1-9.7-1-14.2-1c11.6,1,23.8,1.7,36,0.3c0.7-0.1,1.4-0.1,2.1-0.1
		c18.5,0.2,37-0.6,55.5-0.3c2.6,0,5,0,7.5-0.5c3.5-0.6,6.4,1.9,6.3,5.5c-0.1,1.7-1.2,2.1-2.6,2.1c-6.6,0.4-13.1,0.5-19.5-0.6
		c-4.2-0.7-8.4-1.5-12.4-1c4.4-0.1,9.2,0.5,14,1.4c6.1,1.1,12.4,0.6,18.6,0.3c1.9-0.1,3.4,0.4,4.1,2.3c0.9,1.7,0.6,3.2-1,4.3
		c-3.2,0-6.8,1.7-9.5-1.8c-0.8-0.6-1.5-0.9-2.6-0.8c-13.5,0.8-27.1,0.6-40.7,0.2c-10.4-0.3-20.9-1.7-31.3-1.1
		c-9.6,0.5-19.2,1.2-28.8,2.4c-2.8,0.3-5.5,0.8-8.2,0.8c-9.9-0.1-19.7,1.7-29.6,1.6c-15.5,1.1-31.2,0.6-46.7,0.7
		c-1.9,0-3.7,0.1-5.5-0.2c-6.5-0.3-12.9-1.5-19.5-0.8c-6.4,0.7-12.8,0.5-19.3-0.1c-7.3-0.8-14.7-0.1-22-0.3
		C3.3,638.8,1.5,639.1,0,637.8z"/>
	<path fill="#0D6986" d="M283.2,751.8c0.5,0,0.9,0,1.4,0c3.4,1,7-0.3,10.4,0.7c0.2,0,0.5,0,0.7,0c3.4,1,7-0.3,10.4,0.7
		c0.5,0,0.9,0,1.4,0c2.9,1,6-0.3,9,0.7c0.5,0,0.9,0,1.4,0c1.2,0.7,2.5,0.3,3.7,0.3c12.7,0,25.4,0,38.2,0c1.2,0,2.6-0.3,3.7,0.3
		c0.2,0,0.5,0,0.7,0c2.7,1,5.6-0.3,8.3,0.7c-2.6,2.5-5.8,0.8-8.6,0.9c-7,0.3-14-0.2-21-0.2c-9.9,0-19.8,0.5-29.8,0.1
		c-5.7-0.3-11.5,0.6-17.1,0.3c-8.6-0.3-17.2,0-25.8-0.1c-11.4-0.2-22.8,0.4-34.3-0.2c-7.9-0.4-15.7-0.2-23.6,0.1
		c-11.3,0.4-22.7-0.1-34,0.1c-11.5,0.2-23.1,0.2-34.7,0.2c-13.5-0.1-27-0.3-40.5-0.1c-14.2,0.3-28.5-0.5-42.7-0.3
		c-9.7,0.2-19.3,0-29,0.1c-9.3,0.1-18.6,0.1-28,0.2c-1.2,0-2.2-0.3-3.3-0.4c0-2.8,0-5.5,0-8.3c3.2-1.7,6.8-1.5,10.1-1.3
		c10,0.5,20,0.2,30,0.2c8.6,0,17.3,0.6,25.8-0.2c2.8-0.3,5.7,0.1,6.5-3.6c0.1-0.5,0.8-0.8,1.5-0.6c0.4,3.7,2.5,4.9,6.1,4.9
		c15.4-0.1,30.7,0.1,46.1,0.6c16.3,0.5,32.6-0.3,48.8-0.9c9.5-0.3,19,0.6,28.5,0.4c7-0.1,14.1,1.2,21.1,1.9c2.2,1,4.7-0.3,6.9,0.7
		c3.2,0,6.4,0,9.7,0c3.9-0.6,7.8-0.6,11.7,0c0.7,0,1.4,0,2.1,0c3.9,1,7.9-0.3,11.7,0.7c0.5,0,0.9,0,1.4,0c2.9,1,6-0.3,9,0.7
		C279,752.1,281.2,750.9,283.2,751.8z"/>
	<path fill="#137796" d="M0,658.6c0-1.9,0-3.7,0-5.5c2.6-1.7,5.4-1.2,8.1-0.8c8.7,1,17.5,0.5,26.2,0.6c10.6,0.1,21.1-1.1,31.7-0.6
		c7.3,0.6,14.6,0.1,20.5,0.3c-4.3,0-10,0-15.7,0c-1,0-2.7,0.5-2.8-1c-0.1-1.2,1.5-1.2,2.5-1.2c1-0.1,2-0.3,3-0.6
		c7.2-1.2,14.4-0.8,21.6-0.3c8.5,0.6,17.1,0.3,25.5-0.7c14.2-1.7,28.3-3.3,42.5-2.6c7.3,0.3,14.7-0.7,21.9,1.5
		c1.8,0.6,3.9,0.5,5.2,3.3c-18-0.1-35.7,0.6-50.1,0.4c6.9-0.5,17.1,0.4,27.3-0.3c0.7-0.1,1.4-0.1,2.1-0.1c27.6-1,55.2-0.7,82.7-0.7
		c10.6,0,20.8-1.5,30.9-4c2.4,2.6,2.1,5.7,1.5,8.6c-0.4,1.9-3,1.9-4.7,2.1c-3.3,0.3-6.6,0.6-9.9,0.6c-6.3,0.2-12.6,0.7-18.9,1
		c-11.5,0.6-23,0-34.5,0.7c-14.3,0.9-28.5,0.4-42.8,0.5c-31.6,0-63.3,0.3-95,0.1c-3.5,0-6.9,0.3-10.3,1.1
		c-7.9,1.9-15.7,1.4-23.6-0.1c-11.3-2.1-22.6-2.3-34-1.2C7.5,659.8,3.6,660.6,0,658.6z"/>
	<path fill="#1D80A2" d="M0,583.3c0-3,0-6,0-9c2.3-1.7,5-0.7,7.5-1c1,0,2.1,0,3.2,0c6.8-0.3,13.5,0.5,20.2-0.4
		c13.4-1,26.5-3.9,39.8-6c8.7-1.4,17.4-1.9,25.9,0.8c5.2,1.6,10.4,0.6,15.3-0.2c10.5-1.7,20.8-0.6,31.2,0.6
		c6.6,0.8,13.2,1.7,19.9,1.8c6,0.1,11.8,1.7,17.7,2.5c2.1,0.3,4.2,0.9,6.3-0.3c0.3-1.2,1.3-1.5,2.3-1.7c1.7-0.1,3.1,0.4,4.3,1.7
		l-0.1-0.1c0.5,1,0.6,1.9,0.6,3c0.1,3.5-0.6,4.3-4.1,4.4c-11.1,0.1-22,1.9-32.9,3.1c-7.2,0.8-14.4,1.9-21.6,2.3
		c-4.8,0.2-9.6-0.6-14.4-0.5c-10.6,0.1-21.1,0-31.7,0.1c-9,0-18.1-0.8-27.1-1.5c-1-0.1-2.1-0.2-2.8-1c1-2.2,2.9-1.4,4.4-1.4
		c18.7-0.1,37.5-0.1,56.2,0c3.3,0,6.6-0.3,9.9-0.7c6.7-0.4,13.4-1.5,20.1-1.9c5.9-0.3,11.9-1,17.8-1.5c2.6-0.2,5.2-1.4,6.9-0.9
		c-16.1,2.3-33.3,2.9-50.3,4.9c-17,0.1-34,0.2-51,0c-12.7-0.1-25.3,2.1-38.1,1.7c-1.5-0.1-3,0-4.5,0c-1-0.1-2.3-0.1-2.5-1.3
		c-0.1-1.1,1.1-1.6,2.1-1.9c2.8-1,5.8-1.2,8.7-1.5c2.3-0.1,4.5-0.3,6.8-0.7c2.2-0.1,4.4,0.2,6.6-0.4c0.6-0.1,1.2-0.1,1.9-0.1
		c13.3-0.2,26.7-1.8,40-0.6c0-0.1,0-0.1,0-0.4c-10.8-0.1-21.6,0.1-32.4,0.8c-4.8,0.3-9.6,0.2-14.4,0.5c-1.5,0.1-3-0.1-4.4,0.4
		c-13.1,0.5-25.3,5.3-38.2,6.6C3.3,583.7,1.6,584.6,0,583.3z"/>
	<path fill="#117290" d="M0,678.6c4.8-0.1,9.7-0.6,14.5,0.7c-0.3,0.9-2.1,0.4-1.7,1.7c0.3,1,1.4,1,2.3,1c5.9,0,11.9-0.4,17.9-0.6
		c14-0.3,28.1-0.3,42.1-0.1c10.5,0.2,20.9-0.4,31.4-1c9-0.5,18-1.1,26.8-0.3c13,1.3,25.9,0.5,38.9,1.2c16.5,1,33-0.8,49.5-0.1
		c4.6,0.2,9.2-0.1,13.8,0.1c13.9,0.6,27.8,0.6,41.7,0.8c7.1,0.1,14.2-1.1,21.3-0.8c1.1,0.1,2.2,0,4.1,0c-3,2-5.8,1.6-8.3,1.9
		c-4.8,0.8-9.6,1-14.4,0.8c-1.2-0.1-2.5,0.4-3.7,0.6c-2.6,1.7-5.5,1-8.3,0.7c-0.5,0-0.9,0-1.4,0c-1.5-0.9-3.3,0.2-4.8-0.7
		c-20.1-1-40.3-1-60.4-0.6c-16.1,0.4-32.2,0.1-48.3,0.7c-8.3,0.3-16.6,0.9-24.9,2.4c-3.8,0.8-7.7,0.8-11.6,0.8
		c-10.4-0.1-20.7,1.8-31.1,2.6c-7,0.6-14,1.5-21.3,0.5c-5.9-0.8-12.2-0.9-18.2,0.3c-0.4,0.1-0.9,0.1-1.4,0.1
		c-10.4-0.2-20.7,1.2-31,0.7c-4.6-0.2-9.1,1.1-13.7,0.7C0,688.3,0,683.4,0,678.6z"/>
	<path fill="#137897" d="M73.2,650.3c-1.3,1.5-3.3,0-5.5,1.6c8.9,0,17,0,25.1,0c0,0.4,0,0.8,0,1.2c-8.8,0-17.6,0-26.5,0
		c-1.2-1-2.6-0.7-3.9-0.7c-14.2-0.1-28.4,1.1-42.6,0.7c-5.9-0.1-11.9-1-17.8-0.8c-0.7,0-1.4-0.2-1.9-0.6c0-4.1,0-8.3,0-12.4
		c0.3-0.3,0.8-0.6,1.2-0.6c8.2-0.1,16.3-0.6,24.4,0.1c7,0.6,14,0.6,20.9,0.3c4.3-0.2,8.5,0.3,12.7,0.2c16,1.1,31.9,0.3,47.9,0.2
		c7,0,14,0.4,21-0.8c2.3-0.2,4.6-0.4,6.9,0.1c0.4,0.2,0.6,0.6,0.5,1c-0.9,1-2.2,1.1-3.4,1.4c-8.4,1-16.8,0.8-25.2,1.5
		c-14.3,0.9-28.7,0.5-43,1.9c-5.7,0.6-11.5,0.2-17.3,0.1c-11.3-0.2-22.4,1.5-32,0.7c5.5-0.3,12.6,0.6,19.9-0.5
		c4.1-0.6,8.5-0.1,12.8-0.1c18.9,0.1,37.6-1.5,56.4-2.1c5.7-0.1,11.5-0.1,17.2-0.6c17.9-1.7,35.8-1.4,53.8-1
		c13.5,0.3,27.1,0.9,40.6,1.7c10.1,0.6,20.2,0.1,30.4,0.2c9,0.1,18.2,0.6,27.2,1.1c1.7,0.1,3.5-0.3,5.2-0.3c1.7,0,3.5-0.6,4.5,1.5
		c-3.4,2.2-7.3,2.3-11.1,3.1c-3.5,0.8-7,0.7-10.6,0.9c-14.7,0.8-29.4,0.3-44.1,0.7c-12.2,0.2-24.3-0.4-36.2-3.7
		c-1.4-0.4-2.7-0.4-4.1-0.4c-3,0-6,0-9,0c-13.9,0-27.7-0.2-41.5,2.1c-11,1.8-22.2,1.7-33.4,1.1c-7.5-0.4-15.1-0.1-22.7,0.4
		c-8.4,0.6-16.9,0.1-21.6-0.1c5,0.2,13.8,0.5,22.6,0.1C71.9,649.4,72.7,649.6,73.2,650.3z"/>
	<path fill="#1E83A5" d="M0,561.9c0-1.4,0-2.8,0-4.1c3.4-0.6,6.8-0.6,10.2-0.6c12.3-0.3,24.6,0.6,36.9-0.8
		c6.4-0.7,12.8-0.4,19.1-2.5c0.9-0.3,1.8-0.3,2.7-0.1c-0.8-0.2-1.7-0.2-2.4,0c-9.1,2.7-18.6,2.7-28,3.2c-12.3,0.7-24.6-0.1-36.9,0.5
		c-0.6,0-1.2,0.1-1.7-0.3c0-1.9,0-3.7,0-5.5c2.8-1.5,5.9,0.1,8.8-0.9c0.4-0.1,1,0,1.4-0.1c7.8-2.7,16.1-2,24-3.7
		c4.1-0.9,8.3,0.3,12.3-0.8c14.9-1.4,29.7-2.9,44.6-4.9c5.1-0.7,10.3-0.6,15.5-0.8c3.2-0.2,6.5,0.3,8.3,3.8c0.7,1.2,1.9,1.6,3.2,1.7
		c1.7,0.1,3.5-0.1,5.2,0.1c2.9,0.3,4.8,2.3,5,5.2c0.1,1.6-1,2-2.2,1.9c-6.3-0.3-12.8,0.1-18.7-2.3c-4.1-1.7-8.1-2.2-12.4-2.1
		c-7.5,0.3-14.9,1-22.4,2.1c-0.4,0.3,0.3,0.7,0,0.3c-0.1-0.1-0.1-0.3,0.2-0.3c8.6-1.5,17.2-2.2,26-2.1c0.8,0,1.7,0.1,2.3,0.6
		c3.8,3.7,8.8,2.8,13.4,3.2c4.4,0.4,8.7,0.7,13.1,0.4c1.8-0.1,3,0.8,4.4,1.6c2.1,1.2,4.5,1.8,6.6,2.9c1,0.5,2.6,0.9,2.4,2.1
		c-0.2,1.5-1.9,1.2-3.1,1.3c-11.5-0.3-22.9-0.4-34.1-3.2c-4.4-1.1-8.8-2.8-13.4-1.6c-0.5,0.1,0.3,0.6,0,0.1c-0.1-0.1,0-0.1,0.3-0.2
		c2.8-0.4,5.7-0.6,8.5,0.3c6.4,2.1,12.9,2.8,19.5,3.6c3.7,0.4,7.3,0.6,11,0.6c6.7,0.4,13.4,0.3,20.2,0.3c2.8,0,5.3,1,7.7,2.3
		c0.8,0.4,2,0.9,1.5,2.3c-1.9,1-3.9,0.2-5.7,0.1c-9.7-0.8-19.5-1.4-29.4-1.3c-7.3-0.5-14.6,0.6-22,0.8c-2.5,0.1-4.8-0.3-6.8-1.9
		c-1.5-1.1-3.2-1.7-5-2.1c-10.5-3-21.1-3.6-32-2.1c-7.1,1-14.2,2.1-21.6,2c-11.3-0.1-22.5-0.4-33.6,1.3C1.8,562.3,0.8,562.3,0,561.9
		z"/>
	<path fill="#086582" d="M107.1,642c8.5-1,17.1-0.7,25.6-1.4c5.6-1.6,11.3-0.6,17-1.1c3.9-1,8-0.6,12-0.6
		c14.6-0.3,29.2,0.5,43.8,0.9c13.7,0.4,27.4,0.2,41,0.4c4.4,0.1,8.6,1.1,13.1,0.1c2.9-0.6,5.8-1.3,8.6-2.5c1.6-0.7,1.4-2.1,1.3-3.5
		c-0.1-0.8,0.2-1.1,1-0.8c0.6,1.1,1.7,2.1,1.8,3.2c0.3,3.5,2.3,3.9,5.3,3.9c9.6,0.1,9.7,0.3,10.8,9.8c0.4,3.3,1.1,6.2,5.3,6.6
		c1.5,0.1,3,1.1,4.6,1.5c6.9,1.9,8.2,3.6,7.9,11l0,0c-1.1,0.4-2-0.1-2.9-0.8c-1-1.1-2.3-1.5-3.7-1.6c-4.6,0-9.1-1-13.7-0.8
		c-12.5,0.5-25-0.7-37.5-0.8c-2.1,0-4.7,0.4-5.7-2.5c3.5-1.9,7.3-0.4,10.8-0.8c14.6-0.1,29.1,0,44-0.1c-1.2-0.4-2.2-0.7-3.2-1
		c-6.8-3.2-14-3.1-21.3-2.2c-6.3,0.8-12.6,0.8-18.9,1c-12.2,0.6-24.3,1.2-36.5,0.8c-3.5-0.1-6.8,0.2-10.3,0.7
		c-6.4-0.2-12.8,0.5-19.2-0.3c-19.6-1.5-39.3-0.1-58.9-1c19.6,1,39.3-0.7,58.9,1.2c1.1,0.8,0.6,1.3-0.3,1.7
		c-1.2,0.6-2.5,0.4-3.7,0.4c-16,0-32,0.3-47.9,0.1c-8.3-0.1-16.5-1.1-24.8-0.6c-15.1,1-30.3,0.3-45.5,0.8
		c-6.1,0.1-12.1,1.3-18.2,1.3c-11.7,0-23.4-1.1-35-2.5c-2.6-0.3-5.2-0.3-7.9-0.3c-1.6,0-3.2,0.1-4.6-1.1c0-0.9,0-1.9,0-2.8
		c10.6,0.1,21.1-1.1,31.7-0.8c6.1,0.2,12,1.6,18,2.4C56,661,62,660.8,68,659.7c3.5-0.6,7-1.2,10.6-1.2c43.9,0,87.7,0.3,131.6-0.1
		c10.6-0.1,21.3-0.1,32-0.6c12.6-0.5,25.1-1.3,37.7-2.1c4-0.2,4.3-0.6,3.9-4.8c-0.1-1.7-0.4-3.3-0.6-4.9c-0.4-0.1-0.6-0.3-0.8-0.6
		c-0.8-1-1.9-0.9-2.8-0.7c-4.2,1-8.4,0.1-12.6-0.1c-17-0.8-34-0.3-51-0.8c-11.2-0.3-22.4-0.7-33.6-1.4c-16.6-1-33.3-0.3-49.9-0.4
		c-3.9,0-7.7,0.6-11.7,0.6c-4.3,0.8-8.6,0.1-12.8,0.3C107.4,643,107,642.7,107.1,642z"/>
	<path fill="#1B7F9F" d="M0,595.7c0-3,0-6,0-9c6.2-2.2,12.5-4.1,19.2-2.1c0.4,0.3-0.9,1.4,0.6,1.2c16.2-1.5,32.3,0.7,48.4,1.8
		c0.7,0.1,1.4,0.1,2.1,0.1c24.9,0,49.7,0.3,74.5-0.1c13.5-0.2,26.8-2.2,39.9-5.5c4.6-1.1,9.3-1.1,14,0.7c1.9,0.8,3.8,0.8,5.7,0.2
		c1.5,0.3,1.7,1.5,1.5,2.6c-0.3,1.3-1.5,1.8-2.6,1.9c-3.5,0.1-6.9,0.4-10.3,0.9c-4.8,0.6-9.4,1.2-13.5,4.4
		c-3.1,2.4-7.5,1.9-11.3,2.3c-11,1.1-21.9,2.8-32.9,2.2c-6.8,1.7-13.7,0.2-20.4-0.3c-8.4-0.6-16.7-0.2-25-0.5
		c-25.5-1.9-51-1.4-76.5-1.4c-3.2,0-6.4,0.6-9.6,1C2.3,596.5,1.1,596.6,0,595.7z"/>
	<path fill="#1A7F9E" d="M0,608.1c0-2.1,0-4.1,0-6.2c1.2-1.1,2.8-1,4.2-1c12.3,0,24.5,0,36.7,1.2c6.7,0.7,13.5,0.8,20.2-0.5
		c3.2-0.6,6.3-1.2,9-3.1c2.2-1.5,4.6-1.8,7.3-1.8c4.4-0.1,8.7,0.3,13.1-0.3c6.3-0.1,12.6-0.5,18.9,0.1c5.1,0.5,10.2,0.2,15.3,1.1
		c4.1,0.7,8.2,0,12.4-0.1c2.8-0.1,5.6-0.1,8.4,0c9.4,0.1,18.9,0.1,28.3-0.1c4.4-0.1,8.7-0.6,13.1-0.8c2.3-0.1,4.6-0.9,6.6-2.5
		c3.7-2.7,8.2-2.4,12.6-2.8c1.7-0.1,2.3,1.2,2.8,2.6c0.3,1.8,1.2,3.6,0.2,5.4c-2.7,1.4-5.6,1-8.4,1.2c-8.4,0.7-16.5,2.3-24.7,3.9
		c-2.6,0.5-5.3,1.3-8.2,0.6c-1.3-1-2.8-0.8-4.3-0.8c-11.3-0.2-22.4,0.3-33.6,0.7c-9.5-0.1-19.1,1-28.5,2.1c-3.2-0.3-6.2,0.8-9.4,0.8
		c-0.7,0-1.9-0.3-1,1.1c-0.8,0.7-1.7,0.8-2.6,0.8c-11.3,0.3-22.6,1.9-33.9,1.5c-6.3-0.2-12.5-0.6-18.6-2.3c-4-1-8.2-0.5-12.4-0.5
		c-7.1,0-14.2-0.5-21.3,0.3C1.4,609,0.6,608.7,0,608.1z"/>
	<path fill="#116D8B" d="M15.9,716.6c-3.9,0.5-7.7,1-11.5,1.5c-0.8,0.1-1.8,0.6-1.7,1.5c0.1,1,1.3,1.3,2.1,1.2
		c6.8-1.2,13.9-0.9,20.8-1.8c3.6-0.5,7.3-0.8,10.9-0.8c15.5,0.1,31.2-1.2,46.6,1.9c3.4,0.7,6.7,1.6,9.6,3.5
		c4.7,3.2,10.2,4.8,15.1,7.5c0.6,2.3-0.8,1.7-2.1,1.4c-0.5,0-0.9,0-1.4,0c-4.3-0.8-8.6-0.1-13-0.3c-5.3-0.2-10.7,0.4-16-0.3
		c-9.7,0-19.3-0.3-28.9,0.1c-11.5,0.6-22.9,0.3-34.4,0.8c-4,0.1-7.9,0.5-11.9,0.6c0-6.4,0-12.9,0-19.3c1-0.9,2.3-1.1,3.5-0.9
		c4.4,0.6,8.6,0.8,13,1.4c0.9,0.1,1.9,0.2,2.1,1.3C18,716.9,16.8,716.3,15.9,716.6z"/>
	<path fill="#197D9D" d="M0,614.3c0-0.7,0-1.4,0-2.1c4.1-2.5,8.8-1.4,13.2-1.7c4.8,0.2,9.6-0.5,14.4-1.2c4.9-0.8,9.8,0.1,14.7,0.8
		c12.5,1.5,25,1.2,37.4-0.1c23.2-2.3,46.4-3.5,69.7-3.1c11,0.1,22-1,32.8-3.5c2.1-0.5,4.3-1,6.5-0.7c1,0.5,2.1,0.6,3.3,0.5
		c5.5-0.6,11,0,16.5-0.5c2-0.2,4.8,3,5,5c0.1,1.6-1.1,1.8-2.2,2.1c-2.8,1-5.9,0.8-8.8,1c-7.7,0.6-15.5,1.5-23.3,1.5
		c-3.7,0-7.3,1-11,0.8c-8.2,0.1-16.2,1.1-24.3,1.9c-1.7,0.1-3.5,0.2-5.2,0.2c-21.3,0-42.5,0-63.8,0c-1.7,0-3.5-0.2-5.1,0.4
		c-6.6-0.1-13.2,0.9-19.9,0.6c-4-0.2-8.2,0.2-12.4,0.8c-2.8,0.5-5.7,0.6-8.4-1.2c-1.3-0.8-2.9-0.7-4.4-0.7c-6.9,0-13.8,0-20.7,0
		C2.8,615.3,1.3,615.5,0,614.3z"/>
	<path fill="#2085A7" d="M116,522c0.7,0,1.4-0.1,2.1-0.1c1.3,2.1,3.4,3.6,4.8,5.6c0.7,1,1.8,1.9,1,3.3c-0.3,0.3-0.6,0.4-1,0.5
		c-7.7-4.3-16.1-1.9-24.2-2.5c-1.4,0-2.7,0-4.1,0c-2.3-0.1-4.7-0.1-7,0.6c-1,0.1-2,0.1-3,0.1c-8.4,0.8-16.9,1.3-25.3,2.6
		c-5.4,0.5-10.6,1.9-16,1.7c-0.9-0.1-2.1,0.3-2.4-0.5c2.6,1.7,5.5,0.1,8.4,0.2c4.6-0.5,9.1-1.7,13.8-2.1c9.2-1.2,18.5-1.7,27.7-2.7
		c7.7-0.3,15.5,0.2,23.2-0.3c3.2,0.2,6.1,1.6,8.5,3.3c2.9,2,3,5.5,2.6,8.8c-1.3,0.8-2.6,0.8-3.7-0.5c0.1-0.8-0.1-1.4-0.7-1.8
		c-3.9-2.7-7.7-5.2-12.8-5.3c-9.7-0.1-19.2,1.4-28.8,1.9c-3.2,0.2-6.4,0.5-9.6,0.9c-11.8,0.8-23.5,2.2-35,5
		c-5.6,1.3-11.4,1.4-17,2.3c-1,0.3-1.9,0.3-3,0.3c-1.4-0.1-2.8,0.1-4.1,0.6c-2.3,0.3-4.5,0.2-6.8,0.2c-1.5,0-3-0.1-3.8-1.7
		c0-2.6,0-5,0-7.6c2.8-1.6,5.9-1.7,9-1.7c3.9,0,7.7,0,11.7,0c1.4,0,2.8,0.1,3.9-0.8c1.4-0.6,3-0.8,4.4-0.5c4,0.8,7.9,0,11.8-0.8
		c2.2,0,4-1.8,6.3-1.8c3.7-0.3,7.3-1.1,10.8-1.8c3.1-0.6,6.1-0.1,8.8-0.7c-0.8-0.4-2.3,0.8-3.3-0.4c-0.1-0.4,0.1-0.8,0.5-1
		c0.5-0.3,1.1-0.5,1.7-0.5c7.1,0.4,13.8-1.3,20.7-2.8c9.4-1.9,18.9-0.4,28.5-0.3C115.2,522.1,115.6,522.1,116,522z"/>
	<path fill="#086581" d="M145.8,598.5c-2.8,0-5.5,0-8.3,0c-0.6-0.5-1.2-0.2-1.9-0.3c-1.5-0.4-1.1-1-0.1-1.7
		c14,0.3,27.8-1.6,41.7-3.5c0.7-0.1,1.6-0.1,1.9-0.6c3.2-4.2,8.1-4.1,12.4-4.8c3.7-0.6,7.5-1.2,11.3-0.9c3.1,0.2,3.3-1.2,1.7-3.5
		c-4.8-0.3-9.4-2.2-14.3-1.7c-2.3,0.2-4.6,0.3-6.8,0.6c-14.8,2.6-29.6,3.3-44.6,4.5c-20.9,1.7-41.7,0.8-62.4,1
		c-9,0.1-18.1-1.5-27.1-1.7c-7.8-0.2-15.6-1-23.4-1c-1.9-0.1-3.9,0-5.8-0.2c-0.2-0.1-0.3-0.1-0.6-0.1c-6.6-0.5-12.8,1.6-19.3,2.1
		c0-1.2,0-2.3,0-3.5c9.9-1.5,19.9-2.8,29.6-5.5c4.4-1.2,8.8-1.5,13.3-1.4c3.3-0.7,6.7-0.1,10.1-0.3c0.6,0,1,0.3,1,1
		c-0.5,0-0.9,0-1.4,0c-2,0.9-4.2-0.3-6.2,0.7c-5.4,1.1-11,0.5-16.2,2.3c-0.3,0.1-1.3,0.1-1,0.9c0.1,0.2,0.8,0.1,1.2,0.2
		c5.4,0.7,10.7,0.3,16.1,0.2c4.3-0.1,8.6-0.9,12.9,0.5c23.4,1.9,46.8,1,70.2,1.6c11.2,0.3,22-1.8,33-2.8c8.6-0.8,17.3-2.2,26-2.2
		c4.7,0,4.7,0,4.7-4.6c0-0.6,0-1.2,0.1-1.7c0.4,0.5,1.3,1,1.2,1.5c-0.6,4.1,1.9,3.9,4.8,4.1c5.9,0.3,7.5,2.1,8.4,8.2
		c0.3,1.2,0.7,2.4-0.6,3.4c-5.3,1.6-10.9,0.8-16.4,1.7c-3.5,0.6-7,1.3-9.9,3.5c-1.6,1.2-3.6,1.4-5.6,1.6c-3.3,0.3-6.6,1-9.9,1.4
		C159,597.4,152.4,598,145.8,598.5z"/>
	<path fill="#0E6B88" d="M73.9,742.1c-0.4,0.4-1.2,0.9-1.2,1.2c1.2,5.2-3.4,4.1-5.4,4.1c-11.9,0.3-24,0.5-35.9,0.1
		c-7.4-0.2-14.8,0.7-22.2-0.3c-2.8-0.4-6.1,0.4-9.2,0.4c0-3.7,0-7.4,0-11.1c15.7-0.7,31.4-2.1,47.1-1.2c7.7,0.4,15.5,0.6,23,3.3
		C71.8,739.3,73.6,739.9,73.9,742.1z"/>
	<path fill="#127694" d="M187.9,660.6c6.4,0,12.9,0,19.3,0c3.2,0.9,6.5,0.1,9.8,0.3c6.3,0.3,12.6,0.1,18.9,0.1
		c1.5,0,4.1-0.3,4.1,1.2c0.1,1.9-2.5,1.3-3.9,1.4c-6.9,0.1-13.7,0-20.7,0.1c-16-0.3-31.9,1.2-47.9,0.7c-1,0-2.1,0.1-3,0.4
		c-7.9,1.2-16,0.9-24,1.6c-2.6,0.2-5.2,0.9-7.9,0.8c-3.5-0.1-6.8,0-10.1-1.7c-1-0.6-2.3-0.8-3.7-0.8c-8.2,0-16.2-0.1-24.3,1.3
		c-0.5,0.1-0.9,0.1-1.4,0.1c-12.4-0.5-24.8,0.5-37.2,0.8c-17.8,0.4-35.6,0.8-53,4.4c-1,0.2-2.1,0.4-3-0.3c0-3.2,0-6.4,0-9.7
		c8.7-0.3,17.3,1.2,26,1.9c12.3,0.8,24.7,2.1,37-0.3c2.1-0.4,4.4-0.1,6.6-0.1c10.2,0,20.5,0.3,30.7-0.1c9.2-0.4,18.4-1,27.6-0.5
		c19.1,1.2,38.2,0.1,57.3,0.6c0.9,0,1.8-0.1,2.7-0.1c0.1,0,0.1-0.1,0.1-0.3c0-0.1-0.1-0.2-0.1-0.3
		C187.5,661.5,187.5,661.1,187.9,660.6z"/>
	<path fill="#1E83A5" d="M0,671c15.4-3.2,31-3.9,46.7-4.3c15.5-0.3,30.9-0.8,46.4-1.5c8.4-0.3,16.6-1.4,25-1.2c1,0,2.2-0.1,3,0.3
		c7.7,3.5,15.6,1.5,23.4,1c6.6-0.5,13.3-0.3,19.8-1.2c3.9-0.3,7.9-0.9,11.9,0.3c-0.1,0.4-0.3,0.8-0.8,1c-4.3,1-8.6-0.2-12.9,0.8
		c-2.3,0.6-4.8,0-7.1,0.6c-0.4,0.1-0.8,0.1-1.2,0.1c-4.8,0.1-9.6-0.3-13.1,0.3c5.9-0.5,13-0.1,20.2-0.6c16.4-0.3,32.6,1.2,48.9,1.9
		c6.9,0.3,13.8,0,20.7,0.1c22.3,0.3,44.6-0.5,66.9-0.7c2.1,0,4.1-0.2,6,1.1c0.7,0.2,1.4,0.5,2.1,0.7c0,0.5,0,0.9,0,1.4
		c-7.4,0-14.7,0.1-22.1,0c-22.4-0.2-44.8,1.4-67.3,0.6c-14.6-0.5-29.3-1.2-43.9-2.6c-4.1-0.4-8.3,0-12.4-0.1
		c-9.2-0.3-18.4,0.3-27.6-0.6c-8.4-0.9-16.7,0.6-25,1.2c-1.2,0.1-2.3,0-3.5-0.5c6-1.1,12.2-1.1,18.2-2.5c-1.5-1.2-3.2-1.1-4.9-1.2
		c-14.6-0.2-29.1,1.7-43.7,1.6c-6.5-0.1-13.1,0.1-19.6,0.5c-14,0.8-28.1,0.9-42.1,3.2C8,671.5,4,672.1,0,673.1
		C0,672.4,0,671.7,0,671z"/>
	<path fill="#086581" d="M0,614.3c8.5,0,17,0,25.5,0c1.9,0,3.6,0.1,5.2,1.3c1.9,1.5,4.2,0.8,6.4,0.6c5.3-0.6,10.6-0.8,16-0.7
		c5.6,0.1,11.2-0.7,16.8-0.6c0.8-0.5,1.6-0.3,2.3-0.3c17.9,0,35.8,0,53.7,0c1,0,2.1-0.5,2.8,0.6c-0.6,1.3-1.8,1.2-2.9,1.4
		c-3,0.5-6.1,0.8-9.3,0.7c-11.4-0.1-22.7,0.5-34.1,1.4c-2.6,0.2-5,0.7-7,2.4c-1,0.9-2.3,1.5-3.8,1.5c-9.9,0.8-19.9,1.6-29.8,1.5
		c-0.3,0-0.6-0.2-1-0.3c-5.7,0-11.5,0-17.1,0c6.9,0.3,13.7,1.2,20.6,1.8c-14.7,0.5-29.4-0.1-44.1,1c0-0.9,0-1.9,0-2.8
		c2.7-2.2,5.9-2.2,9.1-2.3c3.2-0.1,6.4,0.1,9.6-0.5c6.9-0.5,13.7-0.3,20.7-0.6c9.3-0.3,18.6-1.2,27.8-1.7c1.6-0.1,3.2,0.1,4.8-0.8
		c-1-0.9-1.9-0.7-2.8-0.6c-13.6,0.9-27.4,1.1-40.9,3c-2.8,0.4-5.7,1.2-8.5,0.2c-0.7-1-0.6-2.2,0.5-2.6c2.3-0.9,4.8-1.7,7.4-0.6
		c-0.6-1.2-1.9-0.7-3-0.7c-6.8-0.1-13.5,0-20.2-0.1c-1.6,0-3.2,0.1-4.6-1C0,615.2,0,614.8,0,614.3z"/>
	<path fill="#2A96BA" d="M0,561.9c5.2-1.7,10.6-1.7,15.9-1.9c7.7-0.4,15.4-0.1,23.1-0.1c7.9,0,15.7-1.6,23.5-2.3
		c11.1-1.1,22-0.5,31.8,4.3c5.2,2.6,10,2,15.1,1.7c4.7-0.2,9.4-0.1,14.1-0.3c-0.2,1.9-1.8,1.5-2.9,1.6c-1.4,0.1-2.8,0-4.1,0.6
		c-7.1,1.9-14.4,1.7-21.7,1.3c-1-0.2-1.9-0.8-2.6-1.6c-4.8-1.5-9.7-2.5-14.7-2.1c-1,0.1-2.1,0.4-3,0.3c-12.2-1.2-23.9,2.6-35.8,3.9
		c-4.7,0.6-9.3,1.7-14,2.3c-7,0.7-14,2.1-20.9,3c-1.4,0.1-2.7,0.5-3.9-0.6c0-0.5,0-0.9,0-1.4c1.7-1.7,3.9-2.1,6.1-2.1
		c6.8,0,13.3-2.3,20-3.3c6.2-1,12.4-1.9,18.6-3c4-0.9,8.1-1,12.1-2c2.8-0.2,5.5-1,8.3-0.7c4.1,0.1,8.3-0.2,12.4,0.1
		c-4-0.2-7.9-0.1-11.9-0.2c-0.6,0-1.2,0-1.7,0c-1.3,0-2.6-0.1-3.9,0.3c-1.7,0.3-3.5,0.3-5.2,0.8c-7.7,1.3-15.5,1.8-23.3,2.1
		c-6.8,0.3-13.7,0.9-20.5,1.7c-3.6,0.4-7.3,0.7-10.8-0.1C0,563.7,0,562.8,0,561.9z"/>
	<path fill="#2085A7" d="M189.3,603.4c-8.1,1.4-16.1,3.2-24.3,4c-3.9,0.3-7.7,0.8-11.6,0.8c-12.2,0.1-24.4,0.3-36.5-0.1
		c-6.7-0.2-13.3,1-19.8,1.7c-4.6,0.6-9.1,0.5-13.7,1c-12.6,1.4-25.2,1.3-37.9,0.7c-5.8-0.3-11.6-1.7-17.4-1.1c-5,0.6-9.9,1.5-15,1.2
		c-2.4-1-5.1,0.3-7.5-1.2c6.2-1.7,12.6-0.2,18.4-1.2c-0.9-0.6-2.4,0.3-3.9,0.3c-5.5,0.1-11.1-0.3-16.5,0.3c-1.2,0.1-2.6-0.1-3.5-1
		c0-0.2,0-0.5,0-0.7c11.4-1.5,22.9-0.6,34.3-0.6c4.1,0,8,1.9,12.2,2.2c8.4,0.5,16.6,0.6,25-0.1c5.3-0.4,10.7-0.6,16.1-1
		c1.2-0.1,2.6,0.4,3.6-0.7c3.2-1,6.5-1.2,9.7-1.4c1.5-0.1,3,0.1,4.4-0.6c15.6-1.5,31.3-1.6,47-1.8c2.1,0,4.4,0.2,6.5-0.3
		c3,0.1,6.1-0.8,9,0.6c7.3-0.4,14.3-2.6,21.5-3.7c6.6-1,13.3-1.9,20-1.9c1,1.5,0.8,2.1-0.8,3c-1.8,1-3.8,0.8-5.7,0.8
		C198.3,603.2,193.8,603.9,189.3,603.4z"/>
	<path fill="#106B88" d="M994.7,751.1c-7.3-0.2-14.6,1.4-21.8-0.8c-5.9-1.8-12.8-0.8-17.8-6.3c-1.7-1.9-5-2.2-7.7-1.7
		c-8.6,1.5-17.3,1-26,1.2c-4.8,0.1-9.3-1.3-13.8-2.2c-3.5-0.7-5.9-2.5-6.2-6.2c11.1-0.1,22,1.2,32.9,1.9c8.4,0.5,16.4,2.1,24.3,4.6
		c3.2,1,6.6,1.9,8.7,4.6c3.2,3.9,7.7,4.1,12.1,4.4c5,0.3,10.1-0.2,15.1-0.8C994.7,750.2,994.7,750.6,994.7,751.1z"/>
	<path fill="#1F84A6" d="M0,532.2c0-1.9,0-3.7,0-5.5c1.2-1.1,2.8-1,4.2-1c5.7,0,11.5,0.2,17.2-0.1c9.3-0.5,18.7-0.2,28-1.9
		c3.2-0.3,6.8,0.4,9.5-2.3c3.1-1.6,6.6-1.4,9.8-2.1c2.3,0.3,4.7,0.2,7.1-0.2c2.3-0.4,4.8-0.8,7,0.5c0.1,2.6-2.4,0.3-3,1.6
		c1-0.6,2-0.3,3,0c-0.2,1.5-1.2,1.5-2,1.8c-4.4,1.7-9,2.3-13.7,2.3c-1.4,0-2.8-0.2-4,0.5c-8.8,0.6-17.1,4.3-25.8,5
		c-2.3,0.3-4.7,0.2-6.8,1.3c-9.6,0.6-19.3,0-28.9,0.6C1,532.8,0.5,532.5,0,532.2z"/>
	<path fill="#1A7F9E" d="M0,599.8c0-0.9,0-1.9,0-2.8c4.9-1.9,10.2-1.9,15.3-2c15-0.3,29.9-0.1,44.9-0.1c2.6,0,5.2,0.4,7.9,0.4
		c1.1,0,2.6-0.1,2.9,1.2c0.3,1.5-1.2,2.1-2.3,2.6c-4.5,2-9.3,2.8-14.1,3c-9.5,0.5-19.1-0.5-28.6-1.1c-7.1-0.5-14.2-0.1-21.4-0.3
		C3,600.8,1.3,601.1,0,599.8z"/>
	<path fill="#0B6682" d="M0,599.8c4.4,0,8.8,0.1,13.1,0c13.7-0.2,27.5,2,41.2,1.4c4.8-0.2,9.3-1.2,13.7-2.8c1-0.3,1.8-0.9,2.6-2.1
		c-23.8-0.8-47.2-1.6-70.7,0.7c0-0.5,0-0.9,0-1.4c21.6-2.7,43.2-1.3,64.7-1.2c8.3,0.1,16.7-0.2,25.1,1.2c0.3,0.4,1.1,0.6,0.7,1.4
		c-3.9,1.5-7.9,0.6-11.9,0.6c-3.3,0-6.1,0.7-9,2.4c-4.1,2.5-9.1,3-13.9,3.1c-18.6,0.1-37-2.2-55.6-1.3C0,601.2,0,600.5,0,599.8z"/>
	<path fill="#106F8C" d="M0,709.7c11.3-3,22.7-3.2,34.3-2.6c4.7,0.2,8.4,3.3,12,6.1c-0.3,1.8-1.8,1.6-2.9,1.7
		c-10.2,0.9-20.3,1-30.4-1c-2.8-0.6-5.7-0.6-8.5-1c-1.6-0.3-3.2-0.5-4.4-1.7C0,710.6,0,710.2,0,709.7z"/>
	<path fill="#0C6784" d="M46.4,546.7c-0.9,1-2.1,0.7-3.2,0.6c-5.8-0.6-11.3,1.5-17,1.5c-7,0-13.5,2.8-20.4,3.3
		c-1.9,0.1-3.8-0.3-5.7-0.6c0-0.7,0-1.4,0-2.1c0.9-0.8,2.1-1,3.2-1c7.1,0.6,13.9-1.6,19.4-2.6c-1.7,0.6-4.9,0.7-8.1,1
		c-3.7,0.3-7.5,0-11.3,0.7c-1.1,0.1-2.3-0.1-3.2-1c0-0.5,0-0.9,0-1.4c2.2-1.7,4.8-1,7.3-1.2c2.6-0.3,5.2-0.5,7.8-0.8
		c8.8-0.8,17.5-2.1,26.2-3.7c1.5,0,3.2-0.4,4.4,1.1c0,1-0.8,1.4-1.5,1.7c-4.4,1.5-8.8,2.8-12.7,3.7c2.8-0.1,6.1-1.5,9.5-1.2
		C42.5,546.4,44.9,545.2,46.4,546.7z"/>
	<path fill="#116683" d="M68.5,519.8c-3.2,0.7-6.5,1.4-9.7,2.1c-4.6,1.9-9.5,1.6-14.3,2.3c-1.5,0.1-2.8,0.4-4.3,0.6
		c-11.9-0.3-23.7,1.2-35.6,0.8c-1.6-0.1-3.2,0.2-4.6-1c0-0.9,0-1.9,0-2.8c13.5-0.6,27-0.3,40.5-0.6c8.8-0.2,17.5-1.5,26.3-2.2
		c0.9-0.3,1.8-0.7,2.3,0.5C69.1,519.9,68.8,520,68.5,519.8z"/>
	<path fill="#197B9B" d="M18.7,621.9c-0.9,0.5-1.9,0.8-3,0.7c-5.3-0.3-10.5,0.1-15.7,1.4c0-2.8,0-5.5,0-8.3c8.4,0,16.8,0,25.2,0
		c1.5,0,3.2-0.3,4.1,1.8c-2.6,0.3-4.9,0.7-7.3,0.9c-1.5,0.1-2.1,0.6-2,2.1C20.5,621.9,19,621.3,18.7,621.9z"/>
	<path fill="#0A6783" d="M0,711.1c7.7,1.3,15.5,1.7,23.3,3.2c4.7,0.9,9.7,0.8,14.3-0.1c2.9-0.6,5.9,0.7,8.6-1c3,1.7,6.2,2,9.7,2.1
		c-0.3,0.3-0.3,0.6-0.4,0.6c-11.8-0.1-23.6,0.2-35.3,1.5c-1.5,0.1-3,0.2-4.4-0.7c0.4-0.8,1.5-0.5,2.3-1.2c-6.2-0.6-12.2-1-18.2-1.5
		C0,712.9,0,711.9,0,711.1z"/>
	<path fill="#1E82A3" d="M44.9,563.2c-3.9,1.4-8,1-12,1.9c-6.4,1.5-12.9,2.6-19.4,3.8c-4.5,0.8-9,0.8-13.5,1.9c0-1.6,0-3.2,0-4.8
		c1.2-0.8,2.6-1,3.9-1c10.1-0.3,20.1-1.7,30.1-2.3C37.7,562.5,41.4,561.8,44.9,563.2z"/>
	<path fill="#0E6783" d="M0,557c11.7-1.5,23.4-0.1,35.2-0.8c10.4-0.7,20.9-0.5,31-3.2c1-0.3,2-0.4,3.4,0.3
		c-4.1,1.6-8.2,2.5-12.2,2.9c-14,1.5-28.2,1.9-42.3,1.4c-5-0.1-10,1.7-15.1,0.1C0,557.5,0,557.2,0,557z"/>
	<path fill="#0D6986" d="M44.9,563.2c-11.7,0.1-23.3,1.5-34.9,2.6c-3.3,0.3-6.6,0.1-10,0.1c0-0.5,0-0.9,0-1.4
		c8.3-0.7,16.6-1.3,24.9-2.1c10.1-1,20.3-0.8,30.4-2.1c0.8-0.3,1.5-0.6,1.4,0.8C52.7,561.9,48.8,562.5,44.9,563.2z"/>
	<path fill="#0C6B88" d="M59.4,639.9c-19.8,0.6-39.6-1-59.4-0.7c0-0.5,0-0.9,0-1.4c6.4,0,12.8,0,19.3,0c7.9,0,15.8,1.6,23.6,0.6
		c6.6-0.8,13,0.1,19.5,0.1c1.1,0,2.3-0.3,3.2,0.7C63.6,640.3,61.4,638.9,59.4,639.9z"/>
	<path fill="#1C83A4" d="M0,651.6c12.3-0.2,24.5,1,36.7,0.8c9.2-0.1,18.3-1.3,27.5-0.7c0.8,0.1,2.7-1.1,2.1,1.3
		c-22.1,0-44.2,1.6-66.3,0C0,652.5,0,652.1,0,651.6z"/>
	<path fill="#0D6985" d="M40.8,523.9c1.1-0.7,2.3-0.8,3.5-0.7c1.4,0.6,2.8,0.3,4.3,0.2c0.9-0.1,1.9-0.2,1.9,1.2
		c-16.7,2.5-33.6,2.1-50.4,2.1c0-0.5,0-0.9,0-1.4c1.2-0.6,2.5-0.3,3.7-0.3c11.9,0.4,23.8-0.9,35.7-0.7
		C39.9,524.2,40.3,524.1,40.8,523.9z"/>
	<path fill="#1C81A2" d="M0,546.7c8.2-0.6,16.4-1,24.7-1.6c-7.8,3.9-16.2,4.7-24.7,4.4C0,548.5,0,547.6,0,546.7z"/>
	<path fill="#2893B7" d="M0,532.2c10.4-1.5,20.8-0.3,31.2-0.8c2.2-1.2,4.8-0.2,7-1.2c1.3,0.3,3.6-1,3.3,2
		c-5.5,1.5-11.1,0.6-16.6,0.8c-1.2,1-2.6,0.6-3.9,0.6c-5.6,0.1-11.2-0.3-16.8,0.3c-1.3,0.6-2.7,0.5-4.1,0.4C0,533.5,0,532.8,0,532.2
		z"/>
	<path fill="#1C80A1" d="M0,608.8c8.2,0,16.4,0,24.7,0c-6,2.2-12.3,0.9-18.8,1.6c2.6,1.2,5.2-0.5,7.3,1.2c-4.4-0.3-8.8,0.5-13.1,0.7
		C0,611.1,0,610,0,608.8z"/>
	<path fill="#1D80A2" d="M0,572.2c6.8-1,13.7-1.5,20.5-3c1.5-0.3,2.9-0.3,4.4-0.3c-2,3.5-5.6,3.2-8.8,3.7c-1.2,0-2.6,0-3.8,0.5
		c-2,0.5-4,0.8-6.1,0.7c-2.1-0.4-4.1,0.9-6.1,0C0,573.1,0,572.7,0,572.2z"/>
	<path fill="#147796" d="M40.8,523.9c-0.7,0.9-1.7,0.6-2.6,0.7c-12.7,0.6-25.4,0.9-38.2,0.7c0-0.2,0-0.5,0-0.7
		C13.6,525,27.2,523.5,40.8,523.9z"/>
	<path fill="#268FB2" d="M15.2,543.9c-5,1-10.1,1.2-15.2,1.4c0-0.9,0-1.9,0-2.8c3.6,1.5,7.4,0.3,11.1,0.7c1-0.8,2.4,0.1,3.5-0.7
		c0.9,0,1.9,0,2.8,0c0.6-0.4,1.1-0.4,1.4,0.2c0.2,0.5-0.3,0.7-0.8,0.8C16.9,543.7,16,543.3,15.2,543.9z"/>
	<path fill="#0F6885" d="M11.8,760.1c-3.9,0.8-7.8,0.8-11.7,0.7c0-0.5,0-0.9,0-1.4c3.1,0.8,6.1,0.9,9.3,0.1
		C10.1,759.3,11.1,759.2,11.8,760.1z"/>
	<path fill="#106F8C" d="M0,534.2c1-0.6,2.2-0.8,3.4-0.8c1.9,0,3.9-1.4,5.5,0.7c-3,0.2-5.9,0.5-9,0.7C0,534.7,0,534.4,0,534.2z"/>
	<path fill="#0F6D8B" d="M0,573.6c2.1-0.2,4.1-0.5,6.2-0.7c0.3,0.6,1.8,0.1,1.4,1.4c-2.6,0-5,0-7.6,0C0,574.1,0,573.8,0,573.6z"/>
	<path fill="#116D8A" d="M507,728.3c-5.6,1.9-11.5,2.5-17.3,3.3c-17.9,2.6-36,3.2-54.1,2.9c-0.6,0-1.1,0-1.7-0.2
		c6.1-1.9,12.8-2.1,18.6-5.4c-4.8,0.8-9.6,1.7-14.4,2.4c-9.3,1.5-18.4,3.2-27.8,3.9c-11.1,0.8-22.3,0.4-33.4,0.6
		c-11.4,0.1-22.8-0.3-34.1-0.2c-5.3,0.1-10.7-0.1-16-0.4c-7-0.5-13.7-1.9-20.7-3c-3-0.5-6.1-0.9-9.2-1c-17.7-1-35.4-0.3-53-0.9
		c-8.5-0.3-16.9-2.3-25.4-3.6c-0.9-0.1-1.8-0.4-2.7-0.4c-11.3-0.1-22.7-1.1-34.1-0.7c-1.5-0.9-3.3,0.2-4.8-0.7c-0.9,0-1.9,0-2.8,0
		c-1.7-1-3.8,0.2-5.5-0.7c-1.2,0-2.3,0-3.5,0c-2-1-4.2,0.2-6.2-0.7c-4.4,0-8.8,0-13.1,0c-1,0.8-2.4-0.1-3.5,0.7
		c-0.5,1.5,0.8,1.3,1.5,1.4c1.8,0.1,3.6,0.1,5.4,0.1c3.5,0.8,7,0.1,10.5,0.3c1.3,0.1,2.7-0.3,4,0.3c0.7,0,1.4,0,2.1,0
		c1,0.8,2.3-0.1,3.7,0.9c-1.6,2.4-4.1,2.6-6.5,2.6c-15.4-0.3-30.7-1-46.1-0.1c-2.7,0.1-5.2-0.6-7.7-1.2c-5.9-2.1-11.7-4.3-16.6-8.3
		c1.4-1.9,3.5-1.5,5.4-1.5c10.3,0,20.7,0.3,30.9,0c9.6-0.3,19.2,0.1,28.9,0c9.7-0.1,19.5-0.6,29.1-0.2c12.1,0.5,24.2,0.2,36.3,0.1
		c10.3-0.1,20.6,0.3,30.9-0.2c8.3-0.4,16.7-0.1,25.1,0c10.6,0.2,21.3-0.1,32,0.1c9.2,0.2,18.3-0.1,27.5-0.1
		c8.8,0.1,17.6,0.1,26.5,0.1c9,0,18.2-0.2,27.2,0.1c8.7,0.3,17.5-0.2,26.2-0.3c3.6,0,7.1,0.3,10.7,0.5c1.4,0.1,2.8,0.2,3.9-0.7
		c4.5-0.2,8.8,1,13.2,1.6c2.2,0.3,4.3,1.3,6.4-0.8c0.8-0.8,1.9,0.3,2.6,1c0.8,0.8,1.7,1.3,2.8,0.8c0.5-0.2,0.7-0.6,0.5-1.1
		c-0.5-1.1-1.6-0.6-2.4-0.8c-0.3-0.1-0.6-0.3-0.8-0.6c8.3,0.2,16.3,2.3,24.5,3c1,0.1,2.1,0.1,3,0.2c1.5,2.9-0.7,3.6-2.6,3.8
		c-5.5,0.8-11.1,2.1-16.6,2.6c-0.7,0.1-1.4-0.1-1.8,0.2c3.7,0.1,7.6-1.2,11.5-1.2c4.8,0.1,9.7-0.1,12.8-4.8c1.5,3.5,4.6,3.9,7.9,4
		c3.1,0.1,6.1,0.3,9.3,0.3C504.9,726.3,506.4,726.4,507,728.3z"/>
	<path fill="#0E6B88" d="M650,742.8c0-0.5,0-0.9,0-1.4c4.1,1.4,8.2,2.8,12.7,2.6c1.7-0.1,2.8-0.2,3.1-2.3c0.6-3.5,3-5.5,6.3-5.9
		c5.4-0.6,10.6-1.9,15.9-3c2.7-0.5,5.4-0.3,7.7,1.2c2.3,1.6,4.8,1.5,7.3,0.8c2.7-0.6,5.4-0.9,8.2-1.2c11.5-1.1,22.9,0.8,34.4,0
		c18.1-1.4,36.3-1.5,54.4-1.3c-0.9,1-2.1,0.6-3.2,0.6c-6.1,0-12.2,0.1-18.3,0c-14.7-0.3-29.3,2.1-44,1.4c-2.1-0.1-3.8,1.1-4,3
		c-0.2,1.7,1.4,2.8,3.1,3.2c1.6,0.3,3.1,0.8,4.8,0.8c7.8-0.5,15.6,0.6,23.4,0.7c1.6,0,3.2,0.1,1.3,2.1c-1.3,1.4-1,3.2-1.7,4.8
		c-2.3,2.7-5.5,2-8.3,2.1c-7.1,0.1-14.3-0.3-21.3-0.1c-6.8,0.1-13.5-0.2-20.3,0.1c-10.8,0.5-21.6,0.3-32.4-0.1
		c-13.9-0.6-27.8-0.3-41.8,0.1c-10.8,0.3-21.6-0.6-32.4-0.2c-9,0.3-17.9,0.7-26.9,0.4c-10.7-0.3-21.3-0.3-32-0.3
		c-12.8,0.1-25.8-0.3-38.6,0.1c-7.5,0.3-15.1,0.5-22.7-0.2c-8.3-0.7-16.6,0.1-24.8-0.3c-2.3-0.1-4.6,0.3-6.9-0.1
		c-0.8-0.1-1.7-0.3-1.9-1.3c-0.2-1.2,0.8-1.5,1.7-1.7c4-0.4,8.1-0.1,12.1-0.2c3.9,0,7.9,0.5,11.9-0.3c2.1-0.3,4.2-0.3,6.3-0.3
		c4.8-0.1,9.6,0.5,14.4-0.4c2.3-0.4,4.6-0.3,6.9-0.3c3.2,0,6.5,0.4,9.7-0.3c1.8-0.3,3.6-0.3,5.5-0.3c2.1,0.1,4.3,0.3,6.4-0.3
		c1.5-0.3,3.1-0.3,4.7-0.3c1.5,0.1,3.1,0.1,4.6-0.4c2.1-0.4,4.4-0.3,6.5-0.3c2.5,0,5,0.3,7.4-0.3c1.7-0.3,3.2-0.6,4.8-1.3
		c9.7-0.8,19.3,0.6,29,0.2c1.6-0.1,3.2,0.1,4.4-1.4c4-0.8,7.8,0.6,11.7,1c2.4,0.3,4.7,0.7,7-0.1c6.8-1.4,13.7-1,20.5-0.7
		c1.6,0.1,3.2,0.1,4.8,0.1c1.2-0.3,2.5,0.8,3.8,0c2.6,0.5,4.9,1.7,7.6,1.4c-1.2,2.7-3.8,1.8-5.7,1.8c-4,0-8,0.1-12-0.1
		c0.8,0.1,1.6,0,2.3,0.1c8.4,0.4,16.6-0.3,24.3-0.6c1.1,0.1,0.8-0.4,0.8,0c0,0.1-0.1,0.1-0.3,0.1C651,744.1,650,744.2,650,742.8z"/>
	<path fill="#116D8B" d="M507,728.3c-3-2.3-6.6-1-9.8-1.2c-2.9-0.1-5.7-0.9-8.7-0.4c-2.6,0.3-1.2-3.1-2.2-4.6c1.7-2.8,4.7-3,7-3.5
		c0.8-0.2,0.1-0.8,0.3-0.4c0.5,0.8-4.1,0.7-6.1-0.2c1.4-1.1,3.1-0.7,4.6-0.8c17.3-0.2,34.5-0.4,51.7-0.6c22.7-0.1,45.2,2.6,67.8,2
		c2.1-0.1,4.1,0.6,5.8,1.8c8.2,5.6,16.3,11.1,24.5,16.6c1.5,1,3.1,1.9,4.7,2.8c-9.6-0.5-18.5-4.1-27.6-6.4
		c-4.6-1.2-9.2-1.6-13.9-1.9c-15.6-0.8-31.3-1.4-46.8-4c-3.6-0.6-7.3-0.8-10.9-0.8C534,726.9,520.5,726.4,507,728.3z"/>
	<path fill="#0B6582" d="M46.4,546.7c-1.5,0-2.8,0-4.3,0c-1.1,0-0.8-0.8-0.6-1.4c1.2-2.1,3.5-1.9,5.5-2.2c7-1.1,14.2-1.3,21.3-2.2
		c9.1-1.2,18.2-2.3,27.4-3.2c5.7-0.6,11.5-0.3,17.3-0.3c2,0,3.5,1,4.6,2.6c1,1.5,2.1,2.8,4.2,2.8c-1-1.2-3.3-1.7-2.1-3.9
		c0.9-0.4,1.5-0.1,1.9,0.8c1,1.1,2.3,0.6,3.5,0.6c2.3,0.9,1.2,3.4,2.1,4.9c1.1,5.9,4.7,8.8,10.6,10.6c10.3,3.1,20.8,5.5,31.2,8.4
		c3.6,1,7.5,1.3,11.1,1.5c4.6,0.2,8.2,2.8,12.2,4.3c0.7,0.3,1.6,1,1.4,2.1c-1.5-0.4-2.9-0.9-4.4-1.3c-5.7,0.8-10.9-1.2-16-3.2
		c-3.3-1.1-6.6-2.6-10.1-0.8c-0.9,0-1.7-0.1-2.6-0.3c-0.7-0.2-1.3-0.6-1.7-1.2c-3.2-2.2-6.6-3.5-10.5-3.5
		c-6.4,0.1-12.8,0.1-19.2-0.7c0-1.6,1.2-0.9,2-1c2.1-0.3,4.2,0.3,6.3-0.3c0.9,0,1.8,0,2.7,0c-5.9-2.6-10.9-7.5-18.2-6.4
		c-5.5,0.8-11-0.5-16.5-0.6c-1.1,0-2.4-0.1-2.8-1c-1.8-3.2-4.8-2.4-7.6-2.5c-6.6-0.2-13.1,0.3-19.5,1.3c-1.4,0.2-2.9,0-4.4-0.2
		c4.9-1.5,10.1-1.9,15.1-2.4c2.3-0.3,4.8-0.6,7.2-0.6c4.6-0.1,9-0.7,13.6,1.9c5.2,2.8,11.5,1.7,17.1,2.8c1,0.2,3.2,0.8,3-0.8
		c-0.2-1.7-0.2-4.5-3.2-4.6c-2.3-0.1-4.6,0-6.9,0c-1.2,0-2.7,0.1-3-1.1c-1.5-5-5.5-4.5-9.2-4.4c-10.4,0.4-20.8,1.5-31.1,2.8
		C64.8,545.3,55.6,546.2,46.4,546.7z"/>
	<path fill="#0B6682" d="M189.3,603.4c5.8-0.5,11.6-0.9,17.4-1.5c1.2-0.1,3.5,0,2.6-2.6c-1-1.5-0.7-3.2-0.7-4.8
		c-0.4-0.8-0.6-1.5,0.7-1.4c1,3.2,2.5,6.4,3.2,9.7c0.7,3,2.5,4.5,6,5c7.5,1,15.1,1.3,22.6,1.6c5.6,0.3,11,2.1,16.4,3.2
		c0.1,0.5,0.1,0.8-0.4,1c-3.7,1.1-7.5,0.4-11.3,0.6c-2.5,0.1-4.8,0.3-6.6,2.2c-1.7,1.8-4.1,1.9-6.4,1.9c-7.8,0.3-15.5,1.4-23.2,2.5
		c-8.5,1.2-16.9,2.2-25.6,1.7c-8.4-0.5-16.7-0.1-25.1-0.1c-4.8-0.4-9.8,0.7-14.9-0.8c0.8-1.7,2.1-1.7,3.2-1.8
		c9.4-0.6,18.8-2.3,28.2-1.4c17.2,1.7,33.9-1.8,50.8-3.8c2.6-0.3,5.2-0.3,8.1-0.6c-5.5-2.5-14.9-3.2-21.8-2.1
		c-9.2,1.5-18.5,2-27.8,2.2c-4.2-0.1-8.5,0.1-12.7-0.1c-1.3-0.1-3.1,0.6-3.6-1.6c12.2-1,24.4-1.2,36.5-2.7c2.1-0.3,4.3,0,6.5-0.6
		c1.9-0.5,1.7-1.1,0.8-2.2c-1.5-1.9-2.5-3.7-5.9-3c-5.3,1.1-10.9-0.3-16.4,0.8C188.9,604.9,189,604.1,189.3,603.4z"/>
	<path fill="#0C6784" d="M270.3,633.6c-0.3,0.3-0.6,0.6-1,0.8c-1.7-3.2-5-2.4-7.4-1.9c-5,1-9.9,0.3-14.7-0.3
		c-5.2-0.6-10.4-1.5-15.7-1.3c-1,0-2.1,0-3-1c5.5-2.3,11.1-0.9,16.4-0.1c6.6,1,13.3,1,19.9,1c1.9,0,2.3-0.5,1.7-2.6
		c-1.2-3.5-3.3-4.4-6.7-3.2c-1,0.4-2.3,0.1-3.5,0.1c-15.5,0-31.1,0.1-46.6,0c-11.4-0.1-22.7,1-34.1,0.8c-6.6-0.1-12.9-1.1-19.4-1.9
		c4.5-0.1,9-0.1,13.5,0.2c7.3,0.6,14.8,0.7,22.1,0c7.8-0.7,15.6-0.5,23.4-0.4c9.2,0.1,18.3-1.2,27.4-1.5c0.4,0,0.8-0.4,1.2-0.6
		c0.9-1,2.1-0.9,3.2-1c2.3,0.3,5-0.7,7.5,1.5c-3.2,1.7-6.5,1.6-9.7,1.7c6-0.1,12-1.3,18-1.5c-1.2-0.4-2.5,0.1-3.7,0.1
		c-1.4,0.1-2.8,0.5-3.7-1c1.1-1.9,3.3-1.5,5-2.3c1.1-0.4,3,0,2.5-2.2c0-0.3,0.1-0.6,0.3-0.8c0.3-0.1,0.6-0.1,0.9,0.1
		c1.7,0.8,2.5,2.1,2.6,3.8C267,624.8,268.3,629.3,270.3,633.6z"/>
	<path fill="#1B7C9B" d="M264.1,616.3c-0.3,0.1-0.6,0.1-0.9,0.1c-3.3,2.8-7.1,3.7-11.5,3.9c-12.3,0.7-24.6,0.6-36.9,0.6
		c-1.7,0-3.5,0.3-4.9-1c4.8-1.6,9.9-1,14.8-2c3.4-0.7,6.8-0.8,10.2-0.7c1.6,0.1,3.1-0.4,3.9-1.7c1.4-2.2,3.4-2.4,5.7-2.4
		c4.4,0.1,8.7,0,13.1,0c1.7,0.7,2.7,2.6,4.8,2.3C263.2,615.3,263.7,615.7,264.1,616.3z"/>
	<path fill="#096683" d="M62.9,525.2c2.8-1.5,5.9-0.7,8.8-1.2c3.7-0.6,7.1-1.7,11.5-2.8c-1.9-0.2-2.8-0.3-4.1-0.4
		c1.4-0.9,2.9,0.1,3.8-1.2c2.6-1.6,5.5-1.5,8.3-1.7c3.5,0.1,7-0.2,10.4,0.1c1.7,2.4,4.1,3.1,7,2.8c2.4-0.3,5-0.1,7.3,1
		c-1.4,1-2.9,0.5-4.4,0.6c-12,0.1-24-0.6-35.8,3.2c-3.8,1.2-8.2,0.3-12.4,0.3C62.9,526.1,62.7,525.9,62.9,525.2z"/>
	<path fill="#0F6885" d="M209.3,592.9c-0.6,0.3-0.7,0.8-0.7,1.4c-0.7-2.3-2.6-2.4-4.4-2c-4.2,1-8.8,0.6-12.4,4.2
		c-1.1,1.1-3.7,1-5.6,1.2c-13.5,0.9-27,0.8-40.5,0.8c6.7-0.8,13.3-2.3,20-2.1c1.7,1,3.4,0.1,5-0.1c5.8-0.6,11.7-0.8,17.4-1.9
		c1-0.2,2.1-0.3,3-0.8c3.9-2.6,8.4-3,12.8-3.7c1.1-0.2,2.3-0.2,3.2-1c1.1-0.8,0.6-1.9,0.8-2.9C209,588.1,209.3,590.5,209.3,592.9z"
		/>
	<path fill="#0B6582" d="M487.6,718c2.3,0,4.6,0,6.8,0c0.1,0.1,0.1,0.3,0.2,0.5c-2.8,1.2-5.5,2.4-8.4,3.7c-1.1,3.7-3.9,5.3-7.5,5.3
		c-6.3-0.1-12.5,1.5-18.8,0.6c6.7-1.7,13.5-2.9,20.3-3.8c1.9-0.3,2.6-1.2,2.4-3C484,719.7,485.5,718.4,487.6,718z"/>
	<path fill="#176B88" d="M127.1,545.3c-1.3-1.4-0.6-3.6-2.1-4.9c-0.3-6.5-2.5-8.8-10.3-11c-4.4-0.8-8.8-0.1-13.2-0.4
		c-0.9-0.1-2.4,0.9-2.7-1c6,0,12,0,18-0.1c2.7,0,4.4,2.2,6.8,2.8c2.1,0.1,0.3,2.2,1.5,2.8C125.8,537.5,126.5,541.3,127.1,545.3z"/>
	<path fill="#176B88" d="M123.7,530.1c-0.6-2.5-3-3.6-4.5-5.4c-0.6-0.8-2-1.3-1.2-2.8c3.9,0.2,4.6,3.9,6.3,6.3
		C124.6,529,125.2,529.9,123.7,530.1z"/>
	<path fill="#477E99" d="M101.7,518.2c-3.4,1.6-7,0.5-10.5,0.8c-0.8-2.3,1.1-1.9,2.3-2.1c1.3-0.2,2.6,0.6,3.9,0.4c0,0,0-0.2,0-0.3
		c0-0.1-0.1-0.2-0.1-0.3c0-0.8,0.6-1,1.2-1.1c0.1,0,0.3-0.1,0.4-0.1C99.8,516.4,100.7,517.3,101.7,518.2z"/>
	<path fill="#34728D" d="M262.4,615.2c-2.6,1.5-3.6-0.8-4.8-2.3c0-0.2,0-0.3,0-0.6C259.6,612.8,260.8,614.3,262.4,615.2z"/>
	<path fill="#65869F" d="M93.3,514.8c1.8,0.1,3.7,0.1,5.5,0.2c0.1,0.1,0.1,0.3,0.1,0.5c-0.1,0.1-0.1,0.2-0.2,0.3
		c-2.3,0.3-4.6,1.7-6.8-0.3C92.3,515.3,92.8,515,93.3,514.8z"/>
	<path fill="#276C88" d="M123.7,530.1c0.7-0.5,0.6-1.2,0.6-1.9c1.2,1.7,0.8,3.5,0.8,5.3c-1.2-0.5-0.3-2.2-1.5-2.8
		C123.7,530.6,123.7,530.3,123.7,530.1z"/>
	<path fill="#0D6986" d="M452.4,748.3c-0.6,0.2-1.7,0.3-0.6,1.2c0.6,0.4,1.6,0.3,2.3,0.2c8.4-0.8,16.9,0.6,25.3-0.4
		c3.8-0.4,7.7,1.2,11.8,0.7c6.2-0.8,12.6,0.2,18.9-0.1c8.6-0.3,17.2,0.1,25.8,0.1c6.2-0.1,12.4,0.6,18.6-0.1c4.7-0.5,9.5,0.1,14.2,0
		c5.2-0.1,10.6-0.1,15.7,0.1c12.1,0.4,24.2-0.9,36.3,0.1c4.6,0.3,9.4,0.5,14.2-0.1c6.8-0.8,13.9-0.2,20.9-0.1c8.4,0,16.7,0,25.1,0.1
		c5.5,0.1,11,0.6,16.4,0.4c2.8-0.1,5.7-0.3,8.4-0.2c6.1,0.1,12.1-1.1,18.1-0.1c4.1,0.6,8.1-0.6,12.2,0.1c3.8,0.6,7.8,0.3,11.7,0.1
		c4.5-0.2,9,0.3,13.4-1.2c3.1,5,8.1,3.5,12.4,3.2c2.5-0.1,4.9-0.6,7.5,0.1c1,0.3,2.3,0.4,3.4,0.1c4.4-1.5,7.4,0.8,10.4,3.6
		c-1.7,1.2-3.1,0.3-4.5,0.3c-9.5-0.5-19,0.4-28.5,0c-5.5-0.3-11.1,0.4-16.6-0.3c-2.1-0.3-4.6,0.4-7,0.3c-12.5-0.1-25-0.1-37.5,0.1
		c-10.1,0.2-20.2-0.3-30.3-0.3c-8.6,0-17.1,0.2-25.6,0.2c-10.4,0-20.9-0.3-31.3-0.1c-14.5,0.3-29-0.8-43.5,0.3
		c-2.7,0.2-5.6,0.1-8.4-0.6c-2.3-0.6-4.7,0.7-7.2,0.6c-9.2-0.3-18.4,0.5-27.6-0.1c-11.5-0.8-22.9,0.4-34.3-0.3
		c-7.7-0.5-15.3,0.1-23,0.2c-6.8,0-13.7-0.2-20.6-0.2c-5.6,0-11.3-0.1-16.9,0.2c-4.7,0.3-9.4-0.2-14.1-0.1
		c-6.4,0.1-12.8,0.5-19.2,0.1c-4.3-0.2-8.6,0.1-12.8,0.3c-0.8,0.1-1.2-0.6-1.5-1.2c1.7-0.9,3.8,0.3,5.5-0.7c0.7,0,1.4,0,2.1,0
		c1.2-0.7,1.2-1.4,0-2.1c-6.9,0-13.8,0.3-20.7-0.1c-15.5-0.8-30.9-0.3-46.4-0.8c-7.5-0.2-15-1.2-22.6-1.3c-0.5,0-1-0.4-1.5-0.6
		c3.9-1.9,8-1.7,12.1-1.7c23.9-0.1,47.8-0.1,71.7,0c4,0,8,0,12-0.9c1.9,0.4,3.8,0.1,5.7-0.5c1.5-0.3,2.8-0.7,4.3,0
		c0.5,0.3,0.9,0.8,0.8,1.5c-0.1,0.3-0.6,0.5-0.7,0.7c-0.1,0.3,0.3,0.1,0.5,0.1c1.2-0.7,2.6-0.8,4-0.8c12.8,0.1,25.5-0.8,38.3-1
		C450.9,747,452.2,746.6,452.4,748.3z"/>
	<path fill="#0F6885" d="M500.1,760.1c-1,1.1-2.3,0.7-3.6,0.7c-10.6,0.1-21.1,0-31.7,0c-14.6,0-29.3,0.4-43.9-0.1
		c-9.1-0.3-18.2,0.2-27.4-0.2c-7.3-0.3-14.6,0.6-22,0.2c-4.8-0.2-9.8-0.6-14.6-0.3c-6.4,0.3-12.8,0.3-19.3,0.3
		c-7.7,0-15.3-0.4-22.9-0.6c-3.5-0.1-7,1-10.6,0.7c-8.6-0.5-17.1-0.1-25.7-0.4c-4.3-0.2-8.9-0.3-13.3,0.8c-1.8,0.4-3.3-0.5-5-0.4
		c-4.8,0.1-9.6,0.1-14.4,0.1c-18.5,0-37.1,0.1-55.6,0c-7.5-0.1-14.9,0.6-22.4-0.7c3.2-1.9,6.4,0.7,9.7-0.1c3.8-1,7.7-0.3,11.5-0.5
		c4.1-0.2,8.2,0.5,12.2,0.2c4.6-0.3,9.1-0.6,13.7-0.2c7.3,0.6,14.6-0.1,22,0.3c4.6,0.2,9.5,0.1,14.2-0.3c4.1-0.3,8.4,0.3,12.5,0.3
		c3.2,0,6.5-0.4,9.8-0.4c7.7-0.1,15.5,0.8,23.3,0.5c7.5-0.3,15-0.8,22.4-0.3c7,0.5,14,0.1,21,0.3c5.1,0.1,10.4,0.3,15.6-0.1
		c8-0.6,16.1-0.6,24.2,0.2c4.5,0.4,9-0.5,13.6-0.5c12.2-0.1,24.3,0.1,36.5,0.6c5.2,0.2,10.4-0.6,15.5-0.6c12.5,0,25,0.3,37.5,0
		C488.6,759.3,494.3,759.9,500.1,760.1z"/>
	<path fill="#0F6885" d="M750.8,760.1c-8.9,1.1-17.8,0.2-26.8,0.4c-22.7,0.4-45.4,0.2-68.1,0.3c-13.7,0.1-27.5,0-41.2,0
		c-7.1,0-14.2,0-21.3,0c-10.8,0-21.5,0-32.3,0c-5.5,0-10.9,0-16.4,0c-1.1,0-2.3,0.4-3.2-0.7c7.5-0.6,14.9,0,22.3-0.3
		c5-0.1,10.1,0.2,15.1-0.3c5.1-0.5,10.4,0.1,15.5,0.4c2,0.1,4-0.2,6.1-0.3c10.4-0.1,20.9-0.1,31.3,0.1c7.7,0.1,15.5-0.1,23.3-0.1
		c5.4,0,10.9,0.3,16.2,0c5.2-0.3,10.3,0.6,15.5-0.1c4.1-0.6,8.4,0.1,12.5,0.3c1.6,0.1,3.2,0.3,4.8,0.1c8.4-1,16.8-1,25.1-0.4
		c4.8,0.3,9.7-1.1,14.6,0.3C746.1,760.6,748.6,758.4,750.8,760.1z"/>
	<path fill="#0F6885" d="M167.9,760.1c-2.3,1.9-5.1,0.3-7.5,0.3c-3,0-6.1,0.3-9.1,0.3c-7,0.1-14,0.1-21.1,0
		c-14.6-0.2-29.3,0-43.9,0.2c-5.2,0.1-10.4-1-15.5-0.7c-7.3,0.5-14.6,0.5-22,0.3c-5.5-0.1-10.8,0.3-16.3-0.5c1-1.1,2.3-0.7,3.6-0.7
		c7.6,0.1,15.1,0.2,22.7,0.2c9.3,0,18.7-0.7,28-0.1c7.5,0.5,14.9,0,22.3,0c8.6,0.1,17.3-0.1,25.9,0.1c6.3,0.1,12.6,0.1,18.9-0.2
		C158.5,759.3,163.2,759.2,167.9,760.1z"/>
	<path fill="#0F6885" d="M541.5,760.1c-11.5,1.5-23.1,0.3-34.7,0.7c-2.3,0.1-4.5-1.1-6.8-0.7c1-1.1,2.3-0.7,3.6-0.7
		c8.7,0.1,17.5,0.3,26.2,0.4c2.8,0,5.7-0.3,8.5-0.4C539.4,759.4,540.6,759.1,541.5,760.1z"/>
	<path fill="#0F6885" d="M32.5,760.1c-2.3,1.5-5,0.8-7.3,0.6c-4.5-0.4-9,0.7-13.4-0.6C18.7,759.1,25.6,759.5,32.5,760.1z"/>
	<path fill="#0F6885" d="M390.3,754.6c-1.7,1.4-3.7,0.4-5.5,0.7c-4.1,0-8.3,0-12.4,0c-2.8-0.3-5.6,0.8-8.3-0.7
		C372.8,754.6,381.5,754.6,390.3,754.6z"/>
	<path fill="#106C89" d="M105.7,711.7c-0.8,1-1.9,0.7-2.9,0.7c-10.5,0.1-20.9,1.7-31.3,2.6c-3,0.3-6.1,0.1-9.3-0.3
		c2.8-0.7,5.7-1.4,9.5-2.3c-3-1.1-5.2-0.5-7.4-0.7c0.9-1,2.1-0.7,3.2-0.7c5.1-0.1,10.3,0,15.4,0c-1.9,1.6-4.3,0-6.7,1.2
		c8.4,0.6,16.1-1.5,24-1.2C102,711.9,104,710.2,105.7,711.7z"/>
	<path fill="#106C89" d="M89.1,710.4c-1.9,1.4-4.1,0.4-6.2,0.7C84.8,709.7,87,710.7,89.1,710.4z"/>
	<path fill="#106F8C" d="M105.7,711.7c-1.9-0.3-3.8,0.7-5.5-0.7c3.7-0.5,7.5-1.2,11.2-1.3c11.4-0.2,22.8-0.4,34.2,0
		c35.1,1.4,70.2,0.5,105.2,0.4c13,0,26-0.1,39-0.6c10.9-0.5,21.8-2,32.7-3.7c11.6-1.8,23.3-1.4,35-0.5c4.9,0.3,9.8,0.6,14.8,0.8
		c8.8,0.3,17.5,0.1,26.2,0.1c12.8-0.1,25.2,2.4,37.6,5c4.1,0.9,7.9,2.6,11,5.9c-3.8-0.5-7.6-1-11.4-1.5c-6.1-0.7-12.3-1.8-18.4-1.8
		c-7.8,0-15.6-1-23.4-0.8c-11.5,0.3-23,0.5-34.4,0.9c-8.5,0.3-17-0.2-25.5,0.6c-11.8,1.1-23.7,0.3-35.5,0.6
		c-11.1,0.2-22.3-0.3-33.4-0.8c-16.1-0.8-32.2-0.1-48.3-0.5c-27.4-0.8-54.7-0.8-82.1-0.6c-5.9,0.1-12.2-0.1-18,1.9
		c-4.4,2.1-8.9,0.6-13.3,0.4c-0.8-0.1-1.3-0.8-1.1-1.8c1.5-1,3.2-0.6,4.8-0.7c0.8-1,2-0.4,3.6-1.3c-1.7,0.6-2.7,0.8-3.6-0.1
		C106.6,711.7,106.2,711.7,105.7,711.7z"/>
	<path fill="#0E6E8B" d="M102.2,713.8c2.1,2.7,5,0.7,7.5,1.2c2.2,0.6,4.7,0.1,7,0.1c0,0.6,0.1,1.1,0.7,1.4c1.9,0.6,3.7,0.6,5.5,0
		c0.7,0,1.4,0,2.1,0c5.8-0.8,11.6-0.1,17.4-0.3c1.3-0.1,2.8,0.3,4-0.3c10.9,0.5,21.8-0.6,32.7-0.9c4.6-0.1,9,0.4,13.6,0.2
		c1.2,0.7,2.5,0.3,3.7,0.3c13.7,0,27.3,0,41,0c1.2,0,2.6-0.3,3.7,0.3c0.9,0,1.9,0,2.8,0c1.9,0.7,3.9,0.3,5.7,0.3
		c9.2,0.1,18.3,0,27.5,0.1c1.1,0,2.3-0.3,3.4,0.3c0.7,0,1.4,0,2.1,0c1.5,0.9,3.3-0.2,4.8,0.7c0.5,0,0.9,0,1.4,0
		c4.8,0.8,9.5,0.3,14.3,0.3c4.2,0,8.4,0.5,12.6-0.3c2.3,0,4.6,0,6.9,0c6.3-0.8,12.6-0.1,18.8-0.3c4.8-0.2,9.6,0.5,14.4-0.3
		c3.5,0,6.9,0,10.4,0c3.2-1,6.5,0.3,9.7-0.7c0.9,0,1.9,0,2.8,0c2.2-1,4.7,0.3,6.9-0.7c0.2,0,0.5,0,0.7,0c6.2-0.6,12.4-0.6,18.6,0
		c1.4,0.2,2.7,1,4.1,0.7c2.9,1,6.1-0.3,9,0.7c1.2,0,2.3,0,3.5,0c1.7,1,3.8-0.2,5.5,0.7c0.2,0,0.5,0,0.7,0c1.2,0.9,2.9-0.1,4.1,0.7
		c0.5,0,0.9,0,1.4,0c-0.6,1.2-1.5,1.8-2.8,1.7c-8.4-0.8-16.7-0.5-25.1-0.2c-11,0.4-22,0.2-33-0.1c-9.3-0.3-18.7,0.1-28-0.3
		c-8-0.3-16.2-0.1-24.3,0.2c-6.6,0.2-13.5-0.1-20.2-0.1c-5.6-0.1-11.3,0.2-16.9,0c-9.1-0.3-18.3,0.8-27.4-0.2
		c-3.9-0.4-7.8,0.8-11.8,0.4c-5.7-0.5-11.5-0.6-17.2-0.3c-7.3,0.4-14.5-0.1-21.7,0.1c-4,0.1-8.3,1.4-12.3-0.6
		c-1.5-0.7-2.9,0.6-4.4,0.6c-9,0.3-18-1.3-26.9,0.9c-2.8-2.1-6-0.8-8.9-0.8c-7.7,0.1-15.5-0.5-23.3-0.1c-5.4,0.3-11.1-0.3-16.6-0.2
		c-6.6,0.1-13.4-0.7-20,0.9c-5-1.2-10.2-2.5-15.7-3.9C85.7,715.3,94,714.6,102.2,713.8z"/>
	<path fill="#10718F" d="M45.5,694.3c1.5-1.7,2.7-1.2,3.7-1.2c7.5-0.1,15-0.1,22.4,0c10.4,0.1,20.6-0.8,30.7-2.6
		c2.3-0.4,4.8-0.1,7.3-0.1c10.3-0.1,20.5-1.2,30.7-2.6c3.2-0.4,6.6-0.7,9.9-0.8c19.8-0.3,39.6-1.7,59.3-0.6
		c16.4,0.8,32.9,0.2,49.3,0.6c2.6,0.1,5.1,1.2,7.7,1c-5.2,0.1-10.3,0.9-15.3,1c-14.5,0.2-29-0.3-43.5,0.2c-13.1,0.4-26,1.8-39,2.6
		c-5.4,0.3-10.8,0.2-16.2,0.1c-9.5-0.2-18.9,1.7-28.3,3c-13.9,1.9-27.5,6.4-41.8,5.2c-8.6-0.6-17.3-1.6-25.6-4.3
		C53.3,694.5,49.7,694.7,45.5,694.3z"/>
	<path fill="#116D8A" d="M241.1,715.9c-14.9,0-29.8,0-44.8,0c-1.2,0-2.6,0.5-3.6-0.7c14.8,0,29.6,0,44.4,0
		C238.5,715.3,240,714.7,241.1,715.9z"/>
	<path fill="#0D6D8A" d="M288.2,686.4c4.1-0.1,8.1-0.8,12.1-1.5c1.2-0.2,3.1-0.5,3.2,1c0.1,1.7-1.8,1.7-3.1,1.7
		C296.3,687.6,292.2,687.8,288.2,686.4z"/>
	<path fill="#116D8A" d="M280.4,716.6c-11,0-22,0-33,0c-1.2,0-2.6,0.5-3.6-0.7c11,0,22,0,33,0C278.1,716,279.4,715.5,280.4,716.6z"
		/>
	<path fill="#116D8A" d="M355.7,716.6c-1,1.1-2.3,0.7-3.6,0.7c-9.9,0.1-19.8,0-29.6,0c1-1.1,2.3-0.7,3.6-0.7
		C336,716.6,345.9,716.6,355.7,716.6z"/>
	<path fill="#116D8A" d="M315.7,717.3c-0.4,0.2-0.8,0.6-1.2,0.6c-8.2,0.1-16.4,0.1-24.7,0c-0.4,0-0.8-0.4-1.2-0.6
		C297.7,717.3,306.7,717.3,315.7,717.3z"/>
	<path fill="#0D6D8A" d="M146.4,715.9c-1.1,1.2-2.6,0.6-3.9,0.7c-5.8,0.1-11.7,0-17.5,0c1.1-1.2,2.6-0.6,3.9-0.7
		C134.8,715.9,140.6,715.9,146.4,715.9z"/>
	<path fill="#0D6D8A" d="M268,685.5c2.8-0.1,5.6,0.3,8.3-0.7c2.6,2.6,5.9,0.7,8.8,1.8C279.3,687.1,273.7,686.5,268,685.5z"/>
	<path fill="#116D8A" d="M404.8,715.2c-6.2,0-12.4,0-18.6,0c3.9-1.5,8-0.4,12.1-0.6C400.4,714.5,402.7,713.8,404.8,715.2z"/>
	<path fill="#116D8A" d="M375.8,715.9c-3.1,1.5-6.4,0.3-9.7,0.7C369.2,715.1,372.5,716.2,375.8,715.9z"/>
	<path fill="#116D8A" d="M417.9,716.6c-3-0.4-6.1,0.8-9-0.7C411.9,716.3,415,715.1,417.9,716.6z"/>
	<path fill="#116D8A" d="M385.4,715.2c-2.2,1.4-4.6,0.3-6.9,0.7C380.7,714.5,383.2,715.5,385.4,715.2z"/>
	<path fill="#0D6D8A" d="M123,716.6c-1.9,1-3.7,1-5.5,0C119.3,716.6,121.1,716.6,123,716.6z"/>
	<path fill="#116D8A" d="M426.9,717.3c-1.9-0.3-3.8,0.7-5.5-0.7C423.2,716.9,425.2,715.9,426.9,717.3z"/>
	<path fill="#0D6D8A" d="M261.8,684.8c1.6,0.3,3.4-0.6,4.8,0.7C265,685.2,263.2,686.1,261.8,684.8z"/>
	<path fill="#116D8A" d="M287.4,717.3c-1.6-0.3-3.4,0.6-4.8-0.7C284.1,716.9,285.9,716,287.4,717.3z"/>
	<path fill="#116D8A" d="M431.7,718c-1.4-0.2-2.9,0.6-4.1-0.7C429,717.5,430.5,716.7,431.7,718z"/>
	<path fill="#0E6B88" d="M397.9,747.7c-3.4,1.3-6.9,1.5-10.4,1.4c-11.1-0.1-22,0-33.1,0c-11.8,0-23.6,0.1-35.4-0.1
		c-6-0.1-11.9,0.9-17.8,0.8c-10.4,0.3-20.8-0.8-31.2-2c-3.9-0.5-7.8,0-11.7-0.1c-6.5-0.3-12.7-1.1-18-5.5c-4.5-3.7-10.4-3.7-15.7-4
		c-9.6-0.6-19.3-0.7-29,0c-10,0.8-20,0.3-30,0.5c-3,0.1-6-0.6-9-1.3c2-1,4.2-0.2,6.3-0.5c7-0.9,14.2-1.6,21.2-1.5
		c11.6,0.1,23.2-0.5,34.8-1c13.1-0.5,26.1-0.9,39.2-1.5c7.3-0.3,14.7-0.7,22-0.4c12.6,0.5,25.1,1,37.4,4.1
		c8.4,2.1,17.1,2.5,25.7,3.3c11.1,1.1,22.1,1.9,33.2,2.8c7.7,0.6,15.3-0.3,22.9-1.7c11.7-2.1,23.4-4.2,35.4-3.8
		c12.8,0.4,25.5-0.7,38.3-0.8c6.4-0.1,12.7-1.2,19.1-1.9c1.5,1.6,3.4,0.9,5.1,1.1c1.9,0.2,3.9-0.6,5.4,1.2c-0.6,1.5-1.9,1.5-3.2,1.5
		c-1.9,0.1-3.7,0.1-5.5,0.1c-15.2-0.3-30.3,0.7-45.5,0.8c-13.7,0.1-27.1,3.7-40.5,6.3C404.3,746.1,401.3,747.5,397.9,747.7z"/>
	<path fill="#106C88" d="M502.2,736.6c-2.7,0-5.4-0.1-8.1,0c-1.5,0.1-2.4-0.4-2.3-2.1c0.2,0,0.5,0,0.7,0c1-0.8,2.4,0.1,3.5-0.7
		c6.5-0.3,12.8-2.3,19.3-3.1c11.3-1.5,22.6-1.1,34-0.5c10.1,0.6,20,2.3,30,3.2c13.2,1.1,26.6,0.1,39.6,3.2c4.3,1,8.6,2.3,12.6,4.1
		c0.4,0.5,0.4,0.9,0,1.4c-5,0.8-10.2-0.2-15.2-0.1c-3.5,0.1-6.8,0.8-10.4,0.8c-5.2,0.2-10.4-1-15.6-1.7c-1.7-0.2-3.4,0-5.1-0.3
		c-3.6-0.6-7.2-1.3-10.8-1.1c-10.6-0.6-21.1-1.4-31.6-1.8c-11.7-0.4-23.5-0.1-35.2-0.2C505.6,737.6,503.7,738.1,502.2,736.6z"/>
	<path fill="#0E6B88" d="M105.7,732.5c1,0,2,0,2.1-1.4c5.6,1.5,10.8,4.6,16.7,5c6.3,0.5,12.5,1.4,18.7,1.9c11.8,1,23.7,1.8,35.5,2.8
		c3.2,0.3,6.4-0.6,9.6-0.7c11.7-0.1,23.5-0.2,35.2,0.1c5.2,0.1,10.6,0.8,15.2,3.7c1.1,0.6,2.8,1.6,2.3,3c-0.4,1.1-2.2,1-3.5,0.9
		c-7.9-0.7-15.7-0.6-23.6-1.9c-4.5-0.7-9.1-0.4-13.7-0.8c-16.9-1.2-33.8-1.1-50.6-0.7c-6.8,0.1-13.7,0.8-20.5,0
		c-2.4-0.3-5,0.6-7.5,0.6c-2.1-0.1-3.9-0.9-3.9-3c-0.1-5.6-4.6-6.4-8.2-8.3C108.3,733,106.7,733.7,105.7,732.5z"/>
	<path fill="#0D6D8A" d="M109.1,728.3c10.4,0,20.9,0,31.2,0c7.7,0,15.5-0.1,23.3,0.6c1.6,0.1,3.4-0.4,5-1.5c-0.9-0.9-2.4,0-3-1.2
		c15,1.3,30,1.3,45,1.5c7.6,0.1,15.1,2.1,22.9,3.7c-3.6,0.8-6.9,1.1-10.3,1.1c-10.8,0-21.6,0.6-32.3,0.4c-12-0.3-24,1.3-36,1
		c-2.1-0.1-5.1-0.6-6.5,2.4c-0.1,0.2-0.9,0.3-1.3,0.2c-12.2-2.8-25.3-1.2-36.8-7.3C110,729.1,109.6,728.7,109.1,728.3z"/>
	<path fill="#0E6B88" d="M326.7,735.2c13.7-0.8,27.5-0.8,41.3-0.5c11.3,0.3,22.6-0.2,33.8-0.1c2.8,0,5.7-0.6,8.4,0.6
		c-2.8,1.5-6,0.9-9,1.2c-14.7,1.7-29.5,1.5-44.3,1.5c-9.9,0-19.6-1.6-29.4-2.2C327.3,735.8,327,735.4,326.7,735.2z"/>
	<path fill="#0E6B88" d="M115.1,744.1c-5.5-1.3-11.1-0.5-16.6-0.6c-2.7-0.1-5,0.2-4.6-3.7c0.2-2.6-2.5-3.3-4.6-5.2
		c8.2,0.1,15.7-0.7,22.7,3.1C115.2,739.4,115.6,740.1,115.1,744.1z"/>
	<path fill="#0E6B88" d="M57.4,733.8c3.7,0,7.9-1.2,10.8,0.3c5.4,2.7,10.8,1,16.1,2c4.9,0.8,6.6,2.8,7,6.1c0.2,1.9-0.6,2-2.1,2
		c-2.5-0.1-5-0.2-7.6,0c-3.2,0.3-5.6-0.1-5.9-4.1c-0.1-1.6-1.9-2.2-3.2-2.7C67.7,735.6,62.7,734.4,57.4,733.8z"/>
	<path fill="#106A87" d="M406.9,737.9c-10.1,1-20,6-30.8,1.7C386.6,739,396.8,738.5,406.9,737.9z"/>
	<path fill="#0D6986" d="M650,742.8c0.9,1.2,2.4,0.3,3.5,1c-2.3,1.8-20.9,2.3-30.5,0.4c3.4,0,6.7,0.1,10.1,0
		c3.2-0.1,6.4-0.3,9.3-1.4C644.9,742.8,647.4,742.8,650,742.8z"/>
	<path fill="#0F6885" d="M363.3,754.6c-14,0-28,0-42,0c-1.2,0-2.6,0.5-3.6-0.7c14,0,28,0,42,0C361,753.9,362.3,753.5,363.3,754.6z"
		/>
	<path fill="#0E6B88" d="M75.3,731.8c8.5,0,17,0,25.4,0c1.2,0,2.6-0.5,3.6,0.7c-8.5,0-17,0-25.4,0C77.6,732.5,76.3,732.9,75.3,731.8
		z"/>
	<path fill="#0D6D8A" d="M163.7,726.2c-3.8,0-7.5,0-11.3,0c-1.1,0-2.3,0.3-3.2-0.7c3.8,0,7.5,0,11.3,0
		C161.6,725.6,162.8,725.2,163.7,726.2z"/>
	<path fill="#0F6885" d="M252.8,749.7c-3.9,0-7.8,0-11.7,0C245,748.6,248.9,748.6,252.8,749.7z"/>
	<path fill="#0F6885" d="M266.6,750.4c-3.9-0.4-7.9,0.8-11.7-0.7C258.8,750.1,262.8,748.9,266.6,750.4z"/>
	<path fill="#0F6885" d="M295,752.5c-3.5-0.4-7,0.8-10.4-0.7C288,752.2,291.6,751,295,752.5z"/>
	<path fill="#0F6885" d="M306,753.2c-3.5-0.4-7,0.8-10.4-0.7C299.1,752.9,302.6,751.7,306,753.2z"/>
	<path fill="#0F6885" d="M316.4,753.9c-3-0.4-6.1,0.8-9-0.7C310.4,753.6,313.5,752.4,316.4,753.9z"/>
	<path fill="#0F6885" d="M277,751.1c-3-0.4-6.1,0.8-9-0.7C271,750.8,274.1,749.6,277,751.1z"/>
	<path fill="#0F6885" d="M231.4,749.7c-2.3-0.3-4.7,0.7-6.9-0.7C226.8,749.4,229.2,748.3,231.4,749.7z"/>
	<path fill="#106C89" d="M107.1,711.7c1.1,0,2.3,0,3.7,0c-1.1,1.6-2.5,1.3-3.7,1.4C107.1,712.6,107.1,712.2,107.1,711.7z"/>
	<path fill="#0F6885" d="M283.2,751.8c-2.1-0.3-4.3,0.7-6.2-0.7C279.1,751.5,281.3,750.4,283.2,751.8z"/>
	<path fill="#0D6D8A" d="M158.9,723.5c2.1,0.3,4.3-0.7,6.2,0.7C163,723.9,160.8,724.9,158.9,723.5z"/>
	<path fill="#0E6B88" d="M631.3,742.1c0-0.5,0-0.9,0-1.4c1.2,0.2,2.3,0.5,3.5,0.7C633.8,742.6,632.5,742,631.3,742.1z"/>
	<path fill="#0D6D8A" d="M168.5,724.2c1.9,0.3,3.8-0.7,5.5,0.7C172.2,724.6,170.3,725.6,168.5,724.2z"/>
	<path fill="#0D6D8A" d="M176.8,724.9c1.6,0.3,3.4-0.6,4.8,0.7C180.1,725.3,178.3,726.2,176.8,724.9z"/>
	<path fill="#0F6885" d="M392.3,752.5c0.8,0.1,1.7,0.1,1.6,1.2c-0.1,0.8-0.9,0.8-1.6,0.9C392.8,753.9,392.8,753.2,392.3,752.5z"/>
	<path fill="#0D6D8A" d="M142.3,724.2c1-1.2,2.3-0.6,3.5-0.7C144.8,724.7,143.5,724,142.3,724.2z"/>
	<path fill="#0E6B88" d="M496,733.8c-1,1.2-2.3,0.6-3.5,0.7C493.5,733.4,494.8,734.1,496,733.8z"/>
	<path fill="#1B7C9B" d="M185.1,613c9.8-0.6,19.6-0.6,29.3-2.7c6.2-1.3,12.2,0.4,18.2,1.6c0.8,0.1,1.6,0.3,2.3,0.4
		c0.9,0.2,2.4-0.5,2.3,1.1c0,1.2-1.4,1.6-2.3,1.5c-5-0.2-10,0.8-15,1.5c-8.3,1-16.5,2.2-24.8,3.2c-3.3,0.3-6.7,0.6-9.9,0.2
		c-10.9-1-21.7-1-32.5,0.7c-2.5,0.3-5,0.1-7.5,0.8c4.6,0,9.1,0,13.6,0c0,1.2-0.8,1.2-1.7,1.3c-6.8,0.6-13.5,0.3-20.2,0.8
		c-7-1.1-14-0.8-20.9-0.3c-9.7,0.8-19.3,1.3-28.6,2c1.7,0.6,3.9-1.2,5.9,0.3c-0.5,2-2.1,1.4-3.4,1.4c-9-0.1-18,0.8-27.1,0.3
		c-1.6-0.1-3.2,0.2-4.8,0.3c-1.2,0.1-2.6,0.4-3.5-0.7c-2.3-2.6-5.6-1.2-8.3-2c-1.8-0.6-3.8,0.6-5.5-0.8c10.2-0.7,20.5-1.4,30.7-2.1
		c1.3-0.1,2.8-0.4,3.4-1.5c1.4-2.2,3.7-2.5,5.7-2.6c3.8-0.2,7.5-0.8,11.3-0.9c9.6-0.3,19.2-0.7,28.9-0.7c2.6,0,5.2-0.8,7.8-0.6
		c0.8-0.7,1.7-0.7,2.6-0.7c9.4,0.3,18.8-0.8,28.1-1.6c7.6-0.6,15.1,0.4,22.6-0.1C182.9,613.2,184.1,613.6,185.1,613z"/>
	<path fill="#137897" d="M268,637.8c-3.9,4.4-9.4,4.1-14.4,3.9c-4.2-0.1-8.4-0.4-12.7-0.4c-9.3-0.1-18.6,0.4-27.9-0.1
		c-10.4-0.6-20.9,0.1-31.3-0.7c-9.3-0.7-18.6-0.2-27.8-0.6c-1.4-0.1-2.8-0.1-4,0.7c-3.6-0.7-7.3-0.1-10.8-0.3
		c-1.2-0.1-2.5,0.3-3.7-0.3c0-0.2,0-0.5,0-0.7c1.2-1.3,2.9-1.4,4.5-1.4c13.1,0.1,26.1-2,39.2-2.8c8.2-0.5,16.3-0.4,24.5,0.1
		c15.6,1,31.2,1.3,46.8,0.8c3.3-0.1,6.8-1.2,10.2,0.6c0.1,1,0.6,1.3,1.6,1.2C264,637.7,266,637.8,268,637.8z"/>
	<path fill="#1D84A6" d="M136.8,622.6c6.8-0.9,13.7-0.6,20.6-0.7c0.5,0,1-0.4,1.5-0.6c6.4,0,12.9-0.4,19.3,0.1
		c10.7,0.8,21.2-0.3,31.8-1.5c10.4,0,20.9,0.3,31.3-0.1c4.7-0.1,9.3-0.5,14-0.6c1.6-0.1,3.2-0.5,4.4-1.7c1-1,2.2-1.1,3.5-1
		c0,0.2,0,0.5,0,0.7c0.5,1.8-1.2,2-2.1,2.8c-1.7,0.8-3.5,1.5-5.5,1.5c-2.7,1-5.6-0.3-8.4,0.6c-1.1,0-2.3,0-3.4,0.1
		c-9,0-18-0.7-26.9,0.1c-20.1,1.9-40.2,0.6-60.3,1.3c-15.2,0.5-30.4,1.7-45.7,2.2c-10,0.3-20,1.7-30.1,2.1
		c-6.8,0.2-13.5,0.2-20.3,0.5c-1.1,0.1-2.3-0.3-3.2,0.7c-3.3,1.1-6.8,1.8-10.3,1.5c-1.7-0.3-3.3,0.4-5,0.6c-0.9,0.1-2.1,0.1-2.2-1
		c-0.1-1.5,1.2-0.9,2-1c2.9-0.3,5.8-0.5,8.6-1.4c1-0.8,2.4,0.1,3.5-0.7c0.2,0,0.5,0,0.7,0c12.2-1,24.3-0.6,36.5-0.7
		c0.8,0,1.6,0.1,2.2-0.7c4.5-2,9.4-1.4,14.1-2c7.3-1,14.6-0.9,21.9-0.8c1.6-0.1,3.2,0.1,4.7-0.2
		C134.9,622.4,135.9,622.1,136.8,622.6z"/>
	<path fill="#0B6683" d="M260.4,636.5c-13.3,0.7-26.7,1.2-40,0.6c-12.8-0.6-25.7-1.7-38.5-1.1c-9.8,0.5-19.6,1-29.4,2.6
		c-0.6,0.1-1.2,0.1-1.7,0.1c-5.2,0.1-10.4-0.3-15.5,0.7c-2.3,0-4.6,0-6.9,0c-3.1,0.7-6.3,0.1-9.4,0.3c-0.6,0-1-0.3-1-1
		c13-0.8,26-1.5,39-2.6c13.7-1.2,27.4-3.2,41.1-2.1c18.2,1.5,36.4,1.1,54.6,1.3c2,0,4-1.2,6.1-0.2
		C259.7,635.3,260.4,635.4,260.4,636.5z"/>
	<path fill="#0C6784" d="M118.1,638.5c3.4,1.5,6.9,0.3,10.4,0.7c-1,1.1-2.3,0.6-3.6,0.6c-15.3,0.1-30.5,0-45.7,0.1
		c-6.6,0.1-13.2,1.2-19.8-0.1c1.9-1.4,4.1-0.3,6.2-0.7C83.1,639.1,100.7,639.7,118.1,638.5z"/>
	<path fill="#0E6B88" d="M47,630.2c3.5-0.5,6.8-1,10.3-1.5c2.5,0,5,0,7.5,0c0,0.2,0,0.3,0,0.6c-5.1,0.5-10.2,1-15.3,1.5
		C48.7,631,47.7,631.1,47,630.2z"/>
	<path fill="#1B7C9B" d="M53.9,626.8c-1,1.2-2.3,0.6-3.5,0.7C51.4,626.3,52.7,627,53.9,626.8z"/>
	<path fill="#1F85A7" d="M282.5,645.5c0.3,0.2,0.5,0.4,0.8,0.6c-2.1,2.3-5.2,2.1-7.9,2.7c-10.8,2.7-21.8,2.1-32.9,2.1
		c-23.5,0-47-0.3-70.4,0.1c-10.9,0.2-21.8,0.4-32.7,0.6c-1.1,0-2.2,0-3.2,0c0-0.3,0-0.6,0-1c17.7,0,35.4,0,53.1,0
		c0-0.3,0.1-0.7,0.1-1.1c-4.1-1.3-8.4-2.7-12.8-2.7c-11.5-0.1-23-0.3-34.5,0.1c-6.8,0.2-13.5,1.9-20.4,2.3
		c-9.5,0.6-18.9,1.5-28.5,0.5c-6.6-0.7-13.3-0.6-19.9,0.5c-10,0-20,0-30,0c-0.9,0-2.6,0.6-2.6-0.7c-0.1-1.7,1.5-1.2,2.6-1.3
		c3.9-0.3,7.8,0.8,11.7,0.6c20-0.8,40-0.3,60-0.8c7.7-0.1,15.5-1,23.1-2.9c1.4-0.3,2.7-0.4,4.1-0.4c7.6,0,15.2,0.3,22.8-0.1
		c9.7-0.5,19.1,1,28.6,3.1c3.1,0.7,6.3,1.2,9.5,1.1c14.5-0.1,29,0.5,43.5-0.2c9.8-0.5,19.8,0.5,29.4-1.9
		C278,646.3,280.1,645.1,282.5,645.5z"/>
	<path fill="#0E6A86" d="M93.3,564.7c0.3,0.6,0.7,1.1,1.4,1.4c7,1.3,14.2,0.5,21.1-0.6c7-1.2,13.9-1.2,20.9-0.2
		c8,1.1,16.2,1.7,24.2,2.6c5.1,0.6,10.2,1.3,15.3,2.1c3.6,1.3,7.6,0.7,11.2,2.3c0.8,0.1,1.7-0.3,2.3,0.6c-2.2,1.5-4.8,1.1-6.9,0.7
		c-10.8-2.1-21.8-2.8-32.7-3.5c-8.9-0.6-17.7-2.9-26.6-2.5c-6.5,0.3-13,1.2-19.5,1.8c-1.6,0.1-3.2,0.4-4.8-0.1
		c-11.9-3.7-23.7-2.2-35.6-0.1c-10.7,1.9-21.3,4.4-32.3,4.6c-2.1,0.2-4.4,1.2-6.4-0.6c1.5-1.6,3.6-1.5,5.5-1.7
		c11.8-1.2,23.4-3.4,35.1-5.3c0.5-0.1,0.9-0.1,1.4-0.1c1.9,0.3,3.9-0.7,5.1-0.3c-2.6,0.4-5.9,0.1-9,1c-1.7,0.3-3.5,0.5-5.2,0.3
		c-1-0.1-2-0.2-2.4-1.4c0.3-0.6,0.8-0.8,1.3-1c1.2-0.2,2.6-0.1,3.8-0.6c0.9-0.2,1.9-0.3,2.8-0.3c1.5,0.1,3-0.1,4.6-0.4
		c3.7-0.1,7.4,0,11.1-0.1c3.5,0.8,7,0.4,10.4,0.8C90.4,564,91.9,563.7,93.3,564.7z"/>
	<path fill="#0E6B88" d="M59.4,581.9c-8.6,0-17.2,0-25.8,0c-1.1,0-2.3,0.3-3.2-0.7c9,0.4,17.9-0.3,26.8-0.8
		c22.6-1.2,45.2-0.2,67.8-0.6c1.9-0.1,3.9-1.5,5.5,0.7c-3.2,0.8-6.6,0.7-9.9,0.7c-19.1,0-38.2,0-57.3,0
		C62,581.3,60.6,580.7,59.4,581.9z"/>
	<path fill="#13708E" d="M130.6,580.5c-1.7-1.4-3.7-0.3-5.5-0.7c3.9-1.5,8.1-0.8,12.2-1.2c13.5-1.5,27.1-1.9,40.5-4.1
		c0.7-0.1,1.6-0.4,2.6,1C163.6,578.2,147,578.9,130.6,580.5z"/>
	<path fill="#2994B8" d="M187.2,572.2c-3.8,0.3-7.5-0.3-11.1-1.4c-5.2-1.4-10.6-2.5-16-2.8c-0.8-0.1-1.6-0.1-2.1-0.9
		c0.1-1.5,1.4-1,2.2-1.2c0.9,0,1.8,0.1,2.7,0.1c3.5,0.4,7,0.4,10.4,0.7c4.2,1.5,8.4,3.5,13,3.3c1,0,2,0.2,2.9,0.8
		C188.6,571.3,187.9,571.8,187.2,572.2z"/>
	<path fill="#0C6784" d="M53.9,577c-3.6-1.5-7.4-0.3-11.1-0.7c0.5-0.6,1.2-0.7,1.9-0.7c16.5-0.1,33.1-1.2,49.6-0.7
		c0.3,0,0.6,0.1,1.1,0.2c-1.2,0.8-2.3,0.4-3.4,0.4C79.3,575.4,66.7,577.3,53.9,577z"/>
	<path fill="#0F6D8B" d="M24.9,572.9c1.9,1.4,4.2,0.3,6.2,0.7c-2.1,1.3-4.4,0.6-6.7,0.6c-4.7,0.1-9.4,0-14.1,0
		c1.1-2.8,3.7-1.7,5.7-2.3c1.1-0.2,2.3-0.1,3.4-0.1C21.2,572.2,23.3,571.5,24.9,572.9z"/>
	<path fill="#0E6A87" d="M15.9,572.2c-1.6,1.5-4.2,0-5.5,2.1c-0.9,0-1.9,0-2.8,0c-0.5-0.5-0.9-0.9-1.4-1.4c2.1-0.2,4.1-0.5,6.2-0.7
		c1-0.6,2-0.2,3-0.3C15.6,572,15.8,572.1,15.9,572.2z"/>
	<path fill="#0C6784" d="M46.3,577.7c1.9-1.4,4.1-0.4,6.2-0.7C50.6,578.4,48.4,577.5,46.3,577.7z"/>
	<path fill="#0C6885" d="M107.1,642c4.6,1.6,9.3,0.3,13.8,0.7c-1,1.1-2.4,0.7-3.6,0.6c-13.9-0.5-27.8,0.2-41.7,1
		c-13.4,0.8-26.8,0.6-40.2,1.3c-7.3,0.3-14.4,0.3-21.6,0.5c-1.2,0-2.5,0.3-3.9-0.8c1-0.9,2-0.6,2.9-0.6c17.3,0.1,34.7-0.6,52-0.9
		c11.7-0.1,23.6-1.2,35.4-1.2C102.5,642.6,104.7,641.8,107.1,642z"/>
	<path fill="#0C6784" d="M135.4,639.9c3.8,0,7.5,0,11.3,0c1.1,0,2.3-0.3,3.2,0.6c-5.8,0-11.5,0-17.3,0
		C133.3,639.6,134.4,640,135.4,639.9z"/>
	<path fill="#106F8C" d="M137.5,559.8c-1.5,1.3-3.2,0.4-4.8,0.7c-1.2,0.2-2.5-0.4-3.5,0.7c-10.4-0.2-20.8-1.2-30.8-4.3
		c-3.5-1.1-7.3-1.2-10.5,1.5c0.6-2.6,1.2-3.2,3.7-3.3c3.4-0.3,6.6,0.3,9.8,1.2C113.2,559.5,125.3,560.1,137.5,559.8z"/>
	<path fill="#2795B9" d="M160.3,566c-0.5,0.8-1.3,0.7-2.1,0.7c-1.7,1.2-3.6,0.8-5.3,0.6c-11.7-1.5-23.3-2.9-35.2-2.2
		c-0.3,0-0.6-0.3-0.9-0.5c2.1-1.8,4.8,0.4,6.9-1.4c11.8,0.1,23.6,0.3,35.2,2.1C159.4,565.5,159.8,565.8,160.3,566z"/>
	<path fill="#137594" d="M303.9,668.9c-8.3,0-16.6-0.4-24.9,0.1c-22.4,1.3-44.8,0.6-67.3,0.5c-16.9-0.1-33.8-2-50.8-1.9
		c-1.5-0.7-3.1-0.1-4.6-0.3c-0.7-0.1-1.7,0.3-1.6-1c0.2,0,0.5,0,0.7,0c2.8-1,5.7,0.4,8.4-1c3.9-0.3,7.7,0.4,11.6-0.4
		c0.2,0,0.5,0,0.7,0c0.8-0.8,1.9-0.7,2.9-0.7c11.9,0,23.8-1.2,35.6-0.7c8.6,0.1,17.2,0.1,25.8-0.5c0.7-0.1,1.4,0,1.9,0.5
		c1.5,1,3.2,1.4,4.8,1.3c11.3-0.3,22.5,1.3,33.8,0.7c6.4-0.3,12.6,0.8,18.9,0.7C302,666.2,303.2,667.1,303.9,668.9z"/>
	<path fill="#147695" d="M242.5,663.4c-9.3,0.1-18.4,1.1-27.6,0.7c-0.4-0.8,0.3-1,0.7-1.4c8,0,16,0,24,0c0-0.2,0-0.5,0.1-0.7
		c-1.7,0-3.4,0-5,0c-8.3,0-16.6-0.1-24.9-0.1c-0.9,0-1.7-0.5-2.3-1.2c8.2-1.3,16.5-0.4,24.7-0.7c12.4-0.4,24.7-0.6,37-1.5
		c4.3-0.3,8.6-0.3,13-1c4.4-0.8,8.3,1.9,12.4,3.3c-1.3,1.9-3.4,1.7-5.3,1.7c-8.8,0.1-17.7,0-26.5,0c-4,0-7.9,0.8-12.2-0.3
		c1,0.8,2.8-0.8,3.2,1.3C249.8,663.4,246.2,663.4,242.5,663.4z"/>
	<path fill="#2085A7" d="M253.5,663.4c-1.6-1.5-3.8-0.1-5.7-1c13.8-1.3,27.4-1,41-1c1.9,0,3.7-0.1,5.4-0.7c2.4-0.6,3.6,1.5,6.3,2.8
		C284.3,663.4,268.9,663.4,253.5,663.4z"/>
	<path fill="#116D8B" d="M187.9,660.6c0,0.5,0,0.9,0,1.4c-17.8-1.4-35.6-0.4-53.3-0.7c-2.3-0.1-4.4-1.2-6.7-1
		C147.9,660.1,167.9,659.6,187.9,660.6z"/>
	<path fill="#127290" d="M47.5,661.6c-10.4,1-20.8-0.3-31.2-1.2c0-0.3,0-0.8,0-1.1c5.2,0,10.5-0.1,15.7,0
		C37.3,659.4,42.2,661.6,47.5,661.6z"/>
	<path fill="#1D86A7" d="M24.9,584c15.3,0.3,30.7,0.8,45.9,2.6c0.9,0.1,1.9,0.1,2.8,0.1c16.8,0,33.6,0.7,50.4-0.2
		c13.5-0.7,27.1-1.4,40.7-2.8c9.4-1,18.6-3.7,28.3-3.2c3.6,0.2,7,1.2,10.5,1.7c0.4,0.1,0.8,0.8,1.2,1.1c-1.2,2.6-3.4,1.7-5,1
		c-7-3.1-14-1.5-20.9,0.3c-8.4,2.1-16.8,3.2-25.4,3.7c-27.4,1.5-54.7,0.6-82.1,0.6c-13.3-0.1-26.7-1.7-40-2.6
		c-3.2-0.2-6.4-0.4-9.6,0.3c-1.9,0.4-3.9,0.1-5.9,0.1c0.4-2.1,2.9-0.4,3.6-1.9l0,0C21.1,583.7,23.1,584.9,24.9,584z"/>
	<path fill="#0D6985" d="M90.5,597.1c-0.2-0.5-0.5-0.9-0.7-1.4c10.6-0.2,21.1-0.1,31.6,0.8c4.7,0.4,9.3,0.9,14-0.1
		c-1,2.3,1.9,0.8,2.1,2.1C121.8,598.7,106.2,596.4,90.5,597.1z"/>
	<path fill="#126E8C" d="M158.9,604.7c-0.9,1-2.1,0.6-3.2,0.6c-3.1,0.1-6.2,0.1-9.3,0c-12.1-0.4-24.2,1.1-36.3,0.8
		c-1.7-0.1-3.4,0.4-5,0.6c-1.5,0.1-3,1.4-4.1-0.7c9.7-1,19.3-2.3,29-2.1c3.5,0.7,7,0.3,10.6,0.1c5.7-0.3,11.3-0.1,16.9-0.1
		C158,604.1,158.5,604.3,158.9,604.7z"/>
	<path fill="#0D6985" d="M158.9,604.7c-8.5,0-17,0-25.5-0.1c-1.2,0-2.6,0.5-3.6-0.7c11.8-0.6,23.7-0.8,35.6-0.6
		c0.8,0,2.9-1.5,2.4,1.2C164.9,604.7,161.9,604.7,158.9,604.7z"/>
	<path fill="#147896" d="M100.9,606.1c1.2,1.2,2.8,0.4,4.1,0.7c-4.6,1-9.2,1.4-13.8,1.4c-0.3,0-0.8,0.1-1-0.1
		c-1-0.6-0.1-0.6,0.3-0.6C93.9,606.8,97.3,606,100.9,606.1z"/>
	<path fill="#0F6D8B" d="M185.1,613c-0.6,0.7-1.4,0.7-2.2,0.7c-9.4,0.1-18.8-0.1-28.1,0.7c-8.8,0.8-17.5,1.6-26.3,1.4
		c-1.1-1.2-2.6-0.7-3.9-0.7c-18.2-0.1-36.5,0-54.8-0.1c1.2-1.2,2.6-0.6,3.9-0.6c18.9-0.1,37.6-0.1,56.5,0c10.8,0.1,21.5-0.8,32.1-2
		c2.1-0.2,4.1-0.1,6.2-0.1c2.8,1.5,5.8,0.5,8.7,0.6C179.9,613.1,182.5,613,185.1,613z"/>
	<path fill="#2795B9" d="M121.5,539.8c-0.4-0.2-0.9-0.5-1.3-0.7c-2-0.7-3.5-2.3-5.5-3c-2.4-1-5-0.9-7.5-0.8
		c-9.3,0.2-18.5,1.8-27.8,1.4c-2.2-0.1-4.5,0.1-6.7-0.1c-1.1-0.1-2.6,0.2-2.8-1.6c12.1-1.2,24.1-2.2,36.3-2.8
		c5.3-0.3,9.6,1.7,13.7,4.4c1.3,0.9,2.6,1.9,4.3,2.5C123.3,540.1,122.3,539.6,121.5,539.8z"/>
	<path fill="#218CAE" d="M69.8,534.9c3.1,1.5,6.5,0.3,9.7,0.7c-0.9,2.4-3,1.3-4.6,1.7c-2.3,0.1-4.6-0.3-6.9,0.3
		c-0.3,0.1-0.8,0.2-1.2,0.2c-2.7,0.3-5.4-0.3-8.1,0.6c-5.7,1.4-11.5,1.9-17.3,2c-7.3,0.7-14.4,2.9-21.8,3.1
		c-1.5,0.1-2.9,0.3-4.4,0.3c0.6-0.9,1.5-0.6,2.3-0.7c0.3,0,0.6-0.1,0.3-0.5c-0.1-0.1-0.4-0.1-0.6-0.1c4.4-1.6,8.9-1.2,13.4-1.9
		c4.1-0.6,8.4-1.3,12.4-2.4c6.1-1.7,12.4-2.1,18.6-2.4C64.4,535.5,67,534.8,69.8,534.9z"/>
	<path fill="#0D6C8A" d="M62.9,525.2c0.2,0.2,0.5,0.5,0.7,0.7c0,0.2-0.1,0.4-0.1,0.6c-2.1,1.2-4.6,1-6.9,1.4
		c-3.2,0.6-6.4,1.4-9.6,2.2c-1.9,0.7-3.7,1.4-5.5,2c-0.4-2.3-2.3-1-3.5-1.4c-0.2-0.3-0.7-0.3-0.7-0.7C45.9,529.2,54,525,62.9,525.2z
		"/>
	<path fill="#147695" d="M59.3,531.5c2.6-1.6,5.5-0.6,8.4-1c5.7-1,11.5-1.2,17.3-1.7c1.7,1.2,3.9-0.9,5.5,0.7
		c-3.5,1.6-7.4,0.5-11.1,1.2c-5.5,1-11.1,1.1-16.6,1.5C61.8,531.2,60.3,532.6,59.3,531.5z"/>
	<path fill="#2592B5" d="M47,530.1c5.1-3,10.8-3.2,16.4-3.6c1.6,0,3.2,0,4.8,0c0,0.2,0.1,0.4,0.1,0.6
		C61.2,528.1,54.1,529.2,47,530.1z"/>
	<path fill="#147695" d="M9,534.2c-1.7-1.4-3.7-0.3-5.5-0.7c1.9-1.3,4-0.6,6-0.6c5.1-0.1,10.3,0,15.4,0c-0.3,1.9-1.9,1.3-3,1.3
		C17.6,534.3,13.3,534.2,9,534.2z"/>
	<path fill="#106F8C" d="M90.5,529.5c-1.9-0.3-3.9,0.7-5.5-0.7c0.9,0,1.8,0,2.8,0c2.2-0.9,4.7,0.3,6.9-0.7c1.4,0,2.8,0,4.1,0
		c3.4,1.5,6.9,0.3,10.3,0.7c1.9,0.2,3.9-0.7,5.6,0.7C106.6,529.4,98.6,529.4,90.5,529.5z"/>
	<path fill="#106E8B" d="M59.3,531.5c1.2,0.2,2.5-0.4,3.5,0.7c-4.6,0.7-9.2,1.4-13.8,2.1c-1.1-0.8-2.2,0.1-3.2,0
		c-1.1-0.1-2.6,0.6-2.9-1.3C48.4,533.4,53.9,532.1,59.3,531.5z"/>
	<path fill="#0A6884" d="M42.8,532.8c1.8,1.7,4.4-0.3,6.2,1.3c-3.1,0.2-6.4,2.2-9.4-0.9C40.8,532.6,41.9,532.9,42.8,532.8z"/>
	<path fill="#147695" d="M94.6,528c-2.2,1.4-4.6,0.4-6.9,0.7C89.9,527.3,92.4,528.3,94.6,528z"/>
	<path fill="#218CAE" d="M14.5,542.5c-1,1.2-2.3,0.6-3.5,0.7C12,542.1,13.3,542.7,14.5,542.5z"/>
	<path fill="#1A7F9E" d="M207.2,588.9c-0.1,1.7-1.6,1.7-2.5,1.8c-4.7,0.8-9.4,1.3-13.5,4.1c-1.7,1.2-4.4,1-6.6,1.2
		c-5.7,0.4-11.4,1.2-17.1,1c-0.5,0-1-0.4-1.5-0.6c4.4-0.7,8.8-1.2,13.1-2c2.8-0.6,4.7-3,7.6-3.6
		C193.3,589.3,200.3,589.6,207.2,588.9z"/>
	<path fill="#1B7F9F" d="M24.9,584c-1.7,1.3-3.7,0.4-5.5,0.7C21.1,583.3,23,584.2,24.9,584z"/>
	<path fill="#1C7F9F" d="M215.5,662.7c-0.2,0.5-0.5,0.9-0.7,1.4c-12.9-0.6-25.8,0.8-38.7,0.7c-3.9-1.5-7.9-0.3-11.7-0.7
		c0.8-1,1.9-0.6,2.9-0.7c2.4,0,4.8-0.1,7.3,0C188.2,663.8,201.8,662.2,215.5,662.7z"/>
	<path fill="#147695" d="M198,661.7c1-0.4,1.8-0.5,2.5,0C199.7,662.2,199,662.1,198,661.7z"/>
	<path fill="#177A99" d="M154.7,666.2c1.8,1.7,4.4-0.3,6.2,1.4c-7.6,0-15.1,0-22.7,0C143.7,665.8,149.2,666.2,154.7,666.2z"/>
	<path fill="#1C7F9F" d="M175.5,664.8c-3.9,1.5-7.8,0.3-11.7,0.7c-0.5,0.4-0.9,0.4-1.4,0C166.6,663.9,171.1,665.2,175.5,664.8z"/>
	<path fill="#177A99" d="M162.3,665.5c0.5,0,0.9,0,1.4,0c-2.7,1.5-5.5,0.3-8.3,0.7C157.6,664.8,160.1,665.8,162.3,665.5z"/>
	<path fill="#2C90B3" d="M97.4,516.3c0.6,0.8,1.9,0.4,2.3,1.7c-1.7,0.5-3.2,0.2-4.8-0.1c-1.2-0.3-3-1.2-3.7,1.1
		c-2.8,0-5.5,1.1-8.3,0.8c-3.5-0.3-7,0.3-10.6,0.6c-1.3,0.1-2.8,0.6-3.9-0.6c0.2-0.1,0.4-0.1,0.6-0.1c0.8-1.4,2.2-0.7,3.3-1.2
		c1.6-1,3.5,0.1,5-0.8c0.7-0.1,1.4-0.3,2.1-0.4c1.2,0,2.3,0.6,3.4-0.4c2.6-0.3,5.1-0.7,7.6-1.1C92.8,516.5,95.2,515.3,97.4,516.3z"
		/>
	<path fill="#126884" d="M97.4,516.3c-2.3-0.4-4.7,0.6-6.8-0.6c0.4-0.1,0.8-0.1,1.3-0.2c2.3,0.1,4.6,0.1,6.8,0.3
		C98.2,516,97.8,516.2,97.4,516.3z"/>
	<path fill="#407A96" d="M72.5,519c-1.2-0.1-2.3,0.2-3.5,0.7c-0.6-0.8-1.5-0.5-2.1-0.7c1.5-0.8,3.2-0.7,4.8-0.7
		C72.5,518,72.6,518.3,72.5,519z"/>
	<path fill="#4289A8" d="M72.5,519c-0.3-0.3-0.5-0.5-0.8-0.8c1.8-1,3.7-0.6,5.7-0.6C76,519,73.9,517.9,72.5,519z"/>
	<path fill="#3D81A0" d="M82.9,516.8c-1,1.4-2.1,1-3.4,0.4C80.6,517.1,81.7,517,82.9,516.8z"/>
	<path fill="#197B9B" d="M18.7,621.9c0.5-0.5,0.9-1,1.4-1.4c10-1.1,20-2.3,30-3.3c1.8-0.2,3.7-0.2,5.5-0.1c5.5,0.3,11-1,16.5-0.7
		c0.7,0.1,1.8-0.5,2,0.6c0.2,1-0.3,2.1-1.5,2.4c-0.6,0.2-1.3,0.3-2,0.3C53.3,620.6,36,622.4,18.7,621.9z"/>
	<path fill="#1E83A5" d="M116.7,564.6c4.4,0,8.8,0.2,13.1-0.1c9.5-0.6,18.9,2.4,28.3,2.1c4.8,0.9,9.5,1.9,14.2,2.8
		c1.3,0.3,2.7,0.4,3.7,1.4c-8.7-1.1-17.4-2.5-26.1-3.2c-9.5-0.8-18.8-2.8-28.3-2.3c-6.3,0.4-12.5,1.2-18.7,1.9
		c-2.9,0.3-5.6-0.3-8.3-1.2C102,565.9,109.5,566.4,116.7,564.6z"/>
	<path fill="#1F83A5" d="M62.8,564.6c-0.9,0-1.8,0-2.7,0c-1,0.8-2.4-0.1-3.5,0.7c-0.4,0-0.9,0-1.3,0c-5.4,2.1-10.8,3.2-16.6,1.4
		c5.1-0.9,10.3-1.5,15.3-2.8c5.5-1.4,10.8-1.1,16.4-1.4c6.7-0.3,13.4-0.6,20,0.7c1.2,0.2,2.3,0.1,2.8,1.5c-1.4,0-2.7-0.1-4.1-0.1
		c-3.5-1-7,0.3-10.4-0.7c-3.9,0-7.8,0-11.7,0C65.7,564.8,64.1,563.7,62.8,564.6z"/>
	<path fill="#0E6A87" d="M38.7,566.7c5.6,0.3,11.1-0.8,16.6-1.4c0.5,0.8,1.3,0.7,2.1,0.7c-1.2,2.7-3.9,1.9-5.9,2.1
		c-4.3,0.6-8.6,1-13,1c-4.1-0.1-8.2,1-12.1,2.1c-2.3,0.7-4.5,1.6-7,1c-1.2,0-2.3,0-3.5,0l0,0c-0.2-0.1-0.3-0.3-0.2-0.5
		c0.1-0.1,0.1-0.2,0.2-0.2c3.2,0,6.3-0.9,9-2.8C29.5,568.1,34,566.8,38.7,566.7z"/>
	<path fill="#238AAC" d="M64.9,559.1c4.4,0.2,8.8-0.6,13.1,1.3c-4.4,0-8.7,0-13.1,0C64.5,560,64.5,559.6,64.9,559.1z"/>
	<path fill="#1E7F9F" d="M64.9,559.1c0,0.4,0,0.9,0,1.3c-2.8-0.1-5.6,0.1-8.3,0.7c-0.5-0.3-0.9-0.5-1.4-0.8c1.5-1.2,3.2-0.4,4.8-0.6
		c1-0.8,2.4,0.1,3.5-0.7C64,559.1,64.5,559.1,64.9,559.1z"/>
	<path fill="#238AAC" d="M63.6,559.1c-1,1.1-2.3,0.6-3.5,0.7C61.1,558.7,62.4,559.2,63.6,559.1z"/>
	<path fill="#1C7F9F" d="M50.4,524.6c-1.8-1.7-4.4,0.3-6.1-1.4c4.8,0,9.6-1.6,14.4-1.4c0.5,1,0.3,1.8-0.9,2
		C55.3,524.1,52.9,524.3,50.4,524.6z"/>
	<path fill="#0D6986" d="M37.3,530.1c0.2,0.2,0.5,0.5,0.7,0.7c-2.2,0.9-4.5,0.7-6.8,0.7C32.8,529,35.2,530.5,37.3,530.1z"/>
	<path fill="#1E83A5" d="M116.1,535.6c1.5,1,3.2,1.7,4.1,3.5c-0.9,2.8,1.2,2.6,2.8,2.8c0.8,0.1,1.9-0.1,1.9,1c0,1.1-1.1,0.9-1.9,1
		c-2.8,0.3-5-0.1-6.2-3c-0.9-2.1-2.6-2.5-4.8-2.6c-13.8-0.3-27.4,1.5-41,3.4c-7.6,1-15.3,1.5-22.9,2.2c-2.3,0.2-4.6,0.6-6.7,1.4
		c-4.1,0.6-8.2,1.9-12.5,0.6c5.5-1.6,11.1-3.2,16.6-4.8c4.7-2.1,9.7-2.3,14.6-2.9c3.2-0.3,6.4-0.5,9.6-0.8
		c12.2-0.6,24.5-1.7,36.7-2.3C109.8,534.9,112.9,535.3,116.1,535.6z"/>
	<path fill="#106B88" d="M69.8,538.4c-8.1,0.6-16.2,1.2-24.2,2.8c-1.2-1.2-2.8-0.4-4.2-0.7c5.8-0.9,11.5-1.9,17.3-2.8
		c2.7-0.6,5.4-0.1,8.1-0.3C67.8,537.6,69.4,536.2,69.8,538.4z"/>
	<path fill="#0F6D8B" d="M15.9,571.5c0,0.2,0,0.5,0,0.7c-1.2,0-2.3,0-3.5,0C13.4,571.1,14.7,571.7,15.9,571.5z"/>
	<path fill="#0E6B88" d="M574.7,738.7c3.5,0,7,0.1,10.4,1.4c-0.1,1.6,1.9,0.2,2.1,1.4c-0.2,2.1-1.7,2.1-3.3,2.1
		c-7.3-0.1-14.6,0.2-21.8-0.6c-2.9-0.3-5.9,1.1-8.8-0.1c-0.7,0.4-1.5,0.7-2.3,0.6c-11.5-1.1-22.9,0.8-34.5,1.3
		c-11.5,0.6-23,0.8-34.5,1.3c-12.6,0.6-25.1,0.3-37.6,0.6c-10,0.3-20,1.4-30,1.2c-1.4-0.1-2.8-0.1-4.2,0.3c-1,0.1-2,0.2-2.8-0.6
		c-0.2-0.2-0.5-0.5-0.7-0.7c2.4-2.6,5.9-2.4,8.9-3c19.3-4.2,38.9-4.8,58.6-5c24.7-0.2,49.4-0.4,74.1-0.6c8.8-0.1,17.6,0.7,26.4,1.4
		c0.1,0,0.3,0.1,0.2,0C574.8,739.3,574.7,739,574.7,738.7z"/>
	<path fill="#086581" d="M407.5,747.7c0.9,0,1.9,0,2.8,0c1-0.8,2.4,0.1,3.5-0.7c20.2-0.5,40.3-1.5,60.4-1.6
		c12.6,0,25.4-0.6,38.1-1.3c6.9-0.4,13.9-1,20.8-1.7c6.6-0.7,13.5-0.7,20.2,0.5c-0.9,1.9-2.6,1.2-4.1,1.4c-2.5,0.9-5.1-0.3-7.6,0.7
		c-2.3,0-4.6,0-6.9,0c-1.2,0.8-2.9-0.2-4.1,0.7c-1.6,0-3.2,0-4.8,0c-2,0.9-4.2-0.3-6.2,0.7c-1.9,0-3.7,0-5.5,0
		c-3.2,1-6.5-0.3-9.7,0.7c-2.3,0-4.6,0-6.9,0c-3.5,0.7-7,0.1-10.5,0.3c-1.3,0.1-2.7-0.3-4,0.3c-2.1,0-4.1,0-6.2,0
		c-3.9,0.9-7.9-0.3-11.7,0.7c-4.1,0-8.3,0-12.4,0c-1.7-1.7-3.5,0.1-5.2,0.1c-11.9,0.1-23.8,0.4-35.7,0.6c-2.8,0-5.4,1.5-8.3,0.4
		C404.1,747.4,406.6,749.2,407.5,747.7z"/>
	<path fill="#0D6986" d="M587.1,741.4c-1.5,0-2.9,0-4.6,0c0.4-1.9,1.7-1.1,2.5-1.4c7,0.6,13.9,1.2,20.7,2.8
		c-2.3,1.3-4.6,0.7-6.9,0.3C594.9,742.6,591.1,742,587.1,741.4z"/>
	<path fill="#0D6986" d="M482.8,747.7c3.4-1.5,6.9-0.3,10.4-0.7c1.4-0.1,2.8,0,4.1,0c-3.4,1.5-6.9,0.3-10.4,0.7
		C485.6,747.8,484.2,747.7,482.8,747.7z"/>
	<path fill="#0D6986" d="M464.9,748.3c3.9-1.5,7.8-0.3,11.7-0.7C472.7,749.2,468.8,748,464.9,748.3z"/>
	<path fill="#0D6986" d="M504.2,747c3.1-1.5,6.4-0.3,9.7-0.7C510.8,747.7,507.5,746.6,504.2,747z"/>
	<path fill="#0D6986" d="M541.5,744.9c2.4-1.5,5.1-0.3,7.6-0.7C546.7,745.7,544,744.6,541.5,744.9z"/>
	<path fill="#0D6986" d="M519.4,746.3c1.9-1.4,4.1-0.4,6.2-0.7C523.7,747,521.5,746,519.4,746.3z"/>
	<path fill="#0D6986" d="M530.5,745.6c1.2-1.2,2.8-0.5,4.1-0.7C533.4,746.1,531.9,745.4,530.5,745.6z"/>
	<path fill="#0E6A86" d="M173.4,566.8c-3.6,1-7,0.5-10.4-0.7C166.5,564.7,170,565.4,173.4,566.8z"/>
	<path fill="#167694" d="M247.3,621.9c2.7-1.4,5.6-0.3,8.4-0.6c2.5,1.7,4.8-0.3,7.3-0.3c0.8,0,1.9-0.8,2.3,0.6
		c0.4,1.4-0.6,1.7-1.7,2.1c-0.6,0.1-1.1,0.4-1.7,0.4c-6.6-0.3-13.2,1.3-20-0.1c3.9-0.5,7.7-1,11.5-1.5c0-0.2,0-0.3,0-0.6
		C251.4,621.9,249.3,621.9,247.3,621.9z"/>
	<path fill="#147695" d="M261.1,619.9c0.7-0.9,1.4-1.9,2.1-2.8C265.6,620.4,262.5,619.5,261.1,619.9z"/>
	<path fill="#086581" d="M574.7,738.7c0.8,1.3,2.4,0.2,3.9,1.5c-6.4-0.3-12.3-0.6-18.2-1.1c-3.2-0.3-6.4-0.6-9.5,0.1
		c-1.2,0.2-2.5,0.3-3.7,0.3c-16.3,0-32.7-0.5-49,0.1c-15.1,0.6-30.3,0-45.5,0.6c-10.2,0.4-20.4,1.5-30.5,3.7
		c-5.1,1.2-10.4,1.7-15.4,3.1c-2.1-0.3-3.9,0.5-5.9,1c-1.1,0.3-2.1,0.8-3-0.3c7.7-3.7,16.2-4.4,24.5-6.2c15.6-3.6,31.5-3.2,47.4-3.7
		c9.9-0.3,19.7-0.2,29.6-0.5c1,0,2.1,0.3,2.9-0.7c10.9,0,21.8-0.2,32.7,0.1c10.4,0.2,20.8,0.7,31.2,1.5
		C569,738.3,571.9,738.7,574.7,738.7z"/>
	<path fill="#0F708E" d="M129.9,623.3c-12.3-0.6-24.5,0.8-36.6,2.1c-2.3,0-4.6,0-6.8,0c4.8-1,9.7-1.9,14.6-2.1
		c10.7-0.7,21.4-1.7,32.1-1.3c1.2,0.1,2.6-0.5,3.6,0.7c-0.9,0-1.8,0-2.8,0C132.7,623.5,131.1,622.4,129.9,623.3z"/>
	<path fill="#1B7C9B" d="M129.9,623.3c1.2-1.2,2.8-0.5,4.1-0.7C132.8,623.9,131.2,623.1,129.9,623.3z"/>
	<path fill="#1B80A1" d="M19.4,572.2c4.8-0.7,9.1-3,14-3.7c5.5-0.8,11-0.1,16.4-1.1c2.6-0.5,5.2-0.6,7.6-1.5c1.9,0,3.7,0,5.5,0
		c1.5-0.1,3-1.4,4.1,0.7c-12.9,2.5-26,4.6-39,6.1c-1,0.1-2.1,0.1-3.1,0.1C23.1,572.6,21.1,573.6,19.4,572.2z"/>
	<path fill="#147695" d="M67,566.7c-1.2-1.2-2.8-0.4-4.1-0.7c3.4-1.5,6.9-0.3,10.4-0.2C71.2,566.1,69.1,566.4,67,566.7z"/>
	<path fill="#0E6A87" d="M78.8,563.9c3.5,0.3,7-0.8,10.4,0.7C85.7,564.3,82.1,565.4,78.8,563.9z"/>
	<path fill="#0E6A87" d="M62.8,564.6c1.2-1.2,2.8-0.5,4.2-0.7C65.8,565.2,64.2,564.4,62.8,564.6z"/>
	<path fill="#0E6A87" d="M56.6,565.3c1-1,2.3-0.6,3.5-0.7C59.1,565.8,57.8,565.2,56.6,565.3z"/>
	<path fill="#126E8C" d="M69.8,538.4c-0.8-1-1.9-0.6-2.8-0.8c-0.2-0.1-0.2-0.3-0.1-0.5c0.1-0.1,0.1-0.2,0.2-0.2c0.2,0,0.4,0,0.7,0
		c2.2-1,4.7,0.3,6.9-0.7c1.6-0.3,3.4,0.6,4.8-0.7c10,0.5,20-1.5,30-1.5c2.3,0,4.6,0.3,6.6,1.4c-3.7,0.6-7.4,0.4-11,0.5
		c-9.6,0.1-19.2,1.5-28.8,1.7C74.1,537.7,72,538.7,69.8,538.4z"/>
	<path fill="#1E83A5" d="M67,537c0,0.2-0.1,0.4-0.1,0.6c-2.8,0-5.5,0-8.2,0C61.4,536.3,64.2,537.3,67,537z"/>
	<path fill="#1E83A5" d="M74.6,536.3c-2.2,1.3-4.6,0.4-6.9,0.7C69.9,535.6,72.3,536.6,74.6,536.3z"/>
	<path fill="#0D6986" d="M413.8,747c-1,1.2-2.3,0.6-3.5,0.7C411.3,746.5,412.6,747.2,413.8,747z"/>
	<rect x="0" y="766.3" fill="#0B6683" width="1440.1" height="33.6"/>
	<path fill="#0B6683" d="M986.9,750.5c0,0,25.2-9.6,32.2-9.5c7,0.2,34,10.4,50,10.3s26,0,52,4c26,3.9,55,6.9,69,8.9s25-3,57-3
		s49,3.1,74,2.1s26-6.2,61-6.6s58,0,58,0v43.2l-482.7-12.6l37.3-31.9"/>
</g>
</svg>
