<?xml version="1.0" encoding="utf-8"?>
<!-- Generator: Adobe Illustrator 18.0.0, SVG Export Plug-In . SVG Version: 6.00 Build 0)  -->
<!DOCTYPE svg PUBLIC "-//W3C//DTD SVG 1.1//EN" "http://www.w3.org/Graphics/SVG/1.1/DTD/svg11.dtd">
<svg version="1.1" id="Layer_1" xmlns="http://www.w3.org/2000/svg" xmlns:xlink="http://www.w3.org/1999/xlink" x="0px" y="0px"
	 viewBox="0 0 29.1 25.1" enable-background="new 0 0 29.1 25.1" xml:space="preserve">
<path fill="#D7F0F9" d="M28.7,15.5c-0.5-1.3-1.1-2.1-1.8-2.5c0.2-0.5,0.3-1,0.4-1.5c0.1-1.8-0.8-3.3-2.8-4.6
	c-1.2-0.8-2.3-1.2-3.3-1.2c-0.1-1-0.3-2-0.8-2.8c-1-1.8-3-2.8-5.7-2.8c-2.8,0-4.7,0.9-5.7,2.8C8.4,3.6,8.2,4.5,8.1,5.6
	c0,0-0.1,0-0.1,0C6.9,5.6,5.8,6,4.6,6.8c-2,1.3-2.9,2.8-2.8,4.6c0,0.5,0.2,1,0.4,1.5c-0.7,0.5-1.3,1.3-1.8,2.5
	c-0.6,1.7-0.5,3.1,0.2,4.2C1.7,21.2,4.2,22,7.8,22c0,0,0,0,0,0c0.2,0,0.5,0,0.7,0c-0.4,0.6-0.6,1.3-0.6,2.1v1h13.4v-1
	c0-0.8-0.2-1.5-0.6-2.1c0.2,0,0.3,0,0.5,0c3.7,0,6.1-0.8,7.2-2.4C29.2,18.5,29.3,17.1,28.7,15.5z M21.1,7.6c0.7,0,1.4,0.3,2.3,0.9
	c1.3,0.9,1.9,1.8,1.9,2.8c-0.2,2.8-4.7,6.1-8.2,8.1C18.6,16.4,20.8,11.6,21.1,7.6z M10.6,3.8c0.7-1.2,2-1.8,4-1.8s3.3,0.6,4,1.8
	c1.9,3.4-1.5,11.2-3.8,15.5l-0.4,0C12.1,14.9,8.7,7.2,10.6,3.8z M5.7,8.4C6.6,7.9,7.3,7.6,8,7.6c0,0,0.1,0,0.1,0
	c0.4,4.1,2.6,9,4.2,12c-3.5-2.1-8.3-5.5-8.5-8.3C3.8,10.2,4.4,9.3,5.7,8.4z M7.8,20C7.8,20,7.8,20,7.8,20c-2.9,0-4.9-0.5-5.5-1.5
	c-0.4-0.5-0.4-1.3,0-2.3c0.3-0.7,0.6-1.2,0.9-1.4c1.4,2,3.8,3.8,5.9,5.3C8.7,20,8.3,20,7.8,20z M10.2,23.1c0.7-1.4,2.7-1.7,4-1.8
	l0.9,0c1.3,0.1,3.4,0.4,4,1.8H10.2z M26.8,18.5c-0.7,1-2.6,1.5-5.5,1.5c-0.4,0-0.9,0-1.3,0c2.2-1.4,4.5-3.3,5.9-5.3
	c0.3,0.3,0.6,0.7,0.9,1.5C27.2,17.2,27.2,17.9,26.8,18.5z"/>
</svg>
