<?xml version="1.0" encoding="utf-8"?>
<!-- Generator: Adobe Illustrator 18.0.0, SVG Export Plug-In . SVG Version: 6.00 Build 0)  -->
<!DOCTYPE svg PUBLIC "-//W3C//DTD SVG 1.1//EN" "http://www.w3.org/Graphics/SVG/1.1/DTD/svg11.dtd">
<svg version="1.1" id="Layer_1" xmlns="http://www.w3.org/2000/svg" xmlns:xlink="http://www.w3.org/1999/xlink" x="0px" y="0px"
	 viewBox="0 0 30.1 30.1" enable-background="new 0 0 30.1 30.1" xml:space="preserve">
<path fill="#FFDA6E" d="M15.1,0C6.8,0,0,6.8,0,15.1s6.8,15.1,15.1,15.1c8.3,0,15.1-6.8,15.1-15.1S23.4,0,15.1,0z M16.6,27V14.6
	l4.1,3.9l2.1-2.2L15.1,9l-7.6,7.3l2.1,2.2l4.1-3.9V27C7.6,26.3,3,21.2,3,15.1C3,8.4,8.4,3,15.1,3c6.7,0,12.1,5.4,12.1,12.1
	C27.1,21.2,22.5,26.3,16.6,27z"/>
</svg>
