<?xml version="1.0" encoding="utf-8"?>
<!-- Generator: Adobe Illustrator 18.0.0, SVG Export Plug-In . SVG Version: 6.00 Build 0)  -->
<!DOCTYPE svg PUBLIC "-//W3C//DTD SVG 1.1//EN" "http://www.w3.org/Graphics/SVG/1.1/DTD/svg11.dtd">
<svg version="1.1" id="Layer_1" xmlns="http://www.w3.org/2000/svg" xmlns:xlink="http://www.w3.org/1999/xlink" x="0px" y="0px"
	 viewBox="0 0 6601.5 301.1" enable-background="new 0 0 6601.5 301.1" xml:space="preserve">
<g>
	<path fill="#27657A" d="M2909.5,221.1c-67.5,3.1-134.9,7-202.4,9.2c-28.5,0.9-57.2-2.6-85.7-2.5c-73.1,0.3-144.2,11.9-215.5,30
		c-78.5,19.9-159.4,32.8-240,41.4c-36.4,3.9-76.1-5.2-111.7-16.7c-76.3-24.6-149.7-58-226.4-80.9c-42.7-12.7-89.4-13.6-134.5-16.4
		c-141.1-8.9-282.2-19.1-423.5-23c-72.8-2-146.4,4.8-218.9,14c-63.2,8-124.8,28.5-188.1,36.3c-39.8,4.9-81.3-3.2-122-5.9
		c-56.6-3.7-113.2-8.8-169.9-11.3c-79.8-3.5-160-10.8-239.5-6.3c-90.8,5.1-181,21.5-271.6,32.6c-18.5,2.2-37.3,2.3-55.9,3.2
		c-1.3,0.1-2.6-1.7-4-2.6c1-0.6,1.9-1.3,3-1.7c33.2-11.4,67.3-20.6,99.5-34.4c89.2-38.2,182-40.5,276.7-34.7
		c69.1,4.2,138.4,3.6,207.6,7.4c68.2,3.7,136.1,11.2,204.2,15.2c49.4,2.9,92.8-17.7,138.7-33.7c92.9-32.3,188.9-57.1,285.2-77.8
		c53.4-11.5,109.9-11,165.1-11.4c96.7-0.7,193.5-1,289.9,4.2c73.5,4,146.7,15.3,219.7,26.2c83.7,12.5,166.7,29.2,250.3,42.2
		c66.6,10.4,133.5,18.9,200.4,26.4c92.4,10.4,185,19.6,277.7,28.4c69.9,6.6,139.8,13.3,209.9,16.8c34.6,1.7,69.5-4.4,104.3-5.7
		c38.4-1.4,77,0.4,115.2-2.6c34.5-2.7,68.6-11.6,103.1-14.6c59.9-5.3,119.9-9.4,179.9-11.5c36.8-1.3,74.3,6.1,110.7,2.3
		c67.3-7,135.4-14.5,200.8-30.9c73.8-18.5,143.9-51.6,217.7-69.9c93.3-23.1,188.1-45.5,283.5-53.8c120.3-10.5,241.8-8.7,362.8-8
		c75.5,0.4,150.6,9.1,222.5,36.3c50.5,19.1,100.8,41.5,153.3,52.3c103.3,21.4,208,36.4,312.4,52.6c42.8,6.7,86.1,11.6,129.4,13.8
		c111.9,5.6,221.9,14.5,328.1,58.2c45.5,18.7,99.7,18.6,150.3,21.7c71,4.3,142.3,4.6,213.5,4.9c52.5,0.2,105.1-2,157.6-4
		c92.5-3.6,185-9.7,277.5-10.9c35.3-0.4,71.3,7.8,105.9,16.5c15.9,4,29,18.7,43.3,28.7c1.1,0.7,1.3,2.7,1.9,4.1
		c-2.1,0.7-4.5,2.5-6.3,2c-19-5.2-37.7-14.2-56.9-15.6c-58.8-4.1-117.8-6.1-176.7-7.3c-41.7-0.8-83.7-1.8-125.1,2.3
		c-51.4,5.1-103,12.7-153.4,24.2c-84.9,19.3-168.9,29.3-255.6,11c-54.5-11.5-110.9-13.5-165.9-23.2c-34-6-66.6-19.5-100.2-27.9
		c-42-10.5-84-22.4-126.8-28.1c-47.8-6.4-96.8-11.3-144.7-8.3c-76,4.8-151.7,15.1-227.1,26.2c-113.3,16.7-226.9,26-339.4,1.4
		c-33.9-7.4-62.8-35.9-95.4-51.7c-39.2-19-79.9-34.9-120-52c-88.2-37.7-182.4-35-274.2-30.8c-87.2,4-173.8,23.1-260.2,38.5
		c-81.9,14.6-163.1,32.9-244.6,49.5c-61.4,12.5-122.4,27.1-184.2,36.4c-48.3,7.3-97.6,10.5-146.5,11.1
		c-102.3,1.2-204.6,0.6-306.9-1.4C3030.6,229.8,2970.1,224.6,2909.5,221.1z"/>
</g>
</svg>
