<?xml version="1.0" encoding="utf-8"?>
<!-- Generator: Adobe Illustrator 18.0.0, SVG Export Plug-In . SVG Version: 6.00 Build 0)  -->
<!DOCTYPE svg PUBLIC "-//W3C//DTD SVG 1.1//EN" "http://www.w3.org/Graphics/SVG/1.1/DTD/svg11.dtd">
<svg version="1.1" id="Layer_1" xmlns="http://www.w3.org/2000/svg" xmlns:xlink="http://www.w3.org/1999/xlink" x="0px" y="0px"
	 viewBox="0 0 1440 900" enable-background="new 0 0 1440 900" xml:space="preserve">
<path fill="#4F9FB5" d="M1440,900v-39.7c0,0-2-2.2-1.6-2.2s-45.4,2.2-55.8,2.2s-65.4-15.5-78.2-15.5s-15.9,5-24.5,5
	c-8.7,0-20.5-8.2-29.5-8.2c-9.1,0-26.8,5-37.3,5s-37.3-23.7-52.3-25.9c-15-2.3-25,8.2-34.6,8.7c-9.5,0.5-477.5-17.3-477.5-17.3l0,0
	c-1.3-3.9-2.7-7.7-4.2-11.5c-2.9-7.4-7.7-11.2-15.5-12.2c-8.1-1-16-3.1-23.9-5.3c-16.4-4.7-33,23.2-50.2,23
	c-6.9-0.1-13.8-0.7-20.7-1.4c-16.9-1.6-33.5-6.3-50.7-5.5c-2.5,0.1-5.3-0.6-6.5-3.1c-2.5-5.5-7.2-6.1-12.3-6.5
	c-5.6-0.4-11.5-0.1-16.6-3.2c-2.9-1.7-5.9-2.9-9.1-3.5c-4.8-1-9.5-2.3-13.6-5.1c-6.5-4.4-12.9-8.9-18.5-14.4
	c-1.3-1.3-2.8-1.7-4.6-1.7c-13.8,0.1-27.7,0.1-41.6,0.2c-1.7,0-3.4,0.2-5.1,0.3c-13.2,0.9-26.3,3.3-39.7,2.4
	c-5.3-0.3-9.8-1.1-11.4-7.4c-0.6-2.6-1.9-5.6-5.2-6.2c-4.3-0.7-8.2-2.6-12.2-4.2c-9.6-3.8-19.2-7.8-29-10.8
	c-12.1-3.8-23.1-10.4-34.4-16c-1.9-1-3-2.7-2.9-5c0.1-2.4-1-4.1-3.4-4.8c-2.5-0.8-3.6-2.6-3.3-5.2c0.1-1.6,0.1-3.2,0.3-4.8
	c0.3-1.8-0.3-3.2-1.8-4c-8.7-4.6-16-11.3-24.5-16.1c-6.6-3.7-12.3-8.4-17.6-13.8c-2.3-2.5-3.7-5.1-3.3-8.5c0.3-2.7,0.6-5.5,0.5-8.1
	c-0.3-10.3,1-20.4,3.8-30.3c1.2-4.1,1.8-8.9-0.6-12.2c-5-6.8-3.1-12.5,0.2-19.2c2.7-5.7,3.6-11.9-2.5-17.2c-6-5.2-6.5-12.7-2.7-19.6
	c0.7-1.3,1.3-2.7,2-4c5.1-8.5,10.6-16.6,17.6-23.6c1.7-1.7,3.5-3.5,3.3-6.1c-0.1-2,0.6-3.5,2.2-4.6c2-1.5,3.1-3.3,1.7-5.9
	c-1-2-0.3-3.4,1.7-4c8.4-2.3,16.6-5.6,25.5-5.6c12.1-0.1,24.3,0.9,36.4,1.2c14.3,0.4,28.6,0.5,42.9-0.3c13.3-0.7,26.6-0.2,39.9-0.2
	c9.5,0,19.1,0.1,28.6,1.4c9.6,1.3,19.2,1.6,28.8,1.4c1.8-0.1,3.6-0.4,5.4-0.7c0.7-0.1,1.6-0.3,1.7-1.4c0-0.7-0.7-1.2-1.3-1.4
	c-1.7-0.6-3.3-1.5-5.1-1.8c-14.6-2-28.9-5.3-43.2-8.9c-11.2-2.8-22.7-3.8-33.9-6.9c-15.7-4.4-31.8-7.8-47-13.8
	c-11-4.3-22.4-7.2-33.1-12.5c-2.2-1.1-4.6-1.8-7.1-2.3c-8-1.6-16-3.2-24-4.9c-13.6-2.9-27.5-3.1-41.1-5.4
	c-10.8-1.8-21-4.8-29.7-11.9c-12.5-10.2-25.9-18.7-41.6-23.2c-3.1-0.9-5.9-2.5-8.6-4c-5.7-3.3-11.4-6.5-17.2-9.7
	c-0.7-0.4-2.1-2.3-2.7,0.3c-1.6,3.2-0.2,6.1,1.2,8.7c2.7,4.8,5.7,9.4,10.1,12.7c7.6,5.9,15.2,11.5,21.9,18.3
	c8,8.1,17.1,15.2,24.3,24.2c4.6,5.7,9.1,11.5,14,17.1c3.1,3.6,6.1,7.4,8.8,11.2c2.7,3.9,2.8,8-0.1,11.7c-2.2,3-4.4,6.1-7,8.7
	c-9.4,9.6-18.8,19.3-28.2,29c-7.2,7.4-15.1,14-22.3,21.5c-2.2,2.4-4.1,5.2-6.6,7.3c-5.6,4.7-10,10.4-15.1,15.6
	c-4.9,5-9.5,10.3-14.7,15.1c-5.6,5.2-11.4,10.2-13.8,17.9c-1.2,3.7-3.2,6-7.2,6.7c-3.3,0.6-6.2,2.2-7.2,6c-0.5,1.7-2,2.1-3.5,2.4
	c-3.3,0.6-5.1,2.7-5,5.9c0.1,4-2.1,6.3-5.3,8c-2.3,1.2-4.7,2.2-7,3.5c-1.9,1.1-4.2,1.9-5.5,4c0,83.7,0,167.4,0,251.2
	c0,0.3,0,0.6,0,0.9L1440,900L1440,900z"/>
</svg>
