<?xml version="1.0" encoding="utf-8"?>
<!-- Generator: Adobe Illustrator 19.0.1, SVG Export Plug-In . SVG Version: 6.00 Build 0)  -->
<svg version="1.1" id="Layer_1" xmlns="http://www.w3.org/2000/svg" xmlns:xlink="http://www.w3.org/1999/xlink" x="0px" y="0px"
	 viewBox="0 0 513.2 143.5" style="enable-background:new 0 0 513.2 143.5;" xml:space="preserve">
<style type="text/css">
	.st0{fill-rule:evenodd;clip-rule:evenodd;}
</style>
<g>
	<path class="st0" d="M111.7,43c-2.8,0.5-7.7,0.8-10.4,2.8c-2.7,2-4.4,20-5.2,27.8c-0.7,7.7-2.4,21.3,0.5,28.7
		c2.2,5.6,7.4,5.9,12.7,5c4.5-0.8,3.7-3.4,3.9-7.4c0.2-3.6,0.3-7.2,0.5-10.8c0.5-7.8,1.7-15.5,3.8-23c0,0,0,0,0,0v0c0,0,0,0,0,0
		c0,0,0,0,0,0c0,0,0,0,0,0C119.6,58.6,127.1,40.4,111.7,43 M116.8,68.6C116.5,69.6,116.4,70.1,116.8,68.6"/>
	<polygon class="st0" points="293.3,66.1 293.3,66.1 293.3,66.1 	"/>
	<path class="st0" d="M287.5,43c-2.8,0.5-7.7,0.8-10.4,2.8c-2.7,2-4.4,20-5.2,27.8c-0.7,7.7-2.4,21.3,0.5,28.7
		c2.2,5.6,7.4,5.9,12.7,5c4.5-0.8,3.7-3.4,3.9-7.4c0.2-3.6,0.3-7.2,0.5-10.8c0.5-7.8,1.7-15.5,3.8-23c-0.1,0.2-0.1,0.5-0.2,0.8
		c-0.2,0.7-0.4,1.3-0.5,1.7c0.1-0.5,0.3-1.1,0.5-1.7c0.1-0.3,0.1-0.5,0.2-0.8c0-0.1,0-0.1,0-0.2c0,0.1,0,0.1,0,0.2
		C295.4,58.6,303,40.4,287.5,43 M292.4,69.3C292.4,69.6,292.3,69.6,292.4,69.3"/>
	<path class="st0" d="M291.5,38.1c5.8,0,10.4-4.7,10.4-10.4c0-5.8-4.7-10.4-10.4-10.4c-5.8,0-10.4,4.7-10.4,10.4
		C281.1,33.4,285.7,38.1,291.5,38.1"/>
	<path class="st0" d="M254.9,44.5c-6.1-0.5-11.3,2.1-16,6.4c-2.2,2-4.2,4.2-6.2,6.2c2.6-8.5,6.7-22.1-6.8-19.8
		c-2.8,0.5-7.7,0.8-10.4,2.8c-2.7,2-5.7,26.7-8.1,40.4c-2.4,13.7-8.1,50.1-5.2,57.5c2.2,5.6,7.4,5.9,12.7,5c4.5-0.8,3.7-3.4,3.9-7.4
		c0.2-3.6,0.1-7.2,0.5-10.8c0.7-5.8,1.5-11.6,2.4-17.3c3,1.6,6.1,2.2,9.4,2c2.9-0.1,6-0.6,8.8-1.6c11.5-4.5,20.7-16,24.5-25.1
		c3.8-9.1,4.6-21.6,3.6-26.8C266.5,49,262.2,45.1,254.9,44.5 M244.7,80.1c-2.3,9.7-7.2,17.7-8.8,19.2c-1.6,1.5-4,1.5-5-0.8
		c-0.7-1.6-0.8-3.4-1.1-5.2c-0.3-2-0.3-4.1-0.7-6.1c-0.3-1.8-1.5-2.7-3-3.1c-0.6-0.1-1,0-1,0s0.8-4.8,2.8-8.4
		c2.6-4.6,8-13.2,14-18.6c1.2-1.1,3.1-2.5,4.2-2.3c2,0.4,1.7,2.8,1.8,4.6C248.1,66.3,247,70.4,244.7,80.1"/>
	<path class="st0" d="M341.1,46.5c-5-2.8-10.5-2.7-16.3-1c-13.6,3.8-27.4,15.7-29.3,34.4c-0.9,6.4-0.4,12.2,2.4,17.4
		c4.4,7.9,11.8,10.7,21.1,10.5c9.2-0.2,18.7-6,23-14.6c1-2.1,1.4-4.4,2-6.7c0.1-0.5-0.3-1.5-0.7-1.5c-0.6-0.1-1.4,0.3-1.9,0.7
		c-0.8,0.8-1.4,1.7-2,2.6c-2.6,3.9-6,6.8-10.5,7.9c-6.6,1.6-12-2.2-12.5-9.4c-0.8-10.5,2.6-20.4,8.3-29.9c0.5-0.8,1.1-1.4,1.8-2
		c2.1-1.9,4.2-1.9,5.3,0.5c0.7,1.6,0.8,3.4,1.1,5.2c0.3,2,0.3,4.1,0.7,6.1c0.4,2.2,2,3.2,4.2,3.3c2.8,0.1,4.9-1.5,6.5-3.7
		C349.3,59.3,347.9,50.3,341.1,46.5"/>
	<path class="st0" d="M510.1,71.2c0.8-11,9.1-28.8-4.8-27.4c-2.6,0.3-6.9,0.8-9.7,2.4c-1.9,1-3.8,2.4-5.8,4.3c-2.2,2-5,5.1-7,7.1
		c2.6-8.4,7.4-22.9-6.6-20.6c-2.8,0.5-7.7,0.8-10.4,2.8c-2.7,2-4.4,20-5.2,27.8c-0.7,7.7-4.1,27.4-1.1,34.8c2.2,5.6,7.4,5.9,12.7,5
		c4.5-0.8,3.6-3.4,3.9-7.4c0.4-6.4,0.9-17.3,3-24.9c2-7.2,7.1-12.3,12.7-17.4c-0.7,6.4-0.7,14,0.9,18c2.2,5.6,7.4,5.9,12.7,5
		C509.9,79.9,509.8,75.2,510.1,71.2"/>
	<path class="st0" d="M200.8,93.1c-1.3-0.2-1.8,0.1-2.5,0.6c-1.2,0.7-2.2,1.7-3.2,2.6c-2.5,2.2-5.1,4.1-8.3,4.7
		c-5.7,0.9-10.9-3.4-11.8-9.6c4-2.2,8-4.1,11.7-6.6c7.8-5.4,14.1-12.2,17.1-21.2c3.4-10.3-2.2-18.4-12.8-18.5
		c-12.5-0.1-27.8,9.5-33.8,21.5c-4.3,8.5-5.5,17.3-3.4,25.9c0.2,0.7,0.7,1.8,0.7,1.8s-1.4,0.8-2.2,1.1c-3.9,1.8-8.7-0.6-8.5-4.9
		c-0.1-7.9,0.3-24,2.3-39c1.9-15,3.9-20.9,5-26c1.5-6.9,9.6-27.5-6-24.5c-2.8,0.5-7.7,0.8-10.4,2.8c-2.7,2-5.6,21.6-6.3,29.4
		c-2.1,15.8-3.6,25.5-4,43.4c-0.1,6.7,0.4,13.3,2.5,19.5c2.6,7.7,7,11,15.4,9.5c5.2-0.9,10.2-2.8,14.8-5.8c0.9,1.2,2.4,2.6,3.8,3.6
		c5.5,4.3,12.2,4.9,19.4,4.3c5.7-0.5,11.3-2,16-6c1.9-1.6,3.3-3.2,4.7-5.9C201.2,95.1,202.1,93.3,200.8,93.1 M174,83.8
		c-0.1-3.8,0.7-7.9,1.8-11.7c1.6-5.6,3.4-11.2,6.7-16.3c0.8-1.3,1.9-2.5,3.1-3.6c1.8-1.5,3.6-1.2,4.2,0.8c0.5,1.6,0.7,3.4,0.4,5.1
		c-1.7,9.5-6.4,17.7-14.2,24.2C174.8,83.4,174,83.8,174,83.8"/>
	<path class="st0" d="M443.5,45c-12.5-0.1-27.8,9.5-33.8,21.5c-4.3,8.5-5.5,17.3-3.4,25.9c0.1,0.6,0.5,1.3,0.6,1.6
		c0,0-2.1,1.1-2.9,1.5c-4.2,2.2-8.7,2.4-11.2-4.2c-1.6-4.2-3.5-12.1-4.4-21.4c7-5.6,14.9-14.3,14.8-16.9c-0.1-3.3-2.9-7.4-4.3-9.9
		c-7.6-13.7-17.1,3.5-21.7,9.8l0,0c-1.9,2.6-4,5.2-6.2,7.6c0.2-1.1,0.3-2.2,0.5-3.3c2.3-14.9,4.6-25.9,6.1-32.6
		c1.1-4.8,9.6-27.5-6-24.5c-2.8,0.5-7.7,0.8-10.4,2.8c-2.7,2-5.8,21.5-8,39.5c-2.3,18.1-6.2,51.7-3.3,59.2c2.2,5.6,7.4,5.9,12.7,5
		c4.5-0.8,3.7-3.4,3.9-7.4c0.2-3.6,0.3-7.2,0.5-10.8c0.1-1.4,0.3-3.1,0.5-5.1c1.5-1.2,3-2.4,4.6-3.5c0.6,6.2,1.7,13.3,3.9,18.3
		c3.5,7.8,8.5,10.8,17.7,8.7c5.6-1.3,11-3.7,15.7-7.1l-0.3-0.7l0.3,0.7c0.9,1.2,2.4,2.6,3.8,3.6c5.5,4.3,12.2,4.9,19.4,4.3
		c5.7-0.5,11.3-2,16-6c1.9-1.6,3.3-3.2,4.7-5.9c0.3-0.7,1.3-2.4,0-2.7c-1.3-0.2-1.8,0.1-2.5,0.6c-1.2,0.7-2.2,1.7-3.2,2.6
		c-2.5,2.2-5.1,4.1-8.3,4.7c-5.7,0.9-10.9-3.4-11.8-9.5c4-2.2,8-4.1,11.7-6.6c7.8-5.4,14.1-12.2,17.1-21.2
		C459.6,53.2,454,45.1,443.5,45 M442.7,58.2c-1.7,9.5-6.4,17.7-14.2,24.2c-1.3,1.1-2.1,1.4-2.1,1.4c-0.1-3.8,0.7-7.9,1.8-11.7
		c1.6-5.6,3.4-11.2,6.7-16.3c0.8-1.3,1.9-2.5,3.1-3.6c1.8-1.5,3.6-1.2,4.2,0.8C442.7,54.6,443,56.5,442.7,58.2"/>
	<path class="st0" d="M87.9,45.9c-5.4,0.7-10.9,0.9-17.2,1.4c-0.1-8.9,0.8-16.4,2.2-19.7c7.8,0.5,21,1.7,27.7,1.5
		c9.3-0.3,15.1-7.3,13.3-15.1c-0.6-2.7-1.8-3.9-4.7-4C85,8.4,67.8,6.1,55.8,4.1C46.2,2.6,36.6,1,27.1,0.7C7.6,0.1-3.1,13.8,0.8,33.1
		c1.7,8.4,8.7,16.4,16,18.3c4.9,1.3,10.1-0.6,11.8-4.3c1.1-2.4,1.2-4.3-2-6.2c-4.4-2.4-8.3-5.6-10.4-10.5
		c-3.4-7.9-0.1-13.7,8.2-13.7c3.6,0,7.2,0.1,10.8,0.8c7.1,1.3,16.6,4,23.2,5.5c-3.1,2.5-6,15.9-7.8,22.2c0,0-2.3-0.4-3.5-0.4
		c-5.6,0.3-6.9,6.9-4.2,10.3c2.7,3.3,5.5,3.7,6.4,3.9l-1,21.7c-0.5,10.9-3.7,23.6-5,25.9c-1.3,2.3-3,4.9-6,4.1
		c-3.1-0.9-4.9-3.1-5-6.1c-0.1-2.9,0.8-5.4,1.6-9.6c0.6-3.3,0.3-4-2.9-5.1c-5.6-1.9-12,0.4-15.4,5.6c-3.4,5.2-3,12,1.4,16.5
		c6.6,6.8,15.1,8.8,24.2,7.7l0,0c5.6-0.8,10.5-3.3,14.5-7.5c7.4-7.8,10.5-17.8,12.2-28.5c1.1-7,1.8-14,2.7-20.4
		c4.7,0,9,0.3,13.2-0.1c7.3-0.6,11.6-6.3,10.4-13C93,46.3,91.6,45.5,87.9,45.9"/>
</g>
</svg>
