<?xml version="1.0" encoding="utf-8"?>
<!-- Generator: Adobe Illustrator 19.0.1, SVG Export Plug-In . SVG Version: 6.00 Build 0)  -->
<svg version="1.1" id="Layer_1" xmlns="http://www.w3.org/2000/svg" xmlns:xlink="http://www.w3.org/1999/xlink" x="0px" y="0px"
	 viewBox="0 0 313 81.2" style="enable-background:new 0 0 313 81.2;" xml:space="preserve">
<g>
	<g>
		<path d="M25,15.9c-13.8,0-25,11.2-25,25v40.3h4.5v-26C9,61.6,16.5,65.9,25,65.9c13.8,0,25-11.2,25-25S38.8,15.9,25,15.9z M25,61.4
			c-11.3,0-20.5-9.2-20.5-20.5S13.7,20.4,25,20.4c11.3,0,20.5,9.2,20.5,20.5S36.3,61.4,25,61.4z"/>
		<path d="M143.5,15.5c-8.5,0-16,4.3-20.5,10.8v-26h-4.5v40.3c0,14.7,10.3,25,25,25c13.8,0,25-11.2,25-25
			C168.5,26.7,157.2,15.5,143.5,15.5z M143.5,61c-12.3,0-20.5-8.2-20.5-20.5c0-11.3,9.2-20.5,20.5-20.5c11.3,0,20.5,9.2,20.5,20.5
			C164,51.8,154.8,61,143.5,61z"/>
		<path d="M201.9,15.5c-8.5,0-16,4.3-20.5,10.8v-26h-4.5v40.3c0,14.7,10.3,25,25,25c13.8,0,25-11.2,25-25
			C226.9,26.7,215.7,15.5,201.9,15.5z M201.9,61c-12.3,0-20.5-8.2-20.5-20.5c0-11.3,9.2-20.5,20.5-20.5s20.5,9.2,20.5,20.5
			C222.4,51.8,213.2,61,201.9,61z"/>
		<path d="M241,53.7V0h-4.5v53.7c0,6.3,5.1,11.5,11.5,11.5v-4.5C244.1,60.6,241,57.5,241,53.7z"/>
		<path d="M108.7,35.7C106.2,21.8,93,12.6,79.2,15c-6.7,1.2-12.5,4.9-16.4,10.5c-3.9,5.6-5.4,12.3-4.2,19C59.8,51.2,63.5,57,69,60.9
			c4.3,3,9.4,4.6,14.5,4.6c1.5,0,3-0.1,4.5-0.4c11.1-2,19.4-10.7,20.8-21.9l-0.2,0l-4.5,0.8c-1.6,8.5-8.3,15.2-16.9,16.7
			c-10.6,1.9-20.9-4.7-23.8-14.8l45.6-8L108.7,35.7z M62.7,41.5c-0.3-4.8,1-9.5,3.7-13.4c3.2-4.6,8-7.6,13.5-8.6
			c1.2-0.2,2.4-0.3,3.6-0.3c9.2,0,17.5,6.2,20.1,15.1L62.7,41.5z"/>
		<path d="M301.7,35.7C299.2,21.8,286,12.6,272.2,15c-6.7,1.2-12.5,4.9-16.4,10.5c-3.9,5.6-5.4,12.3-4.2,19
			c1.2,6.7,4.9,12.5,10.5,16.4c4.3,3,9.4,4.6,14.5,4.6c1.5,0,3-0.1,4.5-0.4c11.1-2,19.4-10.7,20.8-21.9l-0.2,0l-4.5,0.8
			c-1.6,8.5-8.3,15.2-16.9,16.7c-10.6,1.9-20.9-4.7-23.8-14.8l45.6-8L301.7,35.7z M255.7,41.5c-0.3-4.8,1-9.5,3.7-13.4
			c3.2-4.6,8-7.6,13.5-8.6c1.2-0.2,2.4-0.3,3.6-0.3c9.2,0,17.5,6.2,20.1,15.1L255.7,41.5z"/>
	</g>
	<g>
		<path d="M311.9,64.6c-0.7,0.7-1.6,1.1-2.7,1.1s-1.9-0.4-2.7-1.1c-0.7-0.7-1.1-1.6-1.1-2.7c0-1,0.4-1.9,1.1-2.7
			c0.7-0.7,1.6-1.1,2.7-1.1c1,0,1.9,0.4,2.7,1.1c0.7,0.7,1.1,1.6,1.1,2.7C313,62.9,312.6,63.8,311.9,64.6z M306.9,59.6
			c-0.6,0.6-0.9,1.4-0.9,2.3c0,0.9,0.3,1.7,0.9,2.3c0.6,0.6,1.4,1,2.3,1s1.7-0.3,2.3-1c0.6-0.6,0.9-1.4,0.9-2.3
			c0-0.9-0.3-1.7-0.9-2.3c-0.6-0.6-1.4-1-2.3-1C308.3,58.6,307.5,58.9,306.9,59.6z M309.1,59.8c0.5,0,0.9,0,1.1,0.1
			c0.4,0.2,0.6,0.5,0.6,1.1c0,0.4-0.1,0.6-0.4,0.8c-0.1,0.1-0.3,0.2-0.6,0.2c0.3,0.1,0.6,0.2,0.7,0.4c0.2,0.2,0.2,0.4,0.2,0.6v0.3
			c0,0.1,0,0.2,0,0.3c0,0.1,0,0.2,0,0.2l0,0.1h-0.7c0,0,0,0,0,0c0,0,0,0,0,0l0-0.1v-0.3c0-0.5-0.1-0.8-0.4-1
			c-0.2-0.1-0.4-0.1-0.8-0.1h-0.6v1.6h-0.7v-4.2H309.1z M309.9,60.4c-0.2-0.1-0.5-0.2-0.9-0.2h-0.6v1.5h0.7c0.3,0,0.5,0,0.7-0.1
			c0.3-0.1,0.4-0.3,0.4-0.7C310.2,60.7,310.1,60.5,309.9,60.4z"/>
	</g>
</g>
</svg>
